<svg width="1088" height="269" fill="none" xmlns="http://www.w3.org/2000/svg">
  <path d="M68 249v-.8c.7 0 1.2-.1 1.5-.3.3-.2.6-.6.7-1.3h.8v8.4h-1v-6h-2zm5.8 6c0-.7.2-1.4.5-1.9.2-.5.8-1 1.5-1.4l1.1-.7c.5-.3.9-.5 1-.7.4-.4.6-.7.6-1.2a1.6 1.6 0 00-1.6-1.6c-.8 0-1.3.3-1.5.9a3 3 0 00-.3 1.2h-1c0-.7 0-1.3.3-1.8.5-.8 1.3-1.2 2.5-1.2 1 0 1.6.2 2 .8.5.5.7 1 .7 1.7s-.2 1.2-.7 1.7c-.2.3-.7.6-1.4 1l-.8.5-1 .6c-.3.3-.6.7-.7 1.1h4.6v1h-5.8zm6.8-3.9h3v1.1h-3v-1zm4 3.9c0-.7.1-1.4.4-1.9.2-.5.7-1 1.5-1.4l1.1-.7c.5-.3.9-.5 1-.7.4-.4.6-.7.6-1.2a1.6 1.6 0 00-1.6-1.6c-.8 0-1.3.3-1.6.9a3 3 0 00-.2 1.2h-1c0-.7 0-1.3.3-1.8.5-.8 1.3-1.2 2.4-1.2 1 0 1.7.2 2.1.8.5.5.7 1 .7 1.7s-.2 1.2-.7 1.7l-1.5 1-.8.5-.9.6c-.4.3-.6.7-.7 1.1h4.6v1h-5.8zm9.5-8.4c1 0 1.8.5 2.3 1.4.4.6.6 1.6.6 2.8 0 1.1-.2 2-.5 2.8-.5 1-1.3 1.6-2.4 1.6-1 0-1.8-.4-2.3-1.3a6 6 0 01-.6-3c0-.9.1-1.7.4-2.4.4-1.3 1.3-1.9 2.5-1.9zm0 7.7c.5 0 1-.3 1.3-.8.3-.4.4-1.3.4-2.7 0-1 0-1.7-.3-2.3-.2-.6-.7-1-1.4-1-.6 0-1 .4-1.3 1a6 6 0 00-.5 2.5c0 .9.1 1.6.3 2 .3.9.8 1.3 1.5 1.3zM98 251h3v1.1h-3v-1zm3.9 3.9c0-.7.2-1.4.4-1.9.3-.5.8-1 1.5-1.4l1.2-.7 1-.7c.3-.4.5-.7.5-1.2 0-.4-.1-.8-.4-1.1-.3-.3-.7-.5-1.2-.5-.7 0-1.2.3-1.5.9a3 3 0 00-.3 1.2h-1c0-.7.1-1.3.4-1.8.4-.8 1.2-1.2 2.4-1.2 1 0 1.7.2 2.1.8.4.5.7 1 .7 1.7s-.3 1.2-.7 1.7a7 7 0 01-1.5 1l-.8.5-1 .6-.7 1.1h4.6v1H102zm9.5-8.4c1.1 0 1.9.5 2.4 1.4.4.6.5 1.6.5 2.8 0 1.1-.1 2-.5 2.8-.5 1-1.3 1.6-2.4 1.6-1 0-1.7-.4-2.2-1.3a6 6 0 01-.6-3c0-.9 0-1.7.3-2.4.5-1.3 1.3-1.9 2.5-1.9zm0 7.7c.6 0 1-.3 1.3-.8.3-.4.5-1.3.5-2.7 0-1-.1-1.7-.3-2.3-.3-.6-.7-1-1.4-1-.6 0-1 .4-1.4 1a6 6 0 00-.4 2.5c0 .9 0 1.6.3 2 .3.9.7 1.3 1.4 1.3zm3.8.7c0-.7.2-1.4.5-1.9.2-.5.7-1 1.5-1.4l1.1-.7c.5-.3.9-.5 1-.7.4-.4.6-.7.6-1.2a1.6 1.6 0 00-1.6-1.6c-.8 0-1.3.3-1.5.9a3 3 0 00-.3 1.2h-1c0-.7 0-1.3.3-1.8.5-.8 1.3-1.2 2.5-1.2 1 0 1.6.2 2 .8.5.5.7 1 .7 1.7s-.2 1.2-.7 1.7l-1.4 1-.9.5-.9.6c-.3.3-.6.7-.7 1.1h4.6v1h-5.8zm9.6-8.4c1 0 1.9.5 2.3 1.4.4.6.6 1.6.6 2.8 0 1.1-.2 2-.5 2.8-.5 1-1.3 1.6-2.4 1.6-1 0-1.8-.4-2.3-1.3a6 6 0 01-.6-3c0-.9.1-1.7.4-2.4.4-1.3 1.3-1.9 2.5-1.9zm0 7.7c.5 0 1-.3 1.3-.8.3-.4.5-1.3.5-2.7 0-1-.2-1.7-.4-2.3-.2-.6-.7-1-1.4-1-.6 0-1 .4-1.3 1a6 6 0 00-.4 2.5c0 .9 0 1.6.2 2 .3.9.8 1.3 1.5 1.3zM204 249v-.8c.7 0 1.2-.1 1.5-.3.3-.2.6-.6.7-1.3h.8v8.4h-1v-6h-2zm5.8 6c0-.7.2-1.4.5-1.9.2-.5.8-1 1.5-1.4l1.1-.7c.5-.3.9-.5 1-.7.4-.4.6-.7.6-1.2a1.6 1.6 0 00-1.6-1.6c-.8 0-1.3.3-1.5.9a3 3 0 00-.3 1.2h-1c0-.7 0-1.3.3-1.8.5-.8 1.3-1.2 2.5-1.2 1 0 1.6.2 2 .8.5.5.7 1 .7 1.7s-.2 1.2-.7 1.7a7 7 0 01-1.4 1l-.8.5-1 .6c-.3.3-.6.7-.7 1.1h4.6v1h-5.8zm6.8-3.9h3v1.1h-3v-1zm6.8-4.5c1 0 1.9.5 2.3 1.4.4.6.6 1.6.6 2.8 0 1.1-.2 2-.5 2.8-.5 1-1.3 1.6-2.4 1.6-1 0-1.8-.4-2.3-1.3a6 6 0 01-.6-3c0-.9.1-1.7.4-2.4.4-1.3 1.3-1.9 2.5-1.9zm0 7.7c.5 0 1-.3 1.3-.8.3-.4.5-1.3.5-2.7 0-1-.1-1.7-.4-2.3-.2-.6-.7-1-1.3-1-.7 0-1.1.4-1.4 1a6 6 0 00-.4 2.5c0 .9 0 1.6.2 2 .3.9.8 1.3 1.5 1.3zm4.9-1.4c0 .6.4 1 .8 1.2l1 .2c.5 0 1-.2 1.3-.6.3-.4.4-.9.4-1.3 0-.6-.1-1-.5-1.4-.3-.3-.8-.5-1.3-.5a2 2 0 00-1 .2 2 2 0 00-.6.6h-.9l.7-4.6h4.3v1H229l-.3 2.4.5-.3c.4-.2.7-.2 1.1-.2.8 0 1.4.2 2 .7.5.5.8 1.1.8 2 0 .7-.3 1.4-.8 2-.4.6-1.2 1-2.3 1a3 3 0 01-1.8-.7c-.5-.3-.8-1-.9-1.7h1.1zm5.7-1.8h3v1.1h-3v-1zm3.9 3.9c0-.7.2-1.4.4-1.9.3-.5.8-1 1.5-1.4l1.2-.7 1-.7c.3-.4.5-.7.5-1.2 0-.4-.1-.8-.4-1.1-.3-.3-.7-.5-1.2-.5-.7 0-1.2.3-1.5.9a3 3 0 00-.3 1.2h-1c0-.7.1-1.3.4-1.8.4-.8 1.2-1.2 2.4-1.2 1 0 1.7.2 2.1.8.4.5.7 1 .7 1.7s-.3 1.2-.7 1.7a7 7 0 01-1.5 1l-.8.5-1 .6-.7 1.1h4.6v1H238zm9.5-8.4c1.1 0 1.9.5 2.4 1.4.4.6.5 1.6.5 2.8 0 1.1-.1 2-.5 2.8-.5 1-1.3 1.6-2.4 1.6-1 0-1.7-.4-2.2-1.3a6 6 0 01-.6-3c0-.9 0-1.7.3-2.4.5-1.3 1.3-1.9 2.5-1.9zm0 7.7c.6 0 1-.3 1.3-.8.3-.4.5-1.3.5-2.7 0-1-.1-1.7-.3-2.3-.3-.6-.7-1-1.4-1-.6 0-1 .4-1.4 1a6 6 0 00-.4 2.5c0 .9 0 1.6.3 2 .3.9.7 1.3 1.4 1.3zm3.8.7c0-.7.2-1.4.5-1.9.2-.5.7-1 1.5-1.4l1.1-.7c.5-.3.9-.5 1-.7.4-.4.6-.7.6-1.2a1.6 1.6 0 00-1.6-1.6c-.8 0-1.3.3-1.5.9a3 3 0 00-.3 1.2h-1c0-.7 0-1.3.3-1.8.5-.8 1.3-1.2 2.5-1.2 1 0 1.6.2 2 .8.5.5.7 1 .7 1.7s-.2 1.2-.7 1.7l-1.4 1-.9.5-.9.6c-.3.3-.6.7-.7 1.1h4.6v1h-5.8zm9.6-8.4c1 0 1.9.5 2.3 1.4.4.6.6 1.6.6 2.8 0 1.1-.2 2-.5 2.8-.5 1-1.3 1.6-2.4 1.6-1 0-1.8-.4-2.3-1.3a6 6 0 01-.6-3c0-.9.1-1.7.4-2.4.4-1.3 1.3-1.9 2.5-1.9zm0 7.7c.5 0 1-.3 1.3-.8.3-.4.5-1.3.5-2.7 0-1-.2-1.7-.4-2.3-.2-.6-.7-1-1.4-1-.6 0-1 .4-1.3 1a6 6 0 00-.4 2.5c0 .9 0 1.6.2 2 .3.9.8 1.3 1.5 1.3zM340 249v-.8c.7 0 1.2-.1 1.5-.3.3-.2.6-.6.7-1.3h.8v8.4h-1v-6h-2zm5.8 6c0-.7.2-1.4.5-1.9.2-.5.8-1 1.5-1.4l1.1-.7c.5-.3.9-.5 1-.7.4-.4.6-.7.6-1.2a1.6 1.6 0 00-1.6-1.6c-.8 0-1.3.3-1.5.9a3 3 0 00-.3 1.2h-1c0-.7 0-1.3.3-1.8.5-.8 1.3-1.2 2.5-1.2 1 0 1.6.2 2 .8.5.5.7 1 .7 1.7s-.2 1.2-.7 1.7a7 7 0 01-1.4 1l-.8.5-1 .6c-.3.3-.6.7-.7 1.1h4.6v1h-5.8zm6.8-3.9h3v1.1h-3v-1zm6.8-4.5c1 0 1.9.5 2.3 1.4.4.6.6 1.6.6 2.8 0 1.1-.2 2-.5 2.8-.5 1-1.3 1.6-2.4 1.6-1 0-1.8-.4-2.3-1.3a6 6 0 01-.6-3c0-.9.1-1.7.4-2.4.4-1.3 1.3-1.9 2.5-1.9zm0 7.7c.5 0 1-.3 1.3-.8.3-.4.5-1.3.5-2.7 0-1-.1-1.7-.4-2.3-.2-.6-.7-1-1.3-1-.7 0-1.1.4-1.4 1a6 6 0 00-.4 2.5c0 .9 0 1.6.2 2 .3.9.8 1.3 1.5 1.3zm6.7-4.2c.4 0 .8-.1 1-.4.3-.2.5-.5.5-.9 0-.3-.2-.6-.4-.9-.3-.2-.6-.3-1.2-.3-.5 0-.8 0-1 .3-.3.3-.4.6-.4 1s.2.7.4.9c.3.2.7.3 1 .3zm0 4.2c.5 0 1-.2 1.3-.4.3-.3.4-.7.4-1.2s-.1-1-.4-1.2a2 2 0 00-1.3-.5c-.5 0-1 .2-1.3.5-.3.3-.4.7-.4 1.2 0 .4.1.8.4 1.1.3.3.7.5 1.3.5zm-1.5-3.8a2 2 0 01-.6-.4c-.3-.3-.5-.7-.5-1.2 0-.7.2-1.2.7-1.6.4-.5 1-.7 2-.7.7 0 1.3.2 1.8.6.5.4.7 1 .7 1.5s-.1 1-.4 1.3l-.7.5.8.6c.4.4.6.9.6 1.5 0 .7-.3 1.4-.8 1.9s-1.2.7-2 .7c-.9 0-1.6-.2-2.1-.6-.6-.5-.9-1.1-.9-2 0-.5.1-.9.4-1.2.2-.4.6-.7 1-.9zm5.4.6h3v1.1h-3v-1zm3.9 3.9c0-.7.2-1.4.4-1.9.3-.5.8-1 1.5-1.4l1.2-.7 1-.7c.3-.4.5-.7.5-1.2 0-.4-.1-.8-.4-1.1-.3-.3-.7-.5-1.2-.5-.7 0-1.2.3-1.5.9a3 3 0 00-.3 1.2h-1c0-.7.1-1.3.4-1.8.4-.8 1.2-1.2 2.4-1.2 1 0 1.7.2 2.1.8.4.5.7 1 .7 1.7s-.3 1.2-.7 1.7a7 7 0 01-1.5 1l-.8.5-1 .6c-.3.3-.6.7-.7 1.1h4.6v1H374zm9.5-8.4c1.1 0 1.9.5 2.4 1.4.4.6.5 1.6.5 2.8 0 1.1-.1 2-.5 2.8-.5 1-1.3 1.6-2.4 1.6-1 0-1.7-.4-2.2-1.3a6 6 0 01-.6-3c0-.9 0-1.7.3-2.4.5-1.3 1.3-1.9 2.5-1.9zm0 7.7c.6 0 1-.3 1.3-.8.3-.4.5-1.3.5-2.7 0-1-.1-1.7-.3-2.3-.3-.6-.7-1-1.4-1-.6 0-1 .4-1.4 1a6 6 0 00-.4 2.5c0 .9 0 1.6.3 2 .3.9.7 1.3 1.4 1.3zm3.8.7c0-.7.2-1.4.5-1.9.2-.5.7-1 1.5-1.4l1.1-.7c.5-.3.9-.5 1-.7.4-.4.6-.7.6-1.2a1.6 1.6 0 00-1.6-1.6c-.8 0-1.3.3-1.5.9a3 3 0 00-.3 1.2h-1c0-.7 0-1.3.3-1.8.5-.8 1.3-1.2 2.5-1.2 1 0 1.6.2 2 .8.5.5.7 1 .7 1.7s-.2 1.2-.7 1.7l-1.4 1-.9.5-.9.6c-.3.3-.6.7-.7 1.1h4.6v1h-5.8zm9.6-8.4c1 0 1.9.5 2.3 1.4.4.6.6 1.6.6 2.8 0 1.1-.2 2-.5 2.8-.5 1-1.3 1.6-2.4 1.6-1 0-1.8-.4-2.3-1.3a6 6 0 01-.6-3c0-.9.1-1.7.4-2.4.4-1.3 1.3-1.9 2.5-1.9zm0 7.7c.5 0 1-.3 1.3-.8.3-.4.5-1.3.5-2.7 0-1-.2-1.7-.4-2.3-.2-.6-.7-1-1.4-1-.6 0-1 .4-1.3 1a6 6 0 00-.4 2.5c0 .9 0 1.6.2 2 .3.9.8 1.3 1.5 1.3zM476.9 249v-.8c.7 0 1.3-.1 1.6-.3.3-.2.5-.6.6-1.3h.9v8.4h-1.1v-6h-2zm5.9 6c0-.7.2-1.4.4-1.9.3-.5.8-1 1.6-1.4l1-.7c.6-.3 1-.5 1.1-.7.4-.4.5-.7.5-1.2 0-.4-.1-.8-.4-1.1-.3-.3-.7-.5-1.2-.5-.7 0-1.2.3-1.5.9a3 3 0 00-.2 1.2H483c0-.7.1-1.3.4-1.8.5-.8 1.3-1.2 2.4-1.2 1 0 1.7.2 2.1.8.5.5.7 1 .7 1.7s-.3 1.2-.7 1.7l-1.5 1-.8.5-.9.6c-.4.3-.6.7-.7 1.1h4.5v1h-5.7zm6.8-3.9h3v1.1h-3v-1zm4.6-2v-.8c.8-.1 1.3-.2 1.6-.4.3-.2.6-.6.7-1.3h.8v8.4h-1v-6h-2zm5.8 0v-.8c.8-.1 1.3-.2 1.6-.4.3-.2.5-.6.7-1.3h.8v8.4H502v-6h-2zm6 2h3v1.1h-3v-1zm4 3.9c0-.7.1-1.4.4-1.9.2-.5.7-1 1.5-1.4l1.1-.7c.5-.3.9-.5 1-.7.4-.4.6-.7.6-1.2a1.6 1.6 0 00-1.6-1.6c-.8 0-1.3.3-1.6.9a3 3 0 00-.2 1.2h-1c0-.7 0-1.3.3-1.8.5-.8 1.3-1.2 2.5-1.2 1 0 1.6.2 2 .8.5.5.7 1 .7 1.7s-.2 1.2-.7 1.7a7 7 0 01-1.5 1l-.8.5-.9.6c-.3.3-.6.7-.7 1.1h4.6v1h-5.8zm9.5-8.4c1 0 1.8.5 2.3 1.4.4.6.6 1.6.6 2.8 0 1.1-.2 2-.5 2.8-.5 1-1.3 1.6-2.4 1.6-1 0-1.8-.4-2.3-1.3a6 6 0 01-.6-3c0-.9.1-1.7.4-2.4.4-1.3 1.3-1.9 2.5-1.9zm0 7.7c.5 0 1-.3 1.3-.8.3-.4.5-1.3.5-2.7 0-1-.2-1.7-.4-2.3-.2-.6-.7-1-1.4-1-.6 0-1 .4-1.3 1a6 6 0 00-.5 2.5c0 .9.1 1.6.3 2 .3.9.8 1.3 1.5 1.3zm3.8.7c0-.7.2-1.4.4-1.9.3-.5.8-1 1.6-1.4l1-.7c.6-.3 1-.5 1.1-.7.4-.4.5-.7.5-1.2 0-.4-.1-.8-.4-1.1-.3-.3-.7-.5-1.2-.5-.7 0-1.2.3-1.5.9a3 3 0 00-.2 1.2h-1.1c0-.7.1-1.3.4-1.8.5-.8 1.3-1.2 2.4-1.2 1 0 1.7.2 2.1.8.5.5.7 1 .7 1.7s-.3 1.2-.7 1.7l-1.5 1-.8.5-.9.6c-.4.3-.6.7-.7 1.1h4.5v1h-5.7zm9.5-8.4c1.1 0 2 .5 2.4 1.4.4.6.6 1.6.6 2.8 0 1.1-.2 2-.6 2.8-.4 1-1.3 1.6-2.4 1.6-1 0-1.7-.4-2.2-1.3a6 6 0 01-.6-3c0-.9 0-1.7.3-2.4.5-1.3 1.3-1.9 2.5-1.9zm0 7.7c.6 0 1-.3 1.3-.8.4-.4.5-1.3.5-2.7 0-1-.1-1.7-.3-2.3-.3-.6-.7-1-1.4-1-.6 0-1 .4-1.4 1a6 6 0 00-.4 2.5c0 .9.1 1.6.3 2 .3.9.7 1.3 1.4 1.3zM612 249v-.8c.7 0 1.2-.1 1.5-.3.3-.2.6-.6.7-1.3h.8v8.4h-1v-6h-2zm5.8 6c0-.7.2-1.4.5-1.9.2-.5.8-1 1.5-1.4l1.1-.7c.5-.3.9-.5 1-.7.4-.4.6-.7.6-1.2a1.6 1.6 0 00-1.6-1.6c-.8 0-1.3.3-1.5.9a3 3 0 00-.3 1.2h-1c0-.7 0-1.3.3-1.8.5-.8 1.3-1.2 2.5-1.2 1 0 1.6.2 2 .8.5.5.7 1 .7 1.7s-.2 1.2-.7 1.7a7 7 0 01-1.4 1l-.8.5-1 .6c-.3.3-.6.7-.7 1.1h4.6v1h-5.8zm6.8-3.9h3v1.1h-3v-1zm4.7-2v-.8c.8-.1 1.3-.2 1.6-.4.3-.2.5-.6.7-1.3h.8v8.4h-1.1v-6h-2zm9.5 3v-3.9L636 252h2.7zm0 2.9v-2h-3.7v-1l3.9-5.4h.9v5.4h1.2v1h-1.2v2h-1.1zm3.2-3.9h3v1.1h-3v-1zm3.9 3.9c0-.7.2-1.4.4-1.9.3-.5.8-1 1.5-1.4l1.2-.7 1-.7c.3-.4.5-.7.5-1.2 0-.4-.1-.8-.4-1.1-.3-.3-.7-.5-1.2-.5-.7 0-1.2.3-1.5.9a3 3 0 00-.3 1.2h-1c0-.7.1-1.3.4-1.8.4-.8 1.2-1.2 2.4-1.2 1 0 1.7.2 2.1.8.4.5.7 1 .7 1.7s-.3 1.2-.7 1.7a7 7 0 01-1.5 1l-.8.5-1 .6c-.3.3-.6.7-.7 1.1h4.6v1H646zm9.5-8.4c1.1 0 1.9.5 2.4 1.4.4.6.5 1.6.5 2.8 0 1.1-.1 2-.5 2.8-.5 1-1.3 1.6-2.4 1.6-1 0-1.7-.4-2.2-1.3a6 6 0 01-.6-3c0-.9 0-1.7.3-2.4.5-1.3 1.3-1.9 2.5-1.9zm0 7.7c.6 0 1-.3 1.3-.8.3-.4.5-1.3.5-2.7 0-1-.1-1.7-.3-2.3-.3-.6-.7-1-1.4-1-.6 0-1 .4-1.4 1a6 6 0 00-.4 2.5c0 .9 0 1.6.3 2 .3.9.7 1.3 1.4 1.3zm3.8.7c0-.7.2-1.4.5-1.9.2-.5.7-1 1.5-1.4l1.1-.7c.5-.3.9-.5 1-.7.4-.4.6-.7.6-1.2a1.6 1.6 0 00-1.6-1.6c-.8 0-1.3.3-1.5.9a3 3 0 00-.3 1.2h-1c0-.7 0-1.3.3-1.8.5-.8 1.3-1.2 2.5-1.2 1 0 1.6.2 2 .8.5.5.7 1 .7 1.7s-.2 1.2-.7 1.7l-1.4 1-.9.5-.9.6c-.3.3-.6.7-.7 1.1h4.6v1h-5.8zm9.6-8.4c1 0 1.9.5 2.3 1.4.4.6.6 1.6.6 2.8 0 1.1-.2 2-.5 2.8-.5 1-1.3 1.6-2.4 1.6-1 0-1.8-.4-2.3-1.3a6 6 0 01-.6-3c0-.9.1-1.7.4-2.4.4-1.3 1.3-1.9 2.5-1.9zm0 7.7c.5 0 1-.3 1.3-.8.3-.4.5-1.3.5-2.7 0-1-.2-1.7-.4-2.3-.2-.6-.7-1-1.4-1-.6 0-1 .4-1.3 1a6 6 0 00-.4 2.5c0 .9 0 1.6.2 2 .3.9.8 1.3 1.5 1.3zM748 249v-.8c.7 0 1.2-.1 1.5-.3.3-.2.6-.6.7-1.3h.8v8.4h-1v-6h-2zm5.8 6c0-.7.2-1.4.5-1.9.2-.5.8-1 1.5-1.4l1.1-.7c.5-.3.9-.5 1-.7.4-.4.6-.7.6-1.2a1.6 1.6 0 00-1.6-1.6c-.8 0-1.3.3-1.5.9a3 3 0 00-.3 1.2h-1c0-.7 0-1.3.3-1.8.5-.8 1.3-1.2 2.5-1.2 1 0 1.6.2 2 .8.5.5.7 1 .7 1.7s-.2 1.2-.7 1.7a7 7 0 01-1.4 1l-.8.5-1 .6c-.3.3-.6.7-.7 1.1h4.6v1h-5.8zm6.8-3.9h3v1.1h-3v-1zm4.7-2v-.8c.8-.1 1.3-.2 1.6-.4.3-.2.5-.6.7-1.3h.8v8.4h-1.1v-6h-2zm11.8-2.3v.9c-.3.2-.6.7-1 1.3a14 14 0 00-2 4.1l-.5 1.9h-1.1a14.4 14.4 0 013.4-7.2h-4.6v-1h5.8zm.9 4.3h3v1.1h-3v-1zm3.9 3.9c0-.7.2-1.4.4-1.9.3-.5.8-1 1.5-1.4l1.2-.7 1-.7c.3-.4.5-.7.5-1.2 0-.4-.1-.8-.4-1.1-.3-.3-.7-.5-1.2-.5-.7 0-1.2.3-1.5.9a3 3 0 00-.3 1.2h-1c0-.7.1-1.3.4-1.8.4-.8 1.2-1.2 2.4-1.2 1 0 1.7.2 2.1.8.4.5.7 1 .7 1.7s-.3 1.2-.7 1.7a7 7 0 01-1.5 1l-.8.5-1 .6c-.3.3-.6.7-.7 1.1h4.6v1H782zm9.5-8.4c1.1 0 1.9.5 2.4 1.4.4.6.5 1.6.5 2.8 0 1.1-.1 2-.5 2.8-.5 1-1.3 1.6-2.4 1.6-1 0-1.7-.4-2.2-1.3a6 6 0 01-.6-3c0-.9 0-1.7.3-2.4.5-1.3 1.3-1.9 2.5-1.9zm0 7.7c.6 0 1-.3 1.3-.8.3-.4.5-1.3.5-2.7 0-1-.1-1.7-.3-2.3-.3-.6-.7-1-1.4-1-.6 0-1 .4-1.4 1a6 6 0 00-.4 2.5c0 .9 0 1.6.3 2 .3.9.7 1.3 1.4 1.3zm3.8.7c0-.7.2-1.4.5-1.9.2-.5.7-1 1.5-1.4l1.1-.7c.5-.3.9-.5 1-.7.4-.4.6-.7.6-1.2a1.6 1.6 0 00-1.6-1.6c-.8 0-1.3.3-1.5.9a3 3 0 00-.3 1.2h-1c0-.7 0-1.3.3-1.8.5-.8 1.3-1.2 2.5-1.2 1 0 1.6.2 2 .8.5.5.7 1 .7 1.7s-.2 1.2-.7 1.7l-1.4 1-.9.5-.9.6c-.3.3-.6.7-.7 1.1h4.6v1h-5.8zm9.6-8.4c1 0 1.9.5 2.3 1.4.4.6.6 1.6.6 2.8 0 1.1-.2 2-.5 2.8-.5 1-1.3 1.6-2.4 1.6-1 0-1.8-.4-2.3-1.3a6 6 0 01-.6-3c0-.9.1-1.7.4-2.4.4-1.3 1.3-1.9 2.5-1.9zm0 7.7c.5 0 1-.3 1.3-.8.3-.4.5-1.3.5-2.7 0-1-.2-1.7-.4-2.3-.2-.6-.7-1-1.4-1-.6 0-1 .4-1.3 1a6 6 0 00-.4 2.5c0 .9 0 1.6.2 2 .3.9.8 1.3 1.5 1.3zM884 249v-.8c.7 0 1.2-.1 1.5-.3.3-.2.6-.6.7-1.3h.8v8.4h-1v-6h-2zm5.8 6c0-.7.2-1.4.5-1.9.2-.5.8-1 1.5-1.4l1.1-.7c.5-.3.9-.5 1-.7.4-.4.6-.7.6-1.2a1.6 1.6 0 00-1.6-1.6c-.8 0-1.3.3-1.5.9a3 3 0 00-.3 1.2h-1c0-.7 0-1.3.3-1.8.5-.8 1.3-1.2 2.5-1.2 1 0 1.6.2 2 .8.5.5.7 1 .7 1.7s-.2 1.2-.7 1.7a7 7 0 01-1.4 1l-.8.5-1 .6c-.3.3-.6.7-.7 1.1h4.6v1h-5.8zm6.8-3.9h3v1.1h-3v-1zm4 3.9c0-.7.1-1.4.4-1.9.2-.5.7-1 1.5-1.4l1.1-.7c.5-.3.9-.5 1-.7.4-.4.5-.7.5-1.2 0-.4-.1-.8-.4-1.1-.3-.3-.7-.5-1.2-.5-.7 0-1.2.3-1.5.9a3 3 0 00-.2 1.2h-1c0-.7 0-1.3.3-1.8.5-.8 1.3-1.2 2.4-1.2 1 0 1.7.2 2.1.8.5.5.7 1 .7 1.7s-.2 1.2-.7 1.7l-1.5 1-.8.5-.9.6c-.4.3-.6.7-.7 1.1h4.6v1h-5.8zm9.5-8.4c1 0 1.8.5 2.3 1.4.4.6.6 1.6.6 2.8 0 1.1-.2 2-.5 2.8-.5 1-1.3 1.6-2.4 1.6-1 0-1.8-.4-2.3-1.3a6 6 0 01-.6-3c0-.9.1-1.7.4-2.4.4-1.3 1.3-1.9 2.5-1.9zm0 7.7c.5 0 1-.3 1.3-.8.3-.4.4-1.3.4-2.7 0-1 0-1.7-.3-2.3-.2-.6-.7-1-1.4-1-.6 0-1 .4-1.3 1a6 6 0 00-.5 2.5c0 .9.1 1.6.3 2 .3.9.8 1.3 1.5 1.3zm3.9-3.2h3v1.1h-3v-1zm3.9 3.9c0-.7.2-1.4.4-1.9.3-.5.8-1 1.5-1.4l1.2-.7 1-.7c.3-.4.5-.7.5-1.2 0-.4-.1-.8-.4-1.1-.3-.3-.7-.5-1.2-.5-.7 0-1.2.3-1.5.9a3 3 0 00-.3 1.2h-1c0-.7.1-1.3.4-1.8.4-.8 1.2-1.2 2.4-1.2 1 0 1.7.2 2.1.8.4.5.7 1 .7 1.7s-.3 1.2-.7 1.7a7 7 0 01-1.5 1l-.8.5-1 .6c-.3.3-.6.7-.7 1.1h4.6v1H918zm9.5-8.4c1.1 0 1.9.5 2.4 1.4.4.6.5 1.6.5 2.8 0 1.1-.1 2-.5 2.8-.5 1-1.3 1.6-2.4 1.6-1 0-1.7-.4-2.2-1.3a6 6 0 01-.6-3c0-.9 0-1.7.3-2.4.5-1.3 1.3-1.9 2.5-1.9zm0 7.7c.6 0 1-.3 1.3-.8.3-.4.5-1.3.5-2.7 0-1-.1-1.7-.3-2.3-.3-.6-.7-1-1.4-1-.6 0-1 .4-1.4 1a6 6 0 00-.4 2.5c0 .9 0 1.6.3 2 .3.9.7 1.3 1.4 1.3zm3.8.7c0-.7.2-1.4.5-1.9.2-.5.7-1 1.5-1.4l1.1-.7c.5-.3.9-.5 1-.7.4-.4.6-.7.6-1.2a1.6 1.6 0 00-1.6-1.6c-.8 0-1.3.3-1.5.9a3 3 0 00-.3 1.2h-1c0-.7 0-1.3.3-1.8.5-.8 1.3-1.2 2.5-1.2 1 0 1.6.2 2 .8.5.5.7 1 .7 1.7s-.2 1.2-.7 1.7l-1.4 1-.9.5-.9.6c-.3.3-.6.7-.7 1.1h4.6v1h-5.8zm9.6-8.4c1 0 1.9.5 2.3 1.4.4.6.6 1.6.6 2.8 0 1.1-.2 2-.5 2.8-.5 1-1.3 1.6-2.4 1.6-1 0-1.8-.4-2.3-1.3a6 6 0 01-.6-3c0-.9.1-1.7.4-2.4.4-1.3 1.3-1.9 2.5-1.9zm0 7.7c.5 0 1-.3 1.3-.8.3-.4.5-1.3.5-2.7 0-1-.2-1.7-.4-2.3-.2-.6-.7-1-1.4-1-.6 0-1 .4-1.3 1a6 6 0 00-.4 2.5c0 .9 0 1.6.2 2 .3.9.8 1.3 1.5 1.3zM1020 249v-.8c.7 0 1.2-.1 1.5-.3.3-.2.5-.6.7-1.3h.8v8.4h-1v-6h-2zm5.8 6c0-.7.2-1.4.5-1.9s.8-1 1.5-1.4l1.1-.7a5 5 0 001-.7c.4-.4.6-.7.6-1.2 0-.4-.2-.8-.5-1.1-.3-.3-.7-.5-1.1-.5-.8 0-1.3.3-1.5.9-.2.3-.3.7-.3 1.2h-1c0-.7 0-1.3.4-1.8.4-.8 1.2-1.2 2.4-1.2 1 0 1.6.2 2 .8.5.5.7 1 .7 1.7s-.2 1.2-.7 1.7c-.2.3-.7.6-1.4 1l-.8.5a5 5 0 00-1 .6c-.3.3-.6.7-.7 1.1h4.6v1h-5.8zm6.8-3.9h3v1.1h-3v-1zm4 3.9c0-.7.1-1.4.4-1.9.2-.5.7-1 1.5-1.4l1.1-.7c.5-.3.9-.5 1-.7.4-.4.6-.7.6-1.2 0-.4-.2-.8-.5-1.1-.3-.3-.7-.5-1.2-.5-.7 0-1.2.3-1.5.9a3 3 0 00-.2 1.2h-1c0-.7 0-1.3.3-1.8.5-.8 1.3-1.2 2.4-1.2 1 0 1.7.2 2.2.8.4.5.6 1 .6 1.7s-.2 1.2-.7 1.7l-1.5 1-.8.5-.9.6c-.4.3-.6.7-.7 1.1h4.6v1h-5.8zm9.3.2c-1 0-1.7-.2-2.1-.8a3 3 0 01-.7-2h1.1c0 .6.2 1 .3 1.2.3.4.8.7 1.5.7.5 0 1-.2 1.3-.5.4-.3.5-.7.5-1.1 0-.6-.1-1-.5-1.2-.3-.3-.8-.4-1.5-.4a3.7 3.7 0 00-.4 0v-1a5.5 5.5 0 00.5.1c.4 0 .7 0 1-.2.4-.2.6-.6.6-1.1 0-.5 0-.8-.4-1-.3-.2-.6-.3-1-.3-.7 0-1.2.2-1.5.7l-.2 1h-1c0-.6 0-1 .3-1.5.4-.8 1.2-1.2 2.3-1.2a3 3 0 012 .6c.4.4.7.9.7 1.6 0 .5-.2 1-.5 1.3-.1.2-.4.3-.6.4.4.2.8.4 1 .8.3.3.4.7.4 1.2 0 .8-.3 1.5-.8 2s-1.3.7-2.3.7zm4.1-4h3v1h-3v-1zm3.9 3.8c0-.7.2-1.4.4-1.9.3-.5.8-1 1.5-1.4l1.2-.7 1-.7c.3-.4.5-.7.5-1.2 0-.4-.1-.8-.4-1.1-.3-.3-.7-.5-1.2-.5-.7 0-1.2.3-1.5.9a3 3 0 00-.3 1.2h-1c0-.7.1-1.3.4-1.8.4-.8 1.2-1.2 2.4-1.2 1 0 1.7.2 2.1.8.5.5.7 1 .7 1.7s-.3 1.2-.7 1.7l-1.5 1-.8.5-1 .6-.7 1.1h4.6v1h-5.7zm9.5-8.4c1.1 0 1.9.5 2.4 1.4.4.6.5 1.6.5 2.8 0 1.1-.1 2-.5 2.8-.5 1-1.3 1.6-2.4 1.6-1 0-1.7-.4-2.2-1.3a6 6 0 01-.7-3c0-.9.2-1.7.4-2.4.5-1.3 1.3-1.9 2.5-1.9zm0 7.7c.6 0 1-.3 1.3-.8.3-.4.5-1.3.5-2.7 0-1-.1-1.7-.4-2.3-.2-.6-.6-1-1.3-1-.6 0-1 .4-1.4 1-.3.5-.4 1.4-.4 2.5 0 .9 0 1.6.3 2 .3.9.7 1.3 1.4 1.3zm3.8.7c0-.7.2-1.4.5-1.9.2-.5.8-1 1.5-1.4l1.1-.7a5 5 0 001-.7c.4-.4.6-.7.6-1.2 0-.4-.2-.8-.5-1.1-.3-.3-.7-.5-1.2-.5-.7 0-1.2.3-1.5.9a3 3 0 00-.2 1.2h-1c0-.7 0-1.3.3-1.8.5-.8 1.3-1.2 2.5-1.2 1 0 1.6.2 2 .8.5.5.7 1 .7 1.7s-.2 1.2-.7 1.7c-.3.3-.7.6-1.5 1l-.8.5-.8.6c-.4.3-.7.7-.8 1.1h4.6v1h-5.8zm9.6-8.4c1 0 1.9.5 2.3 1.4.4.6.6 1.6.6 2.8 0 1.1-.2 2-.5 2.8-.5 1-1.3 1.6-2.4 1.6-1 0-1.8-.4-2.3-1.3a6 6 0 01-.6-3c0-.9.1-1.7.4-2.4.4-1.3 1.3-1.9 2.5-1.9zm0 7.7c.5 0 1-.3 1.3-.8.3-.4.5-1.3.5-2.7 0-1-.1-1.7-.4-2.3-.2-.6-.7-1-1.4-1-.6 0-1 .4-1.3 1-.3.5-.5 1.4-.5 2.5 0 .9.1 1.6.3 2 .3.9.8 1.3 1.5 1.3zM17.6 230.6c1 0 1.8.5 2.3 1.4.4.6.6 1.6.6 2.8 0 1.1-.2 2-.5 2.8-.5 1-1.3 1.6-2.4 1.6-1 0-1.8-.4-2.3-1.3a6 6 0 01-.6-3c0-.9.1-1.7.4-2.4.4-1.3 1.3-1.9 2.5-1.9zm0 7.7c.5 0 1-.3 1.3-.8.3-.4.4-1.3.4-2.7 0-1 0-1.7-.3-2.3-.2-.6-.7-1-1.4-1-.6 0-1 .4-1.3 1a6 6 0 00-.5 2.5c0 .9.1 1.6.3 2 .3.9.8 1.3 1.5 1.3zM8 193c0-.7.2-1.4.5-1.9.2-.5.7-1 1.5-1.4l1.1-.7c.5-.3.9-.5 1-.7.4-.4.6-.7.6-1.2a1.6 1.6 0 00-1.6-1.6c-.8 0-1.3.3-1.6.9a3 3 0 00-.2 1.2h-1c0-.7 0-1.3.3-1.8.5-.8 1.3-1.2 2.4-1.2 1 0 1.7.2 2.1.8.5.5.7 1 .7 1.7s-.2 1.2-.7 1.7l-1.5 1-.8.5-.9.6c-.4.3-.6.7-.7 1.1h4.6v1H8zm9.6-8.4c1 0 1.8.5 2.3 1.4.4.6.6 1.6.6 2.8 0 1.1-.2 2-.5 2.8-.5 1-1.3 1.6-2.4 1.6-1 0-1.8-.4-2.3-1.3a6 6 0 01-.6-3c0-.9.1-1.7.4-2.4.4-1.3 1.3-1.9 2.5-1.9zm0 7.7c.5 0 1-.3 1.3-.8.3-.4.4-1.3.4-2.7 0-1 0-1.7-.3-2.3-.2-.6-.7-1-1.4-1-.6 0-1 .4-1.3 1a6 6 0 00-.5 2.5c0 .9.1 1.6.3 2 .3.9.8 1.3 1.5 1.3zM11.6 144v-3.8L9 144h2.7zm0 3v-2H8v-1l3.9-5.4h.9v5.4h1.2v1h-1.2v2h-1zm6-8.4c1 0 1.8.5 2.3 1.4.4.6.6 1.6.6 2.8 0 1.1-.2 2-.5 2.8-.5 1-1.3 1.6-2.4 1.6-1 0-1.8-.4-2.3-1.3a6 6 0 01-.6-3c0-.9.1-1.7.4-2.4.4-1.3 1.3-1.9 2.5-1.9zm0 7.7c.5 0 1-.3 1.3-.8.3-.4.4-1.3.4-2.7 0-1 0-1.7-.3-2.3-.2-.6-.7-1-1.4-1-.6 0-1 .4-1.3 1a6 6 0 00-.5 2.5c0 .9.1 1.6.3 2 .3.9.8 1.3 1.5 1.3zM11.2 92.6c.9 0 1.5.2 2 .7.3.5.5 1 .5 1.5h-1a2 2 0 00-.4-.8c-.2-.3-.6-.5-1.1-.5-.6 0-1 .3-1.4.8-.4.6-.6 1.3-.6 2.4a2.3 2.3 0 012-1c.7 0 1.3.2 1.9.6.5.5.7 1.1.7 2a3 3 0 01-.7 2 2.7 2.7 0 01-4.2 0c-.5-.6-.8-1.6-.8-3 0-1 .1-2 .4-2.6.5-1.4 1.4-2.1 2.7-2.1zm-.1 7.7c.5 0 1-.2 1.2-.6.3-.4.4-.8.4-1.3 0-.4 0-.8-.3-1.2-.3-.4-.7-.6-1.4-.6-.4 0-.8.1-1.2.4-.3.3-.5.8-.5 1.4 0 .5.2 1 .5 1.3.3.4.7.6 1.3.6zm6.5-7.7c1 0 1.8.5 2.3 1.4.4.6.6 1.6.6 2.8 0 1.1-.2 2-.5 2.8-.5 1-1.3 1.6-2.4 1.6-1 0-1.8-.4-2.3-1.3a6 6 0 01-.6-3c0-.9.1-1.7.4-2.4.4-1.3 1.3-1.9 2.5-1.9zm0 7.7c.5 0 1-.3 1.3-.8.3-.4.4-1.3.4-2.7 0-1 0-1.7-.3-2.3-.2-.6-.7-1-1.4-1-.6 0-1 .4-1.3 1a6 6 0 00-.5 2.5c0 .9.1 1.6.3 2 .3.9.8 1.3 1.5 1.3zM10.9 50.1c.5 0 .8-.1 1-.4.4-.2.5-.5.5-.9 0-.3-.1-.6-.4-.9-.2-.2-.6-.3-1.1-.3-.5 0-1 0-1.1.3-.3.3-.4.6-.4 1s.2.7.5.9c.3.2.6.3 1 .3zm0 4.2c.6 0 1-.2 1.3-.4.3-.3.5-.7.5-1.2s-.2-1-.5-1.2a2 2 0 00-1.3-.5c-.5 0-1 .2-1.2.5-.4.3-.5.7-.5 1.2 0 .4.1.8.4 1.1.3.3.8.5 1.4.5zm-1.4-3.8c-.3-.1-.6-.2-.7-.4-.3-.3-.5-.7-.5-1.2 0-.7.2-1.2.7-1.6.5-.5 1.1-.7 2-.7.7 0 1.4.2 1.8.6.5.4.7 1 .7 1.5s-.1 1-.4 1.3c-.1.2-.4.3-.7.5l.8.6c.4.4.6.9.6 1.5 0 .7-.3 1.4-.8 1.9-.4.5-1.1.7-2 .7-.9 0-1.6-.2-2.1-.6-.6-.5-.9-1.1-.9-2 0-.5.1-.9.4-1.2.2-.4.6-.7 1-.9zm8-3.9c1.2 0 2 .5 2.4 1.4.4.6.6 1.6.6 2.8 0 1.1-.2 2-.5 2.8-.5 1-1.3 1.6-2.4 1.6-1 0-1.8-.4-2.3-1.3a6 6 0 01-.6-3c0-.9.1-1.7.4-2.4.4-1.3 1.3-1.9 2.5-1.9zm0 7.7c.6 0 1-.3 1.4-.8.3-.4.4-1.3.4-2.7 0-1 0-1.7-.3-2.3-.2-.6-.7-1-1.4-1-.6 0-1 .4-1.3 1a6 6 0 00-.5 2.5c0 .9.1 1.6.3 2 .3.9.8 1.3 1.5 1.3zM2.1 4v-.8c.8 0 1.3-.1 1.6-.3.3-.2.5-.6.7-1.3h.8V10H4.1V4H2zM11 1.7c1 0 1.9.5 2.3 1.4.4.6.6 1.6.6 2.8 0 1.1-.2 2-.5 2.8-.5 1-1.3 1.6-2.4 1.6-1 0-1.8-.4-2.3-1.3A6 6 0 018 6c0-.9.1-1.7.4-2.4.4-1.3 1.3-1.9 2.5-1.9zm0 7.7c.5 0 1-.3 1.3-.8.3-.4.5-1.3.5-2.7 0-1-.1-1.7-.4-2.3-.2-.6-.7-1-1.3-1-.7 0-1.1.4-1.4 1A6 6 0 009.2 6c0 .9 0 1.6.2 2 .3.9.8 1.3 1.5 1.3zm6.7-7.7c1 0 1.8.5 2.3 1.4.4.6.6 1.6.6 2.8 0 1.1-.2 2-.5 2.8-.5 1-1.3 1.6-2.4 1.6-1 0-1.8-.4-2.3-1.3a6 6 0 01-.6-3c0-.9.1-1.7.4-2.4.4-1.3 1.3-1.9 2.5-1.9zm0 7.7c.5 0 1-.3 1.3-.8.3-.4.4-1.3.4-2.7 0-1 0-1.7-.3-2.3-.2-.6-.7-1-1.4-1-.6 0-1 .4-1.3 1a6 6 0 00-.5 2.5c0 .9.1 1.6.3 2 .3.9.8 1.3 1.5 1.3z" fill="#A3ACB9"/>
  <path d="M31 6v229M98 6v229M166 6v229M234 6v229M302 6v229M370 6v229M438 6v229M506 6v229M574 6v229M642 6v229M710 6v229M778 6v229M846 6v229M914 6v229M982 6v229M1050 6v229M1083 6v229M31 235h1052M31 189h1052M31 143h1052M31 97h1052M31 51h1052M31 6h1052" stroke="#F7F9FB"/>
  <path d="M31 216s16-7 33-7 17-7 34-7 17-9 34-9 17-4 34-4 17-9 34-9 17-5 34-5 17-7 34-7 17-2 34-2 17-9 34-9 17-5 34-5 17-9 34-9 17-2 34-2 17-7 34-7 17-5 34-5 17-4 34-4 17-5 33-5c17 0 17-9 34-9s17-5 34-5 17-7 34-7 17-4 34-4 17-9 34-9 17-5 34-5 17-2 34-2 17-7 34-7 17-9 34-9 17-5 34-5 17-4 34-4 17-5 34-5 17-5 34-5 17-6 34-6 34-7 34-7" stroke="#3C46A0" stroke-width="2"/>
  <circle cx="31" cy="216" r="5" fill="#3C46A0"/>
  <circle cx="64" cy="209" r="5" fill="#3C46A0"/>
  <circle cx="98" cy="202" r="5" fill="#3C46A0"/>
  <circle cx="132" cy="193" r="5" fill="#3C46A0"/>
  <circle cx="166" cy="189" r="5" fill="#3C46A0"/>
  <circle cx="200" cy="180" r="5" fill="#3C46A0"/>
  <circle cx="234" cy="175" r="5" fill="#3C46A0"/>
  <circle cx="268" cy="168" r="5" fill="#3C46A0"/>
  <circle cx="302" cy="166" r="5" fill="#3C46A0"/>
  <circle cx="336" cy="157" r="5" fill="#3C46A0"/>
  <circle cx="370" cy="152" r="5" fill="#3C46A0"/>
  <circle cx="404" cy="143" r="5" fill="#3C46A0"/>
  <circle cx="438" cy="141" r="5" fill="#3C46A0"/>
  <circle cx="472" cy="134" r="5" fill="#3C46A0"/>
  <circle cx="506" cy="129" r="5" fill="#3C46A0"/>
  <circle cx="540" cy="125" r="5" fill="#3C46A0"/>
  <circle cx="573" cy="120" r="5" fill="#3C46A0"/>
  <circle cx="607" cy="111" r="5" fill="#3C46A0"/>
  <circle cx="641" cy="106" r="5" fill="#3C46A0"/>
  <circle cx="675" cy="99" r="5" fill="#3C46A0"/>
  <circle cx="709" cy="95" r="5" fill="#3C46A0"/>
  <circle cx="743" cy="86" r="5" fill="#3C46A0"/>
  <circle cx="777" cy="81" r="5" fill="#3C46A0"/>
  <circle cx="811" cy="79" r="5" fill="#3C46A0"/>
  <circle cx="845" cy="72" r="5" fill="#3C46A0"/>
  <circle cx="879" cy="63" r="5" fill="#3C46A0"/>
  <circle cx="913" cy="58" r="5" fill="#3C46A0"/>
  <circle cx="947" cy="54" r="5" fill="#3C46A0"/>
  <circle cx="981" cy="49" r="5" fill="#3C46A0"/>
  <circle cx="1015" cy="44" r="5" fill="#3C46A0"/>
  <circle cx="1049" cy="38" r="5" fill="#3C46A0"/>
  <circle cx="1083" cy="31" r="5" fill="#3C46A0"/>
</svg>
