<svg width="128" height="32" fill="none" xmlns="http://www.w3.org/2000/svg">
  <path d="M16 4v0A12 12 0 114 16v0A12 12 0 0116 4M19.4 21l-4 7M6 9.5l4 6.9" stroke="#323232" stroke-width="2" stroke-linecap="round" stroke-linejoin="round"/>
  <path d="M11.3 21.4a2.7 2.7 0 100-5.3 2.7 2.7 0 000 5.3zM20.7 21.4a2.7 2.7 0 100-5.3 2.7 2.7 0 000 5.3zM16 13.2A2.7 2.7 0 1016 8a2.7 2.7 0 000 5.3zM18.7 10.5h8" stroke="#323232" stroke-width="2" stroke-linecap="round" stroke-linejoin="round"/>
  <path d="M47.1 18.7h2.5c-.1 1.1-.5 2-1.3 2.6-.7.6-1.7.9-3 .9s-2.4-.5-3.3-1.4a5 5 0 01-1.3-3.6 5 5 0 011.3-3.5c.9-1 2-1.4 3.3-1.4 1.3 0 2.3.3 3 .9.8.6 1.2 1.5 1.3 2.6H47c-.2-1-.7-1.5-1.7-1.5h-.2c-.4 0-.8.1-1.1.4l-.7 1-.2 1.6c0 .5 0 1 .2 1.4.2.5.4.8.7 1 .3.4.7.5 1.1.5h.2c1 0 1.5-.5 1.7-1.5zm12 2c-.8 1-2 1.5-3.4 1.5s-2.5-.5-3.4-1.4a5 5 0 01-1.3-3.6 5 5 0 011.3-3.5c.9-1 2-1.4 3.4-1.4s2.6.5 3.4 1.4a5 5 0 011.4 3.6 5 5 0 01-1.4 3.5zm-3.3-.5c.7 0 1.2-.3 1.6-.8.4-.5.6-1.2.6-2.1 0-1-.2-1.7-.6-2.2-.4-.5-1-.8-1.6-.8h-.2c-.6 0-1.2.3-1.6.8-.3.5-.5 1.2-.5 2.2 0 .9.2 1.6.5 2.1.4.5 1 .8 1.6.8h.2zm9.1-3.5V22h-2.4v-9.5h2.4v1.4c.3-.5.7-.9 1.2-1.2.5-.2 1.1-.4 1.7-.4 1.1 0 2 .3 2.5 1s.8 1.5.8 2.6V22h-2.5v-5.8c0-.6 0-1-.4-1.4-.2-.3-.6-.5-1-.5H67c-.6 0-1 .2-1.5.7-.4.5-.6 1-.6 1.7zM79.2 22h-3.5l-3.3-9.5H75l2.5 7.7 2.5-7.7h2.5L79.2 22zm12.2-1.2c-.9 1-2 1.4-3.4 1.4s-2.6-.5-3.5-1.4a5 5 0 01-1.3-3.6 5 5 0 011.3-3.5c1-1 2-1.4 3.5-1.4 1.4 0 2.5.5 3.4 1.4a5 5 0 011.3 3.6 5 5 0 01-1.3 3.5zm-3.4-.6c.7 0 1.2-.3 1.6-.8.4-.5.6-1.2.6-2.1 0-1-.2-1.7-.6-2.2-.4-.5-.9-.8-1.6-.8H88c-.7 0-1.2.3-1.6.8-.4.5-.6 1.2-.6 2.2 0 .9.2 1.6.6 2.1.4.5 1 .8 1.6.8h.1zm6.7 1.8V8.7h2.5V22h-2.5zm11-4.2v-5.3h2.4V22h-2.5v-1.4a3.3 3.3 0 01-2.7 1.6c-1.1 0-2-.3-2.5-1a4 4 0 01-.8-2.6v-6.1h2.5v5.8c0 .6.1 1 .4 1.4.2.3.6.5 1 .5h.2c.5 0 1-.2 1.4-.7.3-.5.5-1 .5-1.7zm10.8 2.1V22h-2.4c-.8 0-1.4-.2-1.8-.6-.4-.5-.6-1-.6-1.9v-5h-2v-2h2v-3h2.4v3h2.2v2H114v4.4c0 .4 0 .7.2.8.2.1.4.2.9.2h1.3zm10-1a4 4 0 01-1.4 2.4c-.7.6-1.7.9-2.8.9a4.5 4.5 0 01-3.2-1.3c-.4-.4-.7-1-1-1.6-.2-.6-.3-1.3-.3-2 0-1.5.4-2.7 1.2-3.6.8-1 1.9-1.4 3.3-1.4a4 4 0 013.2 1.4c.7.9 1.1 2 1.1 3.4v1h-6.4c0 .6.2 1 .7 1.5.4.4.9.6 1.4.6h.1c.5 0 .9-.1 1.2-.3l.5-1h2.5zm-4.4-4.6a2 2 0 00-1.3.5c-.4.3-.6.8-.6 1.3h4c0-.5-.2-1-.6-1.3a2 2 0 00-1.4-.5z" fill="#272729"/>
</svg>
