<svg width="32" height="32" viewBox="0 0 32 32" fill="none" xmlns="http://www.w3.org/2000/svg">
<path d="M19.4 21.044L15.4227 28M5.90666 9.52L9.91866 16.4M18.6667 10.5467C18.6667 12.0194 17.4728 13.2133 16 13.2133C14.5272 13.2133 13.3333 12.0194 13.3333 10.5467C13.3333 9.07391 14.5272 7.88 16 7.88C17.4728 7.88 18.6667 9.07391 18.6667 10.5467ZM18.6667 10.5467H26.6933M16 4C22.6274 4 28 9.37259 28 16C28 22.6274 22.6274 28 16 28C9.37259 28 4 22.6274 4 16C4 9.37259 9.37259 4 16 4ZM13.9467 18.7333C13.9467 20.2061 12.7527 21.4 11.28 21.4C9.80723 21.4 8.61332 20.2061 8.61332 18.7333C8.61332 17.2606 9.80723 16.0667 11.28 16.0667C12.7527 16.0667 13.9467 17.2606 13.9467 18.7333ZM23.392 18.7333C23.392 20.2061 22.1981 21.4 20.7253 21.4C19.2526 21.4 18.0587 20.2061 18.0587 18.7333C18.0587 17.2606 19.2526 16.0667 20.7253 16.0667C22.1981 16.0667 23.392 17.2606 23.392 18.7333Z" stroke="white" stroke-width="2" stroke-linecap="round" stroke-linejoin="round"/>
</svg>
