<svg width="448" height="275" viewBox="0 0 448 275" fill="none" xmlns="http://www.w3.org/2000/svg">
<rect x="299" y="204.932" width="146.049" height="68.0954" fill="#FF0000" fill-opacity="0.05"/>
<rect x="299.5" y="205.432" width="145.049" height="67.0954" stroke="#FF0000" stroke-opacity="0.8"/>
<path d="M355 2C355 0.89543 355.895 0 357 0H414C415.105 0 416 0.895431 416 2V16C416 17.1046 415.105 18 414 18H357C355.895 18 355 17.1046 355 16V2Z" fill="black"/>
<path d="M359.968 6.136V5.08H364.632V6.136H362.916V11.944H364.632V13H359.968V11.944H361.684V6.136H359.968ZM366.487 5.08H368.918C369.695 5.08 370.304 5.26333 370.744 5.63C371.184 5.99667 371.404 6.50267 371.404 7.148C371.404 7.62467 371.268 8.01333 370.997 8.314C370.733 8.61467 370.373 8.78333 369.919 8.82V8.897C370.425 8.93367 370.821 9.11333 371.107 9.436C371.4 9.75867 371.547 10.195 371.547 10.745C371.547 11.4417 371.319 11.9917 370.865 12.395C370.417 12.7983 369.801 13 369.017 13H366.487V5.08ZM367.675 9.436V11.955H368.929C369.361 11.955 369.699 11.845 369.941 11.625C370.183 11.3977 370.304 11.086 370.304 10.69C370.304 10.294 370.183 9.986 369.941 9.766C369.699 9.546 369.361 9.436 368.929 9.436H367.675ZM368.907 8.424C369.288 8.424 369.592 8.32133 369.82 8.116C370.047 7.90333 370.161 7.621 370.161 7.269C370.161 6.917 370.047 6.63833 369.82 6.433C369.6 6.22033 369.295 6.114 368.907 6.114H367.675V8.424H368.907ZM374.347 5.08L375.227 7.665C375.264 7.775 375.297 7.896 375.326 8.028C375.363 8.15267 375.389 8.27 375.403 8.38C375.433 8.512 375.455 8.64033 375.469 8.765H375.557C375.579 8.64033 375.605 8.512 375.634 8.38C375.656 8.27 375.682 8.15267 375.711 8.028C375.741 7.896 375.774 7.775 375.81 7.665L376.624 5.08H378.098V13H377.009V7.676C377.009 7.478 377.017 7.28 377.031 7.082C377.046 6.884 377.061 6.70067 377.075 6.532C377.09 6.34133 377.108 6.158 377.13 5.982H377.009C376.965 6.15067 376.921 6.323 376.877 6.499C376.841 6.653 376.797 6.82533 376.745 7.016C376.694 7.19933 376.639 7.379 376.58 7.555L375.975 9.502H375.029L374.402 7.555C374.344 7.357 374.285 7.16633 374.226 6.983C374.175 6.79233 374.127 6.62367 374.083 6.477C374.039 6.301 373.999 6.136 373.962 5.982H373.863C373.885 6.158 373.904 6.34133 373.918 6.532C373.933 6.70067 373.944 6.884 373.951 7.082C373.966 7.28 373.973 7.478 373.973 7.676V13H372.895V5.08H374.347ZM388.738 13.11C388.356 13.11 388.008 13.055 387.693 12.945C387.385 12.8277 387.121 12.6663 386.901 12.461C386.681 12.2483 386.508 11.9953 386.384 11.702C386.266 11.4013 386.208 11.0713 386.208 10.712V7.368C386.208 7.00133 386.266 6.67133 386.384 6.378C386.508 6.08467 386.681 5.83533 386.901 5.63C387.121 5.41733 387.385 5.256 387.693 5.146C388.008 5.02867 388.36 4.97 388.749 4.97C389.482 4.97 390.072 5.17167 390.52 5.575C390.967 5.97833 391.22 6.52833 391.279 7.225H390.069C390.032 6.851 389.896 6.56133 389.662 6.356C389.434 6.15067 389.13 6.048 388.749 6.048C388.338 6.048 388.012 6.16533 387.77 6.4C387.535 6.63467 387.418 6.95733 387.418 7.368V10.712C387.418 11.1227 387.531 11.4453 387.759 11.68C387.993 11.9147 388.32 12.032 388.738 12.032C389.126 12.032 389.434 11.9293 389.662 11.724C389.896 11.5113 390.032 11.2217 390.069 10.855H391.279C391.249 11.1997 391.169 11.5113 391.037 11.79C390.912 12.0687 390.74 12.307 390.52 12.505C390.3 12.6957 390.039 12.846 389.739 12.956C389.438 13.0587 389.104 13.11 388.738 13.11ZM395.279 13.11C394.89 13.11 394.538 13.055 394.223 12.945C393.915 12.8277 393.651 12.6663 393.431 12.461C393.211 12.2483 393.038 11.9953 392.914 11.702C392.796 11.4087 392.738 11.0823 392.738 10.723V9.216C392.738 8.85667 392.796 8.53033 392.914 8.237C393.038 7.94367 393.211 7.69433 393.431 7.489C393.651 7.27633 393.915 7.115 394.223 7.005C394.538 6.88767 394.89 6.829 395.279 6.829C395.667 6.829 396.016 6.884 396.324 6.994C396.639 7.104 396.907 7.26533 397.127 7.478C397.347 7.68333 397.515 7.93267 397.633 8.226C397.757 8.512 397.82 8.83833 397.82 9.205V10.723C397.82 11.0823 397.761 11.4123 397.644 11.713C397.526 12.0063 397.358 12.2557 397.138 12.461C396.918 12.6663 396.65 12.8277 396.335 12.945C396.019 13.055 395.667 13.11 395.279 13.11ZM393.948 10.723C393.948 11.1337 394.065 11.4563 394.3 11.691C394.534 11.9257 394.861 12.043 395.279 12.043C395.689 12.043 396.012 11.9257 396.247 11.691C396.489 11.4563 396.61 11.1337 396.61 10.723V9.216C396.61 8.80533 396.489 8.48267 396.247 8.248C396.012 8.01333 395.689 7.896 395.279 7.896C394.868 7.896 394.542 8.01333 394.3 8.248C394.065 8.48267 393.948 8.80533 393.948 9.216V10.723ZM399.333 9.205C399.333 8.83833 399.381 8.512 399.476 8.226C399.579 7.93267 399.718 7.68333 399.894 7.478C400.078 7.27267 400.298 7.115 400.554 7.005C400.811 6.895 401.093 6.84 401.401 6.84C401.841 6.84 402.204 6.94267 402.49 7.148C402.784 7.346 402.971 7.62833 403.051 7.995H403.15C403.143 7.87033 403.136 7.74567 403.128 7.621C403.114 7.511 403.103 7.39733 403.095 7.28C403.095 7.15533 403.095 7.04533 403.095 6.95V5.08H404.294V13H403.15V11.955H403.051C402.971 12.3217 402.784 12.6077 402.49 12.813C402.204 13.011 401.841 13.11 401.401 13.11C401.093 13.11 400.811 13.055 400.554 12.945C400.298 12.835 400.078 12.6773 399.894 12.472C399.718 12.2667 399.579 12.0173 399.476 11.724C399.381 11.4233 399.333 11.0897 399.333 10.723V9.205ZM400.543 9.227V10.712C400.543 11.1227 400.657 11.449 400.884 11.691C401.119 11.933 401.438 12.054 401.841 12.054C402.223 12.054 402.527 11.933 402.754 11.691C402.982 11.449 403.095 11.1263 403.095 10.723V9.227C403.095 8.81633 402.978 8.49 402.743 8.248C402.516 8.006 402.215 7.885 401.841 7.885C401.438 7.885 401.119 8.006 400.884 8.248C400.657 8.48267 400.543 8.809 400.543 9.227ZM405.929 9.183C405.929 8.82367 405.988 8.501 406.105 8.215C406.222 7.92167 406.391 7.676 406.611 7.478C406.831 7.27267 407.099 7.115 407.414 7.005C407.729 6.895 408.081 6.84 408.47 6.84C408.859 6.84 409.207 6.895 409.515 7.005C409.83 7.115 410.098 7.27267 410.318 7.478C410.538 7.676 410.707 7.92167 410.824 8.215C410.941 8.501 411 8.82367 411 9.183V10.294H407.128V10.723C407.128 11.1557 407.245 11.493 407.48 11.735C407.722 11.977 408.052 12.098 408.47 12.098C408.778 12.098 409.046 12.0503 409.273 11.955C409.5 11.8597 409.665 11.7167 409.768 11.526H410.956C410.89 11.768 410.784 11.988 410.637 12.186C410.49 12.3767 410.307 12.5417 410.087 12.681C409.874 12.8203 409.629 12.9267 409.35 13C409.079 13.0733 408.785 13.11 408.47 13.11C408.081 13.11 407.729 13.055 407.414 12.945C407.106 12.835 406.842 12.6773 406.622 12.472C406.402 12.2667 406.23 12.021 406.105 11.735C405.988 11.4417 405.929 11.1153 405.929 10.756V9.183ZM407.128 9.414H409.812V9.183C409.812 8.765 409.695 8.43867 409.46 8.204C409.225 7.96933 408.895 7.852 408.47 7.852C408.045 7.852 407.715 7.96933 407.48 8.204C407.245 8.43867 407.128 8.765 407.128 9.183V9.414Z" fill="white"/>
<path d="M165 152C165 150.895 165.895 150 167 150H218C219.105 150 220 150.895 220 152V166C220 167.105 219.105 168 218 168H167C165.895 168 165 167.105 165 166V152Z" fill="black"/>
<path d="M172.355 163.11C171.974 163.11 171.625 163.055 171.31 162.945C171.002 162.828 170.738 162.666 170.518 162.461C170.298 162.248 170.126 161.995 170.001 161.702C169.884 161.401 169.825 161.071 169.825 160.712V157.368C169.825 157.001 169.884 156.671 170.001 156.378C170.126 156.085 170.298 155.835 170.518 155.63C170.738 155.417 171.002 155.256 171.31 155.146C171.625 155.029 171.977 154.97 172.366 154.97C173.099 154.97 173.69 155.172 174.137 155.575C174.584 155.978 174.837 156.528 174.896 157.225H173.686C173.649 156.851 173.514 156.561 173.279 156.356C173.052 156.151 172.747 156.048 172.366 156.048C171.955 156.048 171.629 156.165 171.387 156.4C171.152 156.635 171.035 156.957 171.035 157.368V160.712C171.035 161.123 171.149 161.445 171.376 161.68C171.611 161.915 171.937 162.032 172.355 162.032C172.744 162.032 173.052 161.929 173.279 161.724C173.514 161.511 173.649 161.222 173.686 160.855H174.896C174.867 161.2 174.786 161.511 174.654 161.79C174.529 162.069 174.357 162.307 174.137 162.505C173.917 162.696 173.657 162.846 173.356 162.956C173.055 163.059 172.722 163.11 172.355 163.11ZM178.896 163.11C178.507 163.11 178.155 163.055 177.84 162.945C177.532 162.828 177.268 162.666 177.048 162.461C176.828 162.248 176.655 161.995 176.531 161.702C176.413 161.409 176.355 161.082 176.355 160.723V159.216C176.355 158.857 176.413 158.53 176.531 158.237C176.655 157.944 176.828 157.694 177.048 157.489C177.268 157.276 177.532 157.115 177.84 157.005C178.155 156.888 178.507 156.829 178.896 156.829C179.284 156.829 179.633 156.884 179.941 156.994C180.256 157.104 180.524 157.265 180.744 157.478C180.964 157.683 181.132 157.933 181.25 158.226C181.374 158.512 181.437 158.838 181.437 159.205V160.723C181.437 161.082 181.378 161.412 181.261 161.713C181.143 162.006 180.975 162.256 180.755 162.461C180.535 162.666 180.267 162.828 179.952 162.945C179.636 163.055 179.284 163.11 178.896 163.11ZM177.565 160.723C177.565 161.134 177.682 161.456 177.917 161.691C178.151 161.926 178.478 162.043 178.896 162.043C179.306 162.043 179.629 161.926 179.864 161.691C180.106 161.456 180.227 161.134 180.227 160.723V159.216C180.227 158.805 180.106 158.483 179.864 158.248C179.629 158.013 179.306 157.896 178.896 157.896C178.485 157.896 178.159 158.013 177.917 158.248C177.682 158.483 177.565 158.805 177.565 159.216V160.723ZM184.303 156.95V160.789C184.303 161.632 184.696 162.054 185.48 162.054C186.28 162.054 186.679 161.632 186.679 160.789V156.95H187.889V160.789C187.889 161.53 187.68 162.102 187.262 162.505C186.844 162.908 186.25 163.11 185.48 163.11C184.725 163.11 184.138 162.908 183.72 162.505C183.302 162.094 183.093 161.522 183.093 160.789V156.95H184.303ZM189.656 156.95H190.8V157.995H190.899C190.98 157.621 191.159 157.335 191.438 157.137C191.717 156.939 192.076 156.84 192.516 156.84C192.831 156.84 193.11 156.895 193.352 157.005C193.601 157.108 193.81 157.254 193.979 157.445C194.155 157.636 194.287 157.867 194.375 158.138C194.463 158.402 194.507 158.695 194.507 159.018V163H193.297V159.183C193.297 158.765 193.191 158.442 192.978 158.215C192.765 157.988 192.472 157.874 192.098 157.874C191.717 157.874 191.416 157.995 191.196 158.237C190.976 158.479 190.866 158.809 190.866 159.227V163H189.656V156.95ZM195.955 156.95H197.66V155.08H198.87V156.95H201.191V158.039H198.87V161.262C198.87 161.46 198.928 161.618 199.046 161.735C199.163 161.845 199.328 161.9 199.541 161.9H201.081V163H199.486C198.921 163 198.474 162.842 198.144 162.527C197.821 162.212 197.66 161.79 197.66 161.262V158.039H195.955V156.95ZM204.245 156.95V157.995H204.344C204.424 157.628 204.611 157.346 204.905 157.148C205.205 156.943 205.579 156.84 206.027 156.84C206.672 156.84 207.178 157.042 207.545 157.445C207.911 157.841 208.095 158.395 208.095 159.106V159.502H206.852V159.227C206.852 158.802 206.738 158.472 206.511 158.237C206.283 157.995 205.972 157.874 205.576 157.874C205.187 157.874 204.879 157.995 204.652 158.237C204.424 158.479 204.311 158.809 204.311 159.227V163H203.101V156.95H204.245ZM209.036 156.95H210.356L211.632 160.283C211.691 160.43 211.735 160.576 211.764 160.723C211.801 160.862 211.83 160.994 211.852 161.119C211.874 161.258 211.893 161.39 211.907 161.515H211.995C212.003 161.39 212.017 161.258 212.039 161.119C212.061 161.002 212.087 160.87 212.116 160.723C212.153 160.576 212.197 160.43 212.248 160.283L213.436 156.95H214.712L211.808 164.87H210.532L211.368 162.615L209.036 156.95Z" fill="white"/>
<rect x="354.619" y="17.8584" width="78.7897" height="30.2646" fill="#FF0000" fill-opacity="0.05"/>
<rect x="355.369" y="18.6084" width="77.2897" height="28.7646" stroke="#FF0000" stroke-opacity="0.8" stroke-width="1.5"/>
<rect x="165.21" y="168.858" width="107.615" height="30.2646" fill="#FF0000" fill-opacity="0.05"/>
<rect x="165.71" y="169.358" width="106.615" height="29.2646" stroke="#FC0303" stroke-opacity="0.8"/>
<rect x="300.21" y="173.02" width="107.615" height="35.9392" fill="#FF0000" fill-opacity="0.05"/>
<rect x="300.71" y="173.52" width="106.615" height="34.9392" stroke="#FF0000" stroke-opacity="0.8"/>
<path d="M298 193C298 191.895 298.895 191 300 191H397C398.105 191 399 191.895 399 193V207C399 208.105 398.105 209 397 209H300C298.895 209 298 208.105 298 207V193Z" fill="black"/>
<path d="M302.682 201.932H303.925C303.94 202.277 304.072 202.548 304.321 202.746C304.57 202.944 304.904 203.043 305.322 203.043C305.762 203.043 306.099 202.948 306.334 202.757C306.576 202.559 306.697 202.291 306.697 201.954C306.697 201.661 306.609 201.404 306.433 201.184C306.257 200.964 306.015 200.803 305.707 200.7L304.805 200.414C304.16 200.223 303.676 199.934 303.353 199.545C303.03 199.156 302.869 198.68 302.869 198.115C302.869 197.792 302.924 197.499 303.034 197.235C303.151 196.971 303.316 196.747 303.529 196.564C303.749 196.373 304.009 196.227 304.31 196.124C304.618 196.021 304.959 195.97 305.333 195.97C305.7 195.97 306.033 196.021 306.334 196.124C306.635 196.219 306.891 196.362 307.104 196.553C307.317 196.736 307.485 196.96 307.61 197.224C307.735 197.488 307.801 197.781 307.808 198.104H306.565C306.558 197.774 306.44 197.514 306.213 197.323C305.986 197.125 305.685 197.026 305.311 197.026C304.937 197.026 304.636 197.121 304.409 197.312C304.189 197.495 304.079 197.752 304.079 198.082C304.079 198.346 304.16 198.577 304.321 198.775C304.49 198.966 304.75 199.116 305.102 199.226L306.048 199.523C306.657 199.714 307.119 200.011 307.434 200.414C307.757 200.817 307.918 201.312 307.918 201.899C307.918 202.236 307.856 202.541 307.731 202.812C307.614 203.083 307.441 203.314 307.214 203.505C306.987 203.696 306.712 203.846 306.389 203.956C306.066 204.059 305.703 204.11 305.3 204.11C304.919 204.11 304.567 204.059 304.244 203.956C303.929 203.853 303.654 203.707 303.419 203.516C303.192 203.325 303.012 203.098 302.88 202.834C302.755 202.563 302.689 202.262 302.682 201.932ZM309.355 200.183C309.355 199.824 309.413 199.501 309.531 199.215C309.648 198.922 309.817 198.676 310.037 198.478C310.257 198.273 310.524 198.115 310.84 198.005C311.155 197.895 311.507 197.84 311.896 197.84C312.284 197.84 312.633 197.895 312.941 198.005C313.256 198.115 313.524 198.273 313.744 198.478C313.964 198.676 314.132 198.922 314.25 199.215C314.367 199.501 314.426 199.824 314.426 200.183V201.294H310.554V201.723C310.554 202.156 310.671 202.493 310.906 202.735C311.148 202.977 311.478 203.098 311.896 203.098C312.204 203.098 312.471 203.05 312.699 202.955C312.926 202.86 313.091 202.717 313.194 202.526H314.382C314.316 202.768 314.209 202.988 314.063 203.186C313.916 203.377 313.733 203.542 313.513 203.681C313.3 203.82 313.054 203.927 312.776 204C312.504 204.073 312.211 204.11 311.896 204.11C311.507 204.11 311.155 204.055 310.84 203.945C310.532 203.835 310.268 203.677 310.048 203.472C309.828 203.267 309.655 203.021 309.531 202.735C309.413 202.442 309.355 202.115 309.355 201.756V200.183ZM310.554 200.414H313.238V200.183C313.238 199.765 313.12 199.439 312.886 199.204C312.651 198.969 312.321 198.852 311.896 198.852C311.47 198.852 311.14 198.969 310.906 199.204C310.671 199.439 310.554 199.765 310.554 200.183V200.414ZM316.06 197.95H317.204V198.995H317.303C317.384 198.621 317.564 198.335 317.842 198.137C318.121 197.939 318.48 197.84 318.92 197.84C319.236 197.84 319.514 197.895 319.756 198.005C320.006 198.108 320.215 198.254 320.383 198.445C320.559 198.636 320.691 198.867 320.779 199.138C320.867 199.402 320.911 199.695 320.911 200.018V204H319.701V200.183C319.701 199.765 319.595 199.442 319.382 199.215C319.17 198.988 318.876 198.874 318.502 198.874C318.121 198.874 317.82 198.995 317.6 199.237C317.38 199.479 317.27 199.809 317.27 200.227V204H316.06V197.95ZM322.546 200.205C322.546 199.838 322.594 199.512 322.689 199.226C322.792 198.933 322.931 198.683 323.107 198.478C323.29 198.273 323.51 198.115 323.767 198.005C324.024 197.895 324.306 197.84 324.614 197.84C325.054 197.84 325.417 197.943 325.703 198.148C325.996 198.346 326.183 198.628 326.264 198.995H326.363C326.356 198.87 326.348 198.746 326.341 198.621C326.326 198.511 326.315 198.397 326.308 198.28C326.308 198.155 326.308 198.045 326.308 197.95V196.08H327.507V204H326.363V202.955H326.264C326.183 203.322 325.996 203.608 325.703 203.813C325.417 204.011 325.054 204.11 324.614 204.11C324.306 204.11 324.024 204.055 323.767 203.945C323.51 203.835 323.29 203.677 323.107 203.472C322.931 203.267 322.792 203.017 322.689 202.724C322.594 202.423 322.546 202.09 322.546 201.723V200.205ZM323.756 200.227V201.712C323.756 202.123 323.87 202.449 324.097 202.691C324.332 202.933 324.651 203.054 325.054 203.054C325.435 203.054 325.74 202.933 325.967 202.691C326.194 202.449 326.308 202.126 326.308 201.723V200.227C326.308 199.816 326.191 199.49 325.956 199.248C325.729 199.006 325.428 198.885 325.054 198.885C324.651 198.885 324.332 199.006 324.097 199.248C323.87 199.483 323.756 199.809 323.756 200.227ZM329.142 200.183C329.142 199.824 329.2 199.501 329.318 199.215C329.435 198.922 329.604 198.676 329.824 198.478C330.044 198.273 330.311 198.115 330.627 198.005C330.942 197.895 331.294 197.84 331.683 197.84C332.071 197.84 332.42 197.895 332.728 198.005C333.043 198.115 333.311 198.273 333.531 198.478C333.751 198.676 333.919 198.922 334.037 199.215C334.154 199.501 334.213 199.824 334.213 200.183V201.294H330.341V201.723C330.341 202.156 330.458 202.493 330.693 202.735C330.935 202.977 331.265 203.098 331.683 203.098C331.991 203.098 332.258 203.05 332.486 202.955C332.713 202.86 332.878 202.717 332.981 202.526H334.169C334.103 202.768 333.996 202.988 333.85 203.186C333.703 203.377 333.52 203.542 333.3 203.681C333.087 203.82 332.841 203.927 332.563 204C332.291 204.073 331.998 204.11 331.683 204.11C331.294 204.11 330.942 204.055 330.627 203.945C330.319 203.835 330.055 203.677 329.835 203.472C329.615 203.267 329.442 203.021 329.318 202.735C329.2 202.442 329.142 202.115 329.142 201.756V200.183ZM330.341 200.414H333.025V200.183C333.025 199.765 332.907 199.439 332.673 199.204C332.438 198.969 332.108 198.852 331.683 198.852C331.257 198.852 330.927 198.969 330.693 199.204C330.458 199.439 330.341 199.765 330.341 200.183V200.414ZM337.245 197.95V198.995H337.344C337.424 198.628 337.611 198.346 337.905 198.148C338.205 197.943 338.579 197.84 339.027 197.84C339.672 197.84 340.178 198.042 340.545 198.445C340.911 198.841 341.095 199.395 341.095 200.106V200.502H339.852V200.227C339.852 199.802 339.738 199.472 339.511 199.237C339.283 198.995 338.972 198.874 338.576 198.874C338.187 198.874 337.879 198.995 337.652 199.237C337.424 199.479 337.311 199.809 337.311 200.227V204H336.101V197.95H337.245ZM350.678 196.08H352.328L354.407 204H353.153L352.647 201.899H350.282L349.776 204H348.533L350.678 196.08ZM352.405 200.931L351.69 197.961C351.653 197.822 351.624 197.69 351.602 197.565C351.58 197.433 351.562 197.316 351.547 197.213C351.532 197.096 351.518 196.986 351.503 196.883H351.448C351.433 196.986 351.415 197.096 351.393 197.213C351.378 197.316 351.356 197.433 351.327 197.565C351.305 197.69 351.276 197.822 351.239 197.961L350.524 200.931H352.405ZM355.525 200.205C355.525 199.838 355.572 199.512 355.668 199.226C355.77 198.933 355.91 198.683 356.086 198.478C356.269 198.273 356.489 198.115 356.746 198.005C357.002 197.895 357.285 197.84 357.593 197.84C358.033 197.84 358.396 197.943 358.682 198.148C358.975 198.346 359.162 198.628 359.243 198.995H359.342C359.334 198.87 359.327 198.746 359.32 198.621C359.305 198.511 359.294 198.397 359.287 198.28C359.287 198.155 359.287 198.045 359.287 197.95V196.08H360.486V204H359.342V202.955H359.243C359.162 203.322 358.975 203.608 358.682 203.813C358.396 204.011 358.033 204.11 357.593 204.11C357.285 204.11 357.002 204.055 356.746 203.945C356.489 203.835 356.269 203.677 356.086 203.472C355.91 203.267 355.77 203.017 355.668 202.724C355.572 202.423 355.525 202.09 355.525 201.723V200.205ZM356.735 200.227V201.712C356.735 202.123 356.848 202.449 357.076 202.691C357.31 202.933 357.629 203.054 358.033 203.054C358.414 203.054 358.718 202.933 358.946 202.691C359.173 202.449 359.287 202.126 359.287 201.723V200.227C359.287 199.816 359.169 199.49 358.935 199.248C358.707 199.006 358.407 198.885 358.033 198.885C357.629 198.885 357.31 199.006 357.076 199.248C356.848 199.483 356.735 199.809 356.735 200.227ZM362.12 200.205C362.12 199.838 362.168 199.512 362.263 199.226C362.366 198.933 362.505 198.683 362.681 198.478C362.865 198.273 363.085 198.115 363.341 198.005C363.598 197.895 363.88 197.84 364.188 197.84C364.628 197.84 364.991 197.943 365.277 198.148C365.571 198.346 365.758 198.628 365.838 198.995H365.937C365.93 198.87 365.923 198.746 365.915 198.621C365.901 198.511 365.89 198.397 365.882 198.28C365.882 198.155 365.882 198.045 365.882 197.95V196.08H367.081V204H365.937V202.955H365.838C365.758 203.322 365.571 203.608 365.277 203.813C364.991 204.011 364.628 204.11 364.188 204.11C363.88 204.11 363.598 204.055 363.341 203.945C363.085 203.835 362.865 203.677 362.681 203.472C362.505 203.267 362.366 203.017 362.263 202.724C362.168 202.423 362.12 202.09 362.12 201.723V200.205ZM363.33 200.227V201.712C363.33 202.123 363.444 202.449 363.671 202.691C363.906 202.933 364.225 203.054 364.628 203.054C365.01 203.054 365.314 202.933 365.541 202.691C365.769 202.449 365.882 202.126 365.882 201.723V200.227C365.882 199.816 365.765 199.49 365.53 199.248C365.303 199.006 365.002 198.885 364.628 198.885C364.225 198.885 363.906 199.006 363.671 199.248C363.444 199.483 363.33 199.809 363.33 200.227ZM370.223 197.95V198.995H370.322C370.403 198.628 370.59 198.346 370.883 198.148C371.184 197.943 371.558 197.84 372.005 197.84C372.65 197.84 373.156 198.042 373.523 198.445C373.89 198.841 374.073 199.395 374.073 200.106V200.502H372.83V200.227C372.83 199.802 372.716 199.472 372.489 199.237C372.262 198.995 371.95 198.874 371.554 198.874C371.165 198.874 370.857 198.995 370.63 199.237C370.403 199.479 370.289 199.809 370.289 200.227V204H369.079V197.95H370.223ZM375.312 200.183C375.312 199.824 375.37 199.501 375.488 199.215C375.605 198.922 375.774 198.676 375.994 198.478C376.214 198.273 376.481 198.115 376.797 198.005C377.112 197.895 377.464 197.84 377.853 197.84C378.241 197.84 378.59 197.895 378.898 198.005C379.213 198.115 379.481 198.273 379.701 198.478C379.921 198.676 380.089 198.922 380.207 199.215C380.324 199.501 380.383 199.824 380.383 200.183V201.294H376.511V201.723C376.511 202.156 376.628 202.493 376.863 202.735C377.105 202.977 377.435 203.098 377.853 203.098C378.161 203.098 378.428 203.05 378.656 202.955C378.883 202.86 379.048 202.717 379.151 202.526H380.339C380.273 202.768 380.166 202.988 380.02 203.186C379.873 203.377 379.69 203.542 379.47 203.681C379.257 203.82 379.011 203.927 378.733 204C378.461 204.073 378.168 204.11 377.853 204.11C377.464 204.11 377.112 204.055 376.797 203.945C376.489 203.835 376.225 203.677 376.005 203.472C375.785 203.267 375.612 203.021 375.488 202.735C375.37 202.442 375.312 202.115 375.312 201.756V200.183ZM376.511 200.414H379.195V200.183C379.195 199.765 379.077 199.439 378.843 199.204C378.608 198.969 378.278 198.852 377.853 198.852C377.427 198.852 377.097 198.969 376.863 199.204C376.628 199.439 376.511 199.765 376.511 200.183V200.414ZM381.874 202.482H383.128C383.172 202.68 383.293 202.838 383.491 202.955C383.697 203.072 383.946 203.131 384.239 203.131H384.635C384.995 203.131 385.273 203.058 385.471 202.911C385.677 202.764 385.779 202.563 385.779 202.306C385.779 201.866 385.457 201.602 384.811 201.514L383.931 201.393C383.279 201.305 382.795 201.118 382.479 200.832C382.171 200.539 382.017 200.128 382.017 199.6C382.017 199.043 382.212 198.61 382.6 198.302C382.996 197.994 383.557 197.84 384.283 197.84H384.668C385.306 197.84 385.823 197.983 386.219 198.269C386.623 198.548 386.861 198.929 386.934 199.413H385.691C385.647 199.23 385.534 199.087 385.35 198.984C385.167 198.874 384.94 198.819 384.668 198.819H384.283C383.939 198.819 383.675 198.885 383.491 199.017C383.308 199.142 383.216 199.332 383.216 199.589C383.216 199.802 383.282 199.967 383.414 200.084C383.554 200.201 383.774 200.278 384.074 200.315L384.976 200.436C385.666 200.531 386.172 200.726 386.494 201.019C386.817 201.312 386.978 201.73 386.978 202.273C386.978 202.86 386.777 203.314 386.373 203.637C385.97 203.952 385.391 204.11 384.635 204.11H384.239C383.565 204.11 383.015 203.967 382.589 203.681C382.171 203.388 381.933 202.988 381.874 202.482ZM388.47 202.482H389.724C389.768 202.68 389.889 202.838 390.087 202.955C390.292 203.072 390.542 203.131 390.835 203.131H391.231C391.59 203.131 391.869 203.058 392.067 202.911C392.272 202.764 392.375 202.563 392.375 202.306C392.375 201.866 392.052 201.602 391.407 201.514L390.527 201.393C389.874 201.305 389.39 201.118 389.075 200.832C388.767 200.539 388.613 200.128 388.613 199.6C388.613 199.043 388.807 198.61 389.196 198.302C389.592 197.994 390.153 197.84 390.879 197.84H391.264C391.902 197.84 392.419 197.983 392.815 198.269C393.218 198.548 393.457 198.929 393.53 199.413H392.287C392.243 199.23 392.129 199.087 391.946 198.984C391.763 198.874 391.535 198.819 391.264 198.819H390.879C390.534 198.819 390.27 198.885 390.087 199.017C389.904 199.142 389.812 199.332 389.812 199.589C389.812 199.802 389.878 199.967 390.01 200.084C390.149 200.201 390.369 200.278 390.67 200.315L391.572 200.436C392.261 200.531 392.767 200.726 393.09 201.019C393.413 201.312 393.574 201.73 393.574 202.273C393.574 202.86 393.372 203.314 392.969 203.637C392.566 203.952 391.986 204.11 391.231 204.11H390.835C390.16 204.11 389.61 203.967 389.185 203.681C388.767 203.388 388.529 202.988 388.47 202.482Z" fill="white"/>
<path d="M299 157C299 155.895 299.895 155 301 155H378C379.105 155 380 155.895 380 157V171C380 172.105 379.105 173 378 173H301C299.895 173 299 172.105 299 171V157Z" fill="black"/>
<path d="M303.682 165.932H304.925C304.94 166.277 305.072 166.548 305.321 166.746C305.57 166.944 305.904 167.043 306.322 167.043C306.762 167.043 307.099 166.948 307.334 166.757C307.576 166.559 307.697 166.291 307.697 165.954C307.697 165.661 307.609 165.404 307.433 165.184C307.257 164.964 307.015 164.803 306.707 164.7L305.805 164.414C305.16 164.223 304.676 163.934 304.353 163.545C304.03 163.156 303.869 162.68 303.869 162.115C303.869 161.792 303.924 161.499 304.034 161.235C304.151 160.971 304.316 160.747 304.529 160.564C304.749 160.373 305.009 160.227 305.31 160.124C305.618 160.021 305.959 159.97 306.333 159.97C306.7 159.97 307.033 160.021 307.334 160.124C307.635 160.219 307.891 160.362 308.104 160.553C308.317 160.736 308.485 160.96 308.61 161.224C308.735 161.488 308.801 161.781 308.808 162.104H307.565C307.558 161.774 307.44 161.514 307.213 161.323C306.986 161.125 306.685 161.026 306.311 161.026C305.937 161.026 305.636 161.121 305.409 161.312C305.189 161.495 305.079 161.752 305.079 162.082C305.079 162.346 305.16 162.577 305.321 162.775C305.49 162.966 305.75 163.116 306.102 163.226L307.048 163.523C307.657 163.714 308.119 164.011 308.434 164.414C308.757 164.817 308.918 165.312 308.918 165.899C308.918 166.236 308.856 166.541 308.731 166.812C308.614 167.083 308.441 167.314 308.214 167.505C307.987 167.696 307.712 167.846 307.389 167.956C307.066 168.059 306.703 168.11 306.3 168.11C305.919 168.11 305.567 168.059 305.244 167.956C304.929 167.853 304.654 167.707 304.419 167.516C304.192 167.325 304.012 167.098 303.88 166.834C303.755 166.563 303.689 166.262 303.682 165.932ZM310.355 164.183C310.355 163.824 310.413 163.501 310.531 163.215C310.648 162.922 310.817 162.676 311.037 162.478C311.257 162.273 311.524 162.115 311.84 162.005C312.155 161.895 312.507 161.84 312.896 161.84C313.284 161.84 313.633 161.895 313.941 162.005C314.256 162.115 314.524 162.273 314.744 162.478C314.964 162.676 315.132 162.922 315.25 163.215C315.367 163.501 315.426 163.824 315.426 164.183V165.294H311.554V165.723C311.554 166.156 311.671 166.493 311.906 166.735C312.148 166.977 312.478 167.098 312.896 167.098C313.204 167.098 313.471 167.05 313.699 166.955C313.926 166.86 314.091 166.717 314.194 166.526H315.382C315.316 166.768 315.209 166.988 315.063 167.186C314.916 167.377 314.733 167.542 314.513 167.681C314.3 167.82 314.054 167.927 313.776 168C313.504 168.073 313.211 168.11 312.896 168.11C312.507 168.11 312.155 168.055 311.84 167.945C311.532 167.835 311.268 167.677 311.048 167.472C310.828 167.267 310.655 167.021 310.531 166.735C310.413 166.442 310.355 166.115 310.355 165.756V164.183ZM311.554 164.414H314.238V164.183C314.238 163.765 314.12 163.439 313.886 163.204C313.651 162.969 313.321 162.852 312.896 162.852C312.47 162.852 312.14 162.969 311.906 163.204C311.671 163.439 311.554 163.765 311.554 164.183V164.414ZM317.06 161.95H318.204V162.995H318.303C318.384 162.621 318.564 162.335 318.842 162.137C319.121 161.939 319.48 161.84 319.92 161.84C320.236 161.84 320.514 161.895 320.756 162.005C321.006 162.108 321.215 162.254 321.383 162.445C321.559 162.636 321.691 162.867 321.779 163.138C321.867 163.402 321.911 163.695 321.911 164.018V168H320.701V164.183C320.701 163.765 320.595 163.442 320.382 163.215C320.17 162.988 319.876 162.874 319.502 162.874C319.121 162.874 318.82 162.995 318.6 163.237C318.38 163.479 318.27 163.809 318.27 164.227V168H317.06V161.95ZM323.546 164.205C323.546 163.838 323.594 163.512 323.689 163.226C323.792 162.933 323.931 162.683 324.107 162.478C324.29 162.273 324.51 162.115 324.767 162.005C325.024 161.895 325.306 161.84 325.614 161.84C326.054 161.84 326.417 161.943 326.703 162.148C326.996 162.346 327.183 162.628 327.264 162.995H327.363C327.356 162.87 327.348 162.746 327.341 162.621C327.326 162.511 327.315 162.397 327.308 162.28C327.308 162.155 327.308 162.045 327.308 161.95V160.08H328.507V168H327.363V166.955H327.264C327.183 167.322 326.996 167.608 326.703 167.813C326.417 168.011 326.054 168.11 325.614 168.11C325.306 168.11 325.024 168.055 324.767 167.945C324.51 167.835 324.29 167.677 324.107 167.472C323.931 167.267 323.792 167.017 323.689 166.724C323.594 166.423 323.546 166.09 323.546 165.723V164.205ZM324.756 164.227V165.712C324.756 166.123 324.87 166.449 325.097 166.691C325.332 166.933 325.651 167.054 326.054 167.054C326.435 167.054 326.74 166.933 326.967 166.691C327.194 166.449 327.308 166.126 327.308 165.723V164.227C327.308 163.816 327.191 163.49 326.956 163.248C326.729 163.006 326.428 162.885 326.054 162.885C325.651 162.885 325.332 163.006 325.097 163.248C324.87 163.483 324.756 163.809 324.756 164.227ZM330.142 164.183C330.142 163.824 330.2 163.501 330.318 163.215C330.435 162.922 330.604 162.676 330.824 162.478C331.044 162.273 331.311 162.115 331.627 162.005C331.942 161.895 332.294 161.84 332.683 161.84C333.071 161.84 333.42 161.895 333.728 162.005C334.043 162.115 334.311 162.273 334.531 162.478C334.751 162.676 334.919 162.922 335.037 163.215C335.154 163.501 335.213 163.824 335.213 164.183V165.294H331.341V165.723C331.341 166.156 331.458 166.493 331.693 166.735C331.935 166.977 332.265 167.098 332.683 167.098C332.991 167.098 333.258 167.05 333.486 166.955C333.713 166.86 333.878 166.717 333.981 166.526H335.169C335.103 166.768 334.996 166.988 334.85 167.186C334.703 167.377 334.52 167.542 334.3 167.681C334.087 167.82 333.841 167.927 333.563 168C333.291 168.073 332.998 168.11 332.683 168.11C332.294 168.11 331.942 168.055 331.627 167.945C331.319 167.835 331.055 167.677 330.835 167.472C330.615 167.267 330.442 167.021 330.318 166.735C330.2 166.442 330.142 166.115 330.142 165.756V164.183ZM331.341 164.414H334.025V164.183C334.025 163.765 333.907 163.439 333.673 163.204C333.438 162.969 333.108 162.852 332.683 162.852C332.257 162.852 331.927 162.969 331.693 163.204C331.458 163.439 331.341 163.765 331.341 164.183V164.414ZM338.245 161.95V162.995H338.344C338.424 162.628 338.611 162.346 338.905 162.148C339.205 161.943 339.579 161.84 340.027 161.84C340.672 161.84 341.178 162.042 341.545 162.445C341.911 162.841 342.095 163.395 342.095 164.106V164.502H340.852V164.227C340.852 163.802 340.738 163.472 340.511 163.237C340.283 162.995 339.972 162.874 339.576 162.874C339.187 162.874 338.879 162.995 338.652 163.237C338.424 163.479 338.311 163.809 338.311 164.227V168H337.101V161.95H338.245ZM350.039 161.95H351.183V162.995H351.282C351.363 162.621 351.542 162.335 351.821 162.137C352.1 161.939 352.459 161.84 352.899 161.84C353.214 161.84 353.493 161.895 353.735 162.005C353.984 162.108 354.193 162.254 354.362 162.445C354.538 162.636 354.67 162.867 354.758 163.138C354.846 163.402 354.89 163.695 354.89 164.018V168H353.68V164.183C353.68 163.765 353.574 163.442 353.361 163.215C353.148 162.988 352.855 162.874 352.481 162.874C352.1 162.874 351.799 162.995 351.579 163.237C351.359 163.479 351.249 163.809 351.249 164.227V168H350.039V161.95ZM356.382 166.273C356.382 165.686 356.583 165.221 356.987 164.876C357.397 164.531 357.951 164.359 358.648 164.359H360.287V163.853C360.287 163.53 360.173 163.281 359.946 163.105C359.726 162.922 359.41 162.83 359 162.83C358.684 162.83 358.417 162.889 358.197 163.006C357.977 163.116 357.83 163.274 357.757 163.479H356.569C356.664 162.973 356.932 162.573 357.372 162.28C357.812 161.987 358.358 161.84 359.011 161.84C359.781 161.84 360.386 162.016 360.826 162.368C361.273 162.72 361.497 163.204 361.497 163.82V168H360.375V166.823H360.287C360.206 167.219 359.99 167.534 359.638 167.769C359.293 167.996 358.864 168.11 358.351 168.11C357.749 168.11 357.269 167.945 356.91 167.615C356.558 167.278 356.382 166.83 356.382 166.273ZM357.592 166.174C357.592 166.482 357.691 166.72 357.889 166.889C358.087 167.058 358.365 167.142 358.725 167.142C358.952 167.142 359.161 167.113 359.352 167.054C359.542 166.995 359.707 166.915 359.847 166.812C359.986 166.702 360.092 166.577 360.166 166.438C360.246 166.291 360.287 166.134 360.287 165.965V165.206H358.659C358.329 165.206 358.068 165.29 357.878 165.459C357.687 165.628 357.592 165.866 357.592 166.174ZM362.966 168V161.95H363.967V162.841H364.055C364.077 162.526 364.173 162.28 364.341 162.104C364.517 161.928 364.752 161.84 365.045 161.84C365.324 161.84 365.544 161.924 365.705 162.093C365.867 162.262 365.984 162.511 366.057 162.841H366.134C366.156 162.526 366.255 162.28 366.431 162.104C366.607 161.928 366.846 161.84 367.146 161.84C367.513 161.84 367.806 161.979 368.026 162.258C368.254 162.529 368.367 162.907 368.367 163.391V168H367.256V163.446C367.256 163.211 367.209 163.032 367.113 162.907C367.018 162.782 366.879 162.72 366.695 162.72C366.307 162.72 366.112 162.977 366.112 163.49V168H365.221V163.446C365.221 163.211 365.17 163.032 365.067 162.907C364.965 162.782 364.818 162.72 364.627 162.72C364.246 162.72 364.055 162.977 364.055 163.49V168H362.966ZM369.716 164.183C369.716 163.824 369.775 163.501 369.892 163.215C370.009 162.922 370.178 162.676 370.398 162.478C370.618 162.273 370.886 162.115 371.201 162.005C371.516 161.895 371.868 161.84 372.257 161.84C372.646 161.84 372.994 161.895 373.302 162.005C373.617 162.115 373.885 162.273 374.105 162.478C374.325 162.676 374.494 162.922 374.611 163.215C374.728 163.501 374.787 163.824 374.787 164.183V165.294H370.915V165.723C370.915 166.156 371.032 166.493 371.267 166.735C371.509 166.977 371.839 167.098 372.257 167.098C372.565 167.098 372.833 167.05 373.06 166.955C373.287 166.86 373.452 166.717 373.555 166.526H374.743C374.677 166.768 374.571 166.988 374.424 167.186C374.277 167.377 374.094 167.542 373.874 167.681C373.661 167.82 373.416 167.927 373.137 168C372.866 168.073 372.572 168.11 372.257 168.11C371.868 168.11 371.516 168.055 371.201 167.945C370.893 167.835 370.629 167.677 370.409 167.472C370.189 167.267 370.017 167.021 369.892 166.735C369.775 166.442 369.716 166.115 369.716 165.756V164.183ZM370.915 164.414H373.599V164.183C373.599 163.765 373.482 163.439 373.247 163.204C373.012 162.969 372.682 162.852 372.257 162.852C371.832 162.852 371.502 162.969 371.267 163.204C371.032 163.439 370.915 163.765 370.915 164.183V164.414Z" fill="white"/>
<rect x="3.21045" y="80.127" width="107.615" height="39.7223" fill="#FF0000" fill-opacity="0.05"/>
<rect x="3.71045" y="80.627" width="106.615" height="38.7223" stroke="#FF0000" stroke-opacity="0.8"/>
<path d="M2 64C2 62.8954 2.89543 62 4 62H68C69.1046 62 70 62.8954 70 64V78C70 79.1046 69.1046 80 68 80H4C2.89543 80 2 79.1046 2 78V64Z" fill="black"/>
<path d="M9.465 67.08C9.84633 67.08 10.191 67.1387 10.499 67.256C10.8143 67.366 11.082 67.5237 11.302 67.729C11.522 67.927 11.6907 68.1727 11.808 68.466C11.9327 68.752 11.995 69.071 11.995 69.423C11.995 69.9583 11.8593 70.4167 11.588 70.798C11.3167 71.1793 10.9463 71.4507 10.477 71.612L12.105 75H10.741L9.267 71.777H8.101V75H6.902V67.08H9.465ZM8.101 70.765H9.465C9.861 70.765 10.1763 70.6477 10.411 70.413C10.6457 70.171 10.763 69.852 10.763 69.456C10.763 69.0527 10.6457 68.73 10.411 68.488C10.1763 68.246 9.861 68.125 9.465 68.125H8.101V70.765ZM13.3547 71.183C13.3547 70.8237 13.4134 70.501 13.5307 70.215C13.648 69.9217 13.8167 69.676 14.0367 69.478C14.2567 69.2727 14.5244 69.115 14.8397 69.005C15.155 68.895 15.507 68.84 15.8957 68.84C16.2844 68.84 16.6327 68.895 16.9407 69.005C17.256 69.115 17.5237 69.2727 17.7437 69.478C17.9637 69.676 18.1324 69.9217 18.2497 70.215C18.367 70.501 18.4257 70.8237 18.4257 71.183V72.294H14.5537V72.723C14.5537 73.1557 14.671 73.493 14.9057 73.735C15.1477 73.977 15.4777 74.098 15.8957 74.098C16.2037 74.098 16.4714 74.0503 16.6987 73.955C16.926 73.8597 17.091 73.7167 17.1937 73.526H18.3817C18.3157 73.768 18.2094 73.988 18.0627 74.186C17.916 74.3767 17.7327 74.5417 17.5127 74.681C17.3 74.8203 17.0544 74.9267 16.7757 75C16.5044 75.0733 16.211 75.11 15.8957 75.11C15.507 75.11 15.155 75.055 14.8397 74.945C14.5317 74.835 14.2677 74.6773 14.0477 74.472C13.8277 74.2667 13.6554 74.021 13.5307 73.735C13.4134 73.4417 13.3547 73.1153 13.3547 72.756V71.183ZM14.5537 71.414H17.2377V71.183C17.2377 70.765 17.1204 70.4387 16.8857 70.204C16.651 69.9693 16.321 69.852 15.8957 69.852C15.4704 69.852 15.1404 69.9693 14.9057 70.204C14.671 70.4387 14.5537 70.765 14.5537 71.183V71.414ZM22.5684 75.11C22.1797 75.11 21.8277 75.055 21.5124 74.945C21.2044 74.835 20.9404 74.6773 20.7204 74.472C20.5004 74.2667 20.3317 74.0173 20.2144 73.724C20.0971 73.4307 20.0384 73.1043 20.0384 72.745V71.205C20.0384 70.8457 20.0971 70.5193 20.2144 70.226C20.3317 69.9327 20.5004 69.6833 20.7204 69.478C20.9404 69.2727 21.2044 69.115 21.5124 69.005C21.8277 68.895 22.1797 68.84 22.5684 68.84C22.9131 68.84 23.2284 68.8877 23.5144 68.983C23.8077 69.0783 24.0644 69.2177 24.2844 69.401C24.5044 69.5843 24.6841 69.8043 24.8234 70.061C24.9701 70.3177 25.0654 70.6073 25.1094 70.93H23.8994C23.8481 70.622 23.7014 70.3727 23.4594 70.182C23.2174 69.9913 22.9204 69.896 22.5684 69.896C22.1504 69.896 21.8241 70.0133 21.5894 70.248C21.3547 70.4753 21.2374 70.7943 21.2374 71.205V72.745C21.2374 73.1557 21.3547 73.4747 21.5894 73.702C21.8241 73.9293 22.1504 74.043 22.5684 74.043C22.9204 74.043 23.2174 73.9513 23.4594 73.768C23.7014 73.5773 23.8481 73.328 23.8994 73.02H25.1094C25.0067 73.6653 24.7281 74.175 24.2734 74.549C23.8261 74.923 23.2577 75.11 22.5684 75.11ZM26.7661 73.9H28.9441V70.039H27.0411V68.95H30.1211V73.9H31.8921V75H26.7661V73.9ZM28.5041 67.289C28.5041 67.0763 28.5701 66.9077 28.7021 66.783C28.8414 66.651 29.0248 66.585 29.2521 66.585H29.5161C29.7434 66.585 29.9231 66.651 30.0551 66.783C30.1944 66.9077 30.2641 67.0763 30.2641 67.289C30.2641 67.5017 30.1944 67.6703 30.0551 67.795C29.9231 67.9197 29.7398 67.982 29.5051 67.982H29.2521C29.0248 67.982 28.8414 67.9197 28.7021 67.795C28.5701 67.6703 28.5041 67.5017 28.5041 67.289ZM33.2628 68.95H34.4178V69.995H34.5058C34.5865 69.6283 34.7698 69.346 35.0558 69.148C35.3491 68.9427 35.7158 68.84 36.1558 68.84C36.4638 68.84 36.7461 68.895 37.0028 69.005C37.2595 69.115 37.4758 69.2727 37.6518 69.478C37.8351 69.6833 37.9745 69.9327 38.0698 70.226C38.1725 70.512 38.2238 70.8383 38.2238 71.205V72.723C38.2238 73.0897 38.1725 73.4233 38.0698 73.724C37.9745 74.0173 37.8351 74.2667 37.6518 74.472C37.4758 74.6773 37.2595 74.835 37.0028 74.945C36.7461 75.055 36.4638 75.11 36.1558 75.11C35.7158 75.11 35.3491 75.011 35.0558 74.813C34.7698 74.6077 34.5865 74.3217 34.5058 73.955H34.4178C34.4178 73.9623 34.4215 74.0027 34.4288 74.076C34.4361 74.1493 34.4398 74.2373 34.4398 74.34C34.4471 74.4427 34.4545 74.5527 34.4618 74.67C34.4691 74.7873 34.4728 74.8973 34.4728 75V76.87H33.2628V68.95ZM34.4728 71.227V72.723C34.4728 73.1263 34.5828 73.449 34.8028 73.691C35.0301 73.933 35.3345 74.054 35.7158 74.054C36.1191 74.054 36.4345 73.933 36.6618 73.691C36.8965 73.449 37.0138 73.1227 37.0138 72.712V71.227C37.0138 70.809 36.8965 70.4827 36.6618 70.248C36.4345 70.006 36.1191 69.885 35.7158 69.885C35.3418 69.885 35.0411 70.006 34.8138 70.248C34.5865 70.49 34.4728 70.8163 34.4728 71.227ZM39.9575 73.9H42.1355V70.039H40.2325V68.95H43.3125V73.9H45.0835V75H39.9575V73.9ZM41.6955 67.289C41.6955 67.0763 41.7615 66.9077 41.8935 66.783C42.0328 66.651 42.2162 66.585 42.4435 66.585H42.7075C42.9348 66.585 43.1145 66.651 43.2465 66.783C43.3858 66.9077 43.4555 67.0763 43.4555 67.289C43.4555 67.5017 43.3858 67.6703 43.2465 67.795C43.1145 67.9197 42.9312 67.982 42.6965 67.982H42.4435C42.2162 67.982 42.0328 67.9197 41.8935 67.795C41.7615 67.6703 41.6955 67.5017 41.6955 67.289ZM46.3332 71.183C46.3332 70.8237 46.3919 70.501 46.5092 70.215C46.6266 69.9217 46.7952 69.676 47.0152 69.478C47.2352 69.2727 47.5029 69.115 47.8182 69.005C48.1336 68.895 48.4856 68.84 48.8742 68.84C49.2629 68.84 49.6112 68.895 49.9192 69.005C50.2346 69.115 50.5022 69.2727 50.7222 69.478C50.9422 69.676 51.1109 69.9217 51.2282 70.215C51.3456 70.501 51.4042 70.8237 51.4042 71.183V72.294H47.5322V72.723C47.5322 73.1557 47.6496 73.493 47.8842 73.735C48.1262 73.977 48.4562 74.098 48.8742 74.098C49.1822 74.098 49.4499 74.0503 49.6772 73.955C49.9046 73.8597 50.0696 73.7167 50.1722 73.526H51.3602C51.2942 73.768 51.1879 73.988 51.0412 74.186C50.8946 74.3767 50.7112 74.5417 50.4912 74.681C50.2786 74.8203 50.0329 74.9267 49.7542 75C49.4829 75.0733 49.1896 75.11 48.8742 75.11C48.4856 75.11 48.1336 75.055 47.8182 74.945C47.5102 74.835 47.2462 74.6773 47.0262 74.472C46.8062 74.2667 46.6339 74.021 46.5092 73.735C46.3919 73.4417 46.3332 73.1153 46.3332 72.756V71.183ZM47.5322 71.414H50.2162V71.183C50.2162 70.765 50.0989 70.4387 49.8642 70.204C49.6296 69.9693 49.2996 69.852 48.8742 69.852C48.4489 69.852 48.1189 69.9693 47.8842 70.204C47.6496 70.4387 47.5322 70.765 47.5322 71.183V71.414ZM53.0389 68.95H54.1829V69.995H54.2819C54.3626 69.621 54.5423 69.335 54.8209 69.137C55.0996 68.939 55.4589 68.84 55.8989 68.84C56.2143 68.84 56.4929 68.895 56.7349 69.005C56.9843 69.1077 57.1933 69.2543 57.3619 69.445C57.5379 69.6357 57.6699 69.8667 57.7579 70.138C57.8459 70.402 57.8899 70.6953 57.8899 71.018V75H56.6799V71.183C56.6799 70.765 56.5736 70.4423 56.3609 70.215C56.1483 69.9877 55.8549 69.874 55.4809 69.874C55.0996 69.874 54.7989 69.995 54.5789 70.237C54.3589 70.479 54.2489 70.809 54.2489 71.227V75H53.0389V68.95ZM59.3376 68.95H61.0426V67.08H62.2526V68.95H64.5736V70.039H62.2526V73.262C62.2526 73.46 62.3113 73.6177 62.4286 73.735C62.546 73.845 62.711 73.9 62.9236 73.9H64.4636V75H62.8686C62.304 75 61.8566 74.8423 61.5266 74.527C61.204 74.2117 61.0426 73.79 61.0426 73.262V70.039H59.3376V68.95Z" fill="white"/>
<rect x="4.5791" y="139.127" width="222.917" height="39.7223" fill="#FF0000" fill-opacity="0.05"/>
<rect x="5.0791" y="139.627" width="221.917" height="38.7223" stroke="#FF0000" stroke-opacity="0.8"/>
<path d="M4 123C4 121.895 4.89543 121 6 121H123C124.105 121 125 121.895 125 123V137C125 138.105 124.105 139 123 139H6C4.89543 139 4 138.105 4 137V123Z" fill="black"/>
<path d="M11.465 126.08C11.8463 126.08 12.191 126.139 12.499 126.256C12.8143 126.366 13.082 126.524 13.302 126.729C13.522 126.927 13.6907 127.173 13.808 127.466C13.9327 127.752 13.995 128.071 13.995 128.423C13.995 128.958 13.8593 129.417 13.588 129.798C13.3167 130.179 12.9463 130.451 12.477 130.612L14.105 134H12.741L11.267 130.777H10.101V134H8.902V126.08H11.465ZM10.101 129.765H11.465C11.861 129.765 12.1763 129.648 12.411 129.413C12.6457 129.171 12.763 128.852 12.763 128.456C12.763 128.053 12.6457 127.73 12.411 127.488C12.1763 127.246 11.861 127.125 11.465 127.125H10.101V129.765ZM15.3547 130.183C15.3547 129.824 15.4134 129.501 15.5307 129.215C15.648 128.922 15.8167 128.676 16.0367 128.478C16.2567 128.273 16.5244 128.115 16.8397 128.005C17.155 127.895 17.507 127.84 17.8957 127.84C18.2844 127.84 18.6327 127.895 18.9407 128.005C19.256 128.115 19.5237 128.273 19.7437 128.478C19.9637 128.676 20.1324 128.922 20.2497 129.215C20.367 129.501 20.4257 129.824 20.4257 130.183V131.294H16.5537V131.723C16.5537 132.156 16.671 132.493 16.9057 132.735C17.1477 132.977 17.4777 133.098 17.8957 133.098C18.2037 133.098 18.4714 133.05 18.6987 132.955C18.926 132.86 19.091 132.717 19.1937 132.526H20.3817C20.3157 132.768 20.2094 132.988 20.0627 133.186C19.916 133.377 19.7327 133.542 19.5127 133.681C19.3 133.82 19.0544 133.927 18.7757 134C18.5044 134.073 18.211 134.11 17.8957 134.11C17.507 134.11 17.155 134.055 16.8397 133.945C16.5317 133.835 16.2677 133.677 16.0477 133.472C15.8277 133.267 15.6554 133.021 15.5307 132.735C15.4134 132.442 15.3547 132.115 15.3547 131.756V130.183ZM16.5537 130.414H19.2377V130.183C19.2377 129.765 19.1204 129.439 18.8857 129.204C18.651 128.969 18.321 128.852 17.8957 128.852C17.4704 128.852 17.1404 128.969 16.9057 129.204C16.671 129.439 16.5537 129.765 16.5537 130.183V130.414ZM24.5684 134.11C24.1797 134.11 23.8277 134.055 23.5124 133.945C23.2044 133.835 22.9404 133.677 22.7204 133.472C22.5004 133.267 22.3317 133.017 22.2144 132.724C22.0971 132.431 22.0384 132.104 22.0384 131.745V130.205C22.0384 129.846 22.0971 129.519 22.2144 129.226C22.3317 128.933 22.5004 128.683 22.7204 128.478C22.9404 128.273 23.2044 128.115 23.5124 128.005C23.8277 127.895 24.1797 127.84 24.5684 127.84C24.9131 127.84 25.2284 127.888 25.5144 127.983C25.8077 128.078 26.0644 128.218 26.2844 128.401C26.5044 128.584 26.6841 128.804 26.8234 129.061C26.9701 129.318 27.0654 129.607 27.1094 129.93H25.8994C25.8481 129.622 25.7014 129.373 25.4594 129.182C25.2174 128.991 24.9204 128.896 24.5684 128.896C24.1504 128.896 23.8241 129.013 23.5894 129.248C23.3547 129.475 23.2374 129.794 23.2374 130.205V131.745C23.2374 132.156 23.3547 132.475 23.5894 132.702C23.8241 132.929 24.1504 133.043 24.5684 133.043C24.9204 133.043 25.2174 132.951 25.4594 132.768C25.7014 132.577 25.8481 132.328 25.8994 132.02H27.1094C27.0067 132.665 26.7281 133.175 26.2734 133.549C25.8261 133.923 25.2577 134.11 24.5684 134.11ZM28.7661 132.9H30.9441V129.039H29.0411V127.95H32.1211V132.9H33.8921V134H28.7661V132.9ZM30.5041 126.289C30.5041 126.076 30.5701 125.908 30.7021 125.783C30.8414 125.651 31.0248 125.585 31.2521 125.585H31.5161C31.7434 125.585 31.9231 125.651 32.0551 125.783C32.1944 125.908 32.2641 126.076 32.2641 126.289C32.2641 126.502 32.1944 126.67 32.0551 126.795C31.9231 126.92 31.7398 126.982 31.5051 126.982H31.2521C31.0248 126.982 30.8414 126.92 30.7021 126.795C30.5701 126.67 30.5041 126.502 30.5041 126.289ZM35.2628 127.95H36.4178V128.995H36.5058C36.5865 128.628 36.7698 128.346 37.0558 128.148C37.3491 127.943 37.7158 127.84 38.1558 127.84C38.4638 127.84 38.7461 127.895 39.0028 128.005C39.2595 128.115 39.4758 128.273 39.6518 128.478C39.8351 128.683 39.9745 128.933 40.0698 129.226C40.1725 129.512 40.2238 129.838 40.2238 130.205V131.723C40.2238 132.09 40.1725 132.423 40.0698 132.724C39.9745 133.017 39.8351 133.267 39.6518 133.472C39.4758 133.677 39.2595 133.835 39.0028 133.945C38.7461 134.055 38.4638 134.11 38.1558 134.11C37.7158 134.11 37.3491 134.011 37.0558 133.813C36.7698 133.608 36.5865 133.322 36.5058 132.955H36.4178C36.4178 132.962 36.4215 133.003 36.4288 133.076C36.4361 133.149 36.4398 133.237 36.4398 133.34C36.4471 133.443 36.4545 133.553 36.4618 133.67C36.4691 133.787 36.4728 133.897 36.4728 134V135.87H35.2628V127.95ZM36.4728 130.227V131.723C36.4728 132.126 36.5828 132.449 36.8028 132.691C37.0301 132.933 37.3345 133.054 37.7158 133.054C38.1191 133.054 38.4345 132.933 38.6618 132.691C38.8965 132.449 39.0138 132.123 39.0138 131.712V130.227C39.0138 129.809 38.8965 129.483 38.6618 129.248C38.4345 129.006 38.1191 128.885 37.7158 128.885C37.3418 128.885 37.0411 129.006 36.8138 129.248C36.5865 129.49 36.4728 129.816 36.4728 130.227ZM41.9575 132.9H44.1355V129.039H42.2325V127.95H45.3125V132.9H47.0835V134H41.9575V132.9ZM43.6955 126.289C43.6955 126.076 43.7615 125.908 43.8935 125.783C44.0328 125.651 44.2162 125.585 44.4435 125.585H44.7075C44.9348 125.585 45.1145 125.651 45.2465 125.783C45.3858 125.908 45.4555 126.076 45.4555 126.289C45.4555 126.502 45.3858 126.67 45.2465 126.795C45.1145 126.92 44.9312 126.982 44.6965 126.982H44.4435C44.2162 126.982 44.0328 126.92 43.8935 126.795C43.7615 126.67 43.6955 126.502 43.6955 126.289ZM48.3332 130.183C48.3332 129.824 48.3919 129.501 48.5092 129.215C48.6266 128.922 48.7952 128.676 49.0152 128.478C49.2352 128.273 49.5029 128.115 49.8182 128.005C50.1336 127.895 50.4856 127.84 50.8742 127.84C51.2629 127.84 51.6112 127.895 51.9192 128.005C52.2346 128.115 52.5022 128.273 52.7222 128.478C52.9422 128.676 53.1109 128.922 53.2282 129.215C53.3456 129.501 53.4042 129.824 53.4042 130.183V131.294H49.5322V131.723C49.5322 132.156 49.6496 132.493 49.8842 132.735C50.1262 132.977 50.4562 133.098 50.8742 133.098C51.1822 133.098 51.4499 133.05 51.6772 132.955C51.9046 132.86 52.0696 132.717 52.1722 132.526H53.3602C53.2942 132.768 53.1879 132.988 53.0412 133.186C52.8946 133.377 52.7112 133.542 52.4912 133.681C52.2786 133.82 52.0329 133.927 51.7542 134C51.4829 134.073 51.1896 134.11 50.8742 134.11C50.4856 134.11 50.1336 134.055 49.8182 133.945C49.5102 133.835 49.2462 133.677 49.0262 133.472C48.8062 133.267 48.6339 133.021 48.5092 132.735C48.3919 132.442 48.3332 132.115 48.3332 131.756V130.183ZM49.5322 130.414H52.2162V130.183C52.2162 129.765 52.0989 129.439 51.8642 129.204C51.6296 128.969 51.2996 128.852 50.8742 128.852C50.4489 128.852 50.1189 128.969 49.8842 129.204C49.6496 129.439 49.5322 129.765 49.5322 130.183V130.414ZM55.0389 127.95H56.1829V128.995H56.2819C56.3626 128.621 56.5423 128.335 56.8209 128.137C57.0996 127.939 57.4589 127.84 57.8989 127.84C58.2143 127.84 58.4929 127.895 58.7349 128.005C58.9843 128.108 59.1933 128.254 59.3619 128.445C59.5379 128.636 59.6699 128.867 59.7579 129.138C59.8459 129.402 59.8899 129.695 59.8899 130.018V134H58.6799V130.183C58.6799 129.765 58.5736 129.442 58.3609 129.215C58.1483 128.988 57.8549 128.874 57.4809 128.874C57.0996 128.874 56.7989 128.995 56.5789 129.237C56.3589 129.479 56.2489 129.809 56.2489 130.227V134H55.0389V127.95ZM61.3376 127.95H63.0426V126.08H64.2526V127.95H66.5736V129.039H64.2526V132.262C64.2526 132.46 64.3113 132.618 64.4286 132.735C64.546 132.845 64.711 132.9 64.9236 132.9H66.4636V134H64.8686C64.304 134 63.8566 133.842 63.5266 133.527C63.204 133.212 63.0426 132.79 63.0426 132.262V129.039H61.3376V127.95ZM76.465 126.08H78.115L80.194 134H78.94L78.434 131.899H76.069L75.563 134H74.32L76.465 126.08ZM78.192 130.931L77.477 127.961C77.4404 127.822 77.411 127.69 77.389 127.565C77.367 127.433 77.3487 127.316 77.334 127.213C77.3194 127.096 77.3047 126.986 77.29 126.883H77.235C77.2204 126.986 77.202 127.096 77.18 127.213C77.1654 127.316 77.1434 127.433 77.114 127.565C77.092 127.69 77.0627 127.822 77.026 127.961L76.311 130.931H78.192ZM81.3117 130.205C81.3117 129.838 81.3594 129.512 81.4547 129.226C81.5574 128.933 81.6967 128.683 81.8727 128.478C82.0561 128.273 82.2761 128.115 82.5327 128.005C82.7894 127.895 83.0717 127.84 83.3797 127.84C83.8197 127.84 84.1827 127.943 84.4687 128.148C84.7621 128.346 84.9491 128.628 85.0297 128.995H85.1287C85.1214 128.87 85.1141 128.746 85.1067 128.621C85.0921 128.511 85.0811 128.397 85.0737 128.28C85.0737 128.155 85.0737 128.045 85.0737 127.95V126.08H86.2727V134H85.1287V132.955H85.0297C84.9491 133.322 84.7621 133.608 84.4687 133.813C84.1827 134.011 83.8197 134.11 83.3797 134.11C83.0717 134.11 82.7894 134.055 82.5327 133.945C82.2761 133.835 82.0561 133.677 81.8727 133.472C81.6967 133.267 81.5574 133.017 81.4547 132.724C81.3594 132.423 81.3117 132.09 81.3117 131.723V130.205ZM82.5217 130.227V131.712C82.5217 132.123 82.6354 132.449 82.8627 132.691C83.0974 132.933 83.4164 133.054 83.8197 133.054C84.2011 133.054 84.5054 132.933 84.7327 132.691C84.9601 132.449 85.0737 132.126 85.0737 131.723V130.227C85.0737 129.816 84.9564 129.49 84.7217 129.248C84.4944 129.006 84.1937 128.885 83.8197 128.885C83.4164 128.885 83.0974 129.006 82.8627 129.248C82.6354 129.483 82.5217 129.809 82.5217 130.227ZM87.9074 130.205C87.9074 129.838 87.9551 129.512 88.0504 129.226C88.1531 128.933 88.2924 128.683 88.4684 128.478C88.6518 128.273 88.8718 128.115 89.1284 128.005C89.3851 127.895 89.6674 127.84 89.9754 127.84C90.4154 127.84 90.7784 127.943 91.0644 128.148C91.3578 128.346 91.5448 128.628 91.6254 128.995H91.7244C91.7171 128.87 91.7098 128.746 91.7024 128.621C91.6878 128.511 91.6768 128.397 91.6694 128.28C91.6694 128.155 91.6694 128.045 91.6694 127.95V126.08H92.8684V134H91.7244V132.955H91.6254C91.5448 133.322 91.3578 133.608 91.0644 133.813C90.7784 134.011 90.4154 134.11 89.9754 134.11C89.6674 134.11 89.3851 134.055 89.1284 133.945C88.8718 133.835 88.6518 133.677 88.4684 133.472C88.2924 133.267 88.1531 133.017 88.0504 132.724C87.9551 132.423 87.9074 132.09 87.9074 131.723V130.205ZM89.1174 130.227V131.712C89.1174 132.123 89.2311 132.449 89.4584 132.691C89.6931 132.933 90.0121 133.054 90.4154 133.054C90.7968 133.054 91.1011 132.933 91.3284 132.691C91.5558 132.449 91.6694 132.126 91.6694 131.723V130.227C91.6694 129.816 91.5521 129.49 91.3174 129.248C91.0901 129.006 90.7894 128.885 90.4154 128.885C90.0121 128.885 89.6931 129.006 89.4584 129.248C89.2311 129.483 89.1174 129.809 89.1174 130.227ZM96.0101 127.95V128.995H96.1091C96.1898 128.628 96.3768 128.346 96.6701 128.148C96.9708 127.943 97.3448 127.84 97.7921 127.84C98.4375 127.84 98.9435 128.042 99.3101 128.445C99.6768 128.841 99.8601 129.395 99.8601 130.106V130.502H98.6171V130.227C98.6171 129.802 98.5035 129.472 98.2761 129.237C98.0488 128.995 97.7371 128.874 97.3411 128.874C96.9525 128.874 96.6445 128.995 96.4171 129.237C96.1898 129.479 96.0761 129.809 96.0761 130.227V134H94.8661V127.95H96.0101ZM101.099 130.183C101.099 129.824 101.158 129.501 101.275 129.215C101.392 128.922 101.561 128.676 101.781 128.478C102.001 128.273 102.269 128.115 102.584 128.005C102.899 127.895 103.251 127.84 103.64 127.84C104.029 127.84 104.377 127.895 104.685 128.005C105 128.115 105.268 128.273 105.488 128.478C105.708 128.676 105.877 128.922 105.994 129.215C106.111 129.501 106.17 129.824 106.17 130.183V131.294H102.298V131.723C102.298 132.156 102.415 132.493 102.65 132.735C102.892 132.977 103.222 133.098 103.64 133.098C103.948 133.098 104.216 133.05 104.443 132.955C104.67 132.86 104.835 132.717 104.938 132.526H106.126C106.06 132.768 105.954 132.988 105.807 133.186C105.66 133.377 105.477 133.542 105.257 133.681C105.044 133.82 104.799 133.927 104.52 134C104.249 134.073 103.955 134.11 103.64 134.11C103.251 134.11 102.899 134.055 102.584 133.945C102.276 133.835 102.012 133.677 101.792 133.472C101.572 133.267 101.4 133.021 101.275 132.735C101.158 132.442 101.099 132.115 101.099 131.756V130.183ZM102.298 130.414H104.982V130.183C104.982 129.765 104.865 129.439 104.63 129.204C104.395 128.969 104.065 128.852 103.64 128.852C103.215 128.852 102.885 128.969 102.65 129.204C102.415 129.439 102.298 129.765 102.298 130.183V130.414ZM107.662 132.482H108.916C108.96 132.68 109.081 132.838 109.279 132.955C109.484 133.072 109.733 133.131 110.027 133.131H110.423C110.782 133.131 111.061 133.058 111.259 132.911C111.464 132.764 111.567 132.563 111.567 132.306C111.567 131.866 111.244 131.602 110.599 131.514L109.719 131.393C109.066 131.305 108.582 131.118 108.267 130.832C107.959 130.539 107.805 130.128 107.805 129.6C107.805 129.043 107.999 128.61 108.388 128.302C108.784 127.994 109.345 127.84 110.071 127.84H110.456C111.094 127.84 111.611 127.983 112.007 128.269C112.41 128.548 112.648 128.929 112.722 129.413H111.479C111.435 129.23 111.321 129.087 111.138 128.984C110.954 128.874 110.727 128.819 110.456 128.819H110.071C109.726 128.819 109.462 128.885 109.279 129.017C109.095 129.142 109.004 129.332 109.004 129.589C109.004 129.802 109.07 129.967 109.202 130.084C109.341 130.201 109.561 130.278 109.862 130.315L110.764 130.436C111.453 130.531 111.959 130.726 112.282 131.019C112.604 131.312 112.766 131.73 112.766 132.273C112.766 132.86 112.564 133.314 112.161 133.637C111.757 133.952 111.178 134.11 110.423 134.11H110.027C109.352 134.11 108.802 133.967 108.377 133.681C107.959 133.388 107.72 132.988 107.662 132.482ZM114.257 132.482H115.511C115.555 132.68 115.676 132.838 115.874 132.955C116.08 133.072 116.329 133.131 116.622 133.131H117.018C117.378 133.131 117.656 133.058 117.854 132.911C118.06 132.764 118.162 132.563 118.162 132.306C118.162 131.866 117.84 131.602 117.194 131.514L116.314 131.393C115.662 131.305 115.178 131.118 114.862 130.832C114.554 130.539 114.4 130.128 114.4 129.6C114.4 129.043 114.595 128.61 114.983 128.302C115.379 127.994 115.94 127.84 116.666 127.84H117.051C117.689 127.84 118.206 127.983 118.602 128.269C119.006 128.548 119.244 128.929 119.317 129.413H118.074C118.03 129.23 117.917 129.087 117.733 128.984C117.55 128.874 117.323 128.819 117.051 128.819H116.666C116.322 128.819 116.058 128.885 115.874 129.017C115.691 129.142 115.599 129.332 115.599 129.589C115.599 129.802 115.665 129.967 115.797 130.084C115.937 130.201 116.157 130.278 116.457 130.315L117.359 130.436C118.049 130.531 118.555 130.726 118.877 131.019C119.2 131.312 119.361 131.73 119.361 132.273C119.361 132.86 119.16 133.314 118.756 133.637C118.353 133.952 117.774 134.11 117.018 134.11H116.622C115.948 134.11 115.398 133.967 114.972 133.681C114.554 133.388 114.316 132.988 114.257 132.482Z" fill="white"/>
</svg>
