<svg width="492" height="284" fill="none" xmlns="http://www.w3.org/2000/svg">
  <path fill="#0FFC03" fill-opacity=".1" d="M309 213.9h146V282H309z"/>
  <path stroke="#0FFC03" stroke-opacity=".8" d="M309.5 214.4h145v67.1h-145z"/>
  <circle cx="453.5" cy="216.5" r="3.5" fill="#fff" stroke="#000" stroke-width="2"/>
  <circle cx="310.5" cy="279.5" r="3.5" fill="#fff" stroke="#000" stroke-width="2"/>
  <circle cx="310.5" cy="216.5" r="3.5" fill="#fff" stroke="#000" stroke-width="2"/>
  <path d="M343 2c0-1.1.9-2 2-2h57a2 2 0 012 2v14a2 2 0 01-2 2h-57a2 2 0 01-2-2V2z" fill="#000"/>
  <path d="M348 6.1v-1h4.6v1H351V12h1.7V13H348v-1h1.7V6H348zm6.5-1h2.4c.8 0 1.4.2 1.8.5.5.4.7.9.7 1.5 0 .5-.1 1-.4 1.2-.3.3-.6.5-1 .5V9c.4 0 .8.2 1.1.5.3.4.4.8.4 1.3 0 .7-.2 1.3-.6 1.7-.5.4-1.1.6-1.9.6h-2.5V5zm1.2 4.3V12h1.2c.5 0 .8-.2 1-.4.3-.2.4-.5.4-1 0-.3-.1-.6-.4-.8-.2-.3-.5-.4-1-.4h-1.2zm1.2-1c.4 0 .7 0 1-.3.1-.2.3-.5.3-.8a1 1 0 00-.4-.9c-.2-.2-.5-.3-.9-.3h-1.2v2.3h1.2zm5.4-3.3l1 2.6V8l.1.4v.4h.2a9.5 9.5 0 01.2-1.1l.8-2.6h1.5V13h-1V7.7a8.4 8.4 0 010-1.2V6a52.3 52.3 0 00-.5 1.6l-.6 1.9h-1l-.6-2A22.6 22.6 0 00362 6h-.1a10.8 10.8 0 010 1.7V13h-1V5h1.4zm14.4 8c-.3 0-.7 0-1-.2-.3 0-.6-.2-.8-.4a2.3 2.3 0 01-.7-1.8V7.4c0-.4 0-.7.2-1a2.2 2.2 0 011.3-1.3 3 3 0 011-.1c.8 0 1.4.2 1.8.6.5.4.7 1 .8 1.6H378c0-.3-.2-.6-.4-.8-.3-.2-.6-.4-1-.4s-.7.2-1 .4c-.2.2-.3.6-.3 1v3.3c0 .4.1.7.4 1 .2.2.5.3 1 .3.3 0 .6 0 .9-.3l.4-.8h1.2l-.3.9a2.1 2.1 0 01-1.3 1.2 3 3 0 01-1 .1zm6.6 0c-.4 0-.8 0-1-.2-.4 0-.6-.2-.9-.4a2.3 2.3 0 01-.7-1.8V9.2l.2-1a2.2 2.2 0 011.3-1.2 3 3 0 011-.2c.5 0 .8 0 1.1.2a2.2 2.2 0 011.3 1.2c.2.3.2.6.2 1v1.5c0 .4 0 .7-.2 1a2 2 0 01-.5.8l-.8.4c-.3.2-.6.2-1 .2zm-1.4-2.4c0 .4.2.8.4 1 .2.2.6.3 1 .3s.7 0 1-.3c.2-.2.3-.6.3-1V9.2c0-.4-.1-.7-.4-1-.2-.2-.5-.3-1-.3-.3 0-.7.1-.9.3-.2.3-.4.6-.4 1v1.5zm5.4-1.5c0-.4 0-.7.2-1 0-.3.2-.5.4-.7l.7-.5.8-.2c.4 0 .8.1 1 .3.4.2.6.5.7.9a46.9 46.9 0 000-.7V5h1.2v8H391v-1c-.1.3-.3.6-.6.8-.3.2-.7.3-1.1.3-.3 0-.6 0-.8-.2-.3 0-.5-.2-.7-.4l-.4-.8-.2-1V9.2zm1.2 0v1.5c0 .4.2.7.4 1 .2.2.5.4 1 .4.3 0 .6-.2.9-.4.2-.3.3-.6.3-1V9.2c0-.4-.1-.7-.4-1-.2-.2-.5-.3-.9-.3s-.7.1-1 .3c-.1.3-.3.6-.3 1zm5.4 0c0-.4 0-.7.2-1l.5-.7.8-.5 1-.2c.5 0 .8 0 1.1.2l.8.5.5.7.2 1v1h-3.9v.5c0 .5.1.8.4 1 .2.3.6.4 1 .4l.8-.1.5-.5h1.2a2 2 0 01-1 1.2l-.6.3a3.4 3.4 0 01-2 0l-.8-.5a2.2 2.2 0 01-.7-1.7V9.2zm1.2.2h2.7v-.2c0-.4-.1-.8-.3-1-.3-.2-.6-.3-1-.3-.5 0-.8 0-1 .3-.3.2-.4.6-.4 1v.2z" fill="#fff"/>
  <path d="M178 158c0-1.1.9-2 2-2h51a2 2 0 012 2v14a2 2 0 01-2 2h-51a2 2 0 01-2-2v-14z" fill="#000"/>
  <path d="M185.4 169.1c-.4 0-.8 0-1-.2-.4 0-.7-.2-.9-.4a2.3 2.3 0 01-.7-1.8v-3.3c0-.4 0-.7.2-1a2.2 2.2 0 011.3-1.3 3 3 0 011-.1c.8 0 1.4.2 1.8.6.5.4.7 1 .8 1.6h-1.2c0-.3-.2-.6-.4-.8-.2-.2-.6-.4-1-.4-.3 0-.7.2-1 .4-.1.2-.3.6-.3 1v3.3c0 .4.1.7.4 1 .2.2.5.3 1 .3.3 0 .7 0 .9-.3l.4-.8h1.2l-.2.9a2.1 2.1 0 01-1.3 1.2 3 3 0 01-1 .1zm6.5 0c-.4 0-.7 0-1-.2-.4 0-.6-.2-.9-.4a2.3 2.3 0 01-.6-1.8v-1.5l.1-1a2.2 2.2 0 011.3-1.2 3 3 0 011.1-.2c.4 0 .7 0 1 .2a2.2 2.2 0 011.3 1.2c.2.3.2.6.2 1v1.5l-.1 1a2 2 0 01-.5.8l-.8.4c-.4.2-.7.2-1.1.2zm-1.3-2.4c0 .4 0 .8.3 1 .3.2.6.3 1 .3s.7 0 1-.3c.2-.2.3-.6.3-1v-1.5c0-.4 0-.7-.3-1-.3-.2-.6-.3-1-.3s-.7.1-1 .3c-.2.3-.3.6-.3 1v1.5zm6.7-3.8v3.9c0 .8.4 1.3 1.2 1.3.8 0 1.2-.5 1.2-1.3v-3.9h1.2v3.9c0 .7-.2 1.3-.6 1.7-.5.4-1 .6-1.8.6s-1.4-.2-1.8-.6c-.4-.4-.6-1-.6-1.7v-3.9h1.2zm5.4 0h1.1v1h.1c0-.3.3-.6.5-.8.3-.2.7-.3 1.1-.3a2 2 0 011.5.6l.4.7.1 1v3.9h-1.2v-3.8c0-.4-.1-.8-.3-1-.2-.2-.5-.3-.9-.3s-.7 0-.9.3c-.2.3-.3.6-.3 1v3.8h-1.2v-6zm6.3 0h1.7v-1.8h1.2v1.8h2.3v1.1h-2.3v3.3l.1.4.5.2h1.6v1.1h-1.6c-.6 0-1-.2-1.4-.5-.3-.3-.4-.7-.4-1.2V164H209v-1zm8.2 0v1h.1c.1-.3.3-.6.6-.8a2 2 0 011.1-.3 2 2 0 011.5.6c.4.4.6 1 .6 1.7v.4h-1.2v-.3c0-.4-.2-.7-.4-1-.2-.2-.5-.3-1-.3-.3 0-.6 0-.8.3-.3.3-.4.6-.4 1v3.8h-1.2v-6h1.1zm4.8 0h1.4l1.2 3.4.2.4a4.7 4.7 0 01.1.8 4.3 4.3 0 01.3-1.2l1.2-3.4h1.3l-2.9 8h-1.3l.9-2.3-2.4-5.7z" fill="#fff"/>
  <path fill="#0FFC03" fill-opacity=".1" d="M343 19h146v105.9H343z"/>
  <path stroke="#0FFC03" stroke-opacity=".8" stroke-width="1.5" d="M343.8 19.8h144.5v104.4H343.8z"/>
  <circle cx="487.5" cy="20.5" r="3.5" fill="#fff" stroke="#000" stroke-width="2"/>
  <circle cx="487.5" cy="123.5" r="3.5" fill="#fff" stroke="#000" stroke-width="2"/>
  <circle cx="344.5" cy="123.5" r="3.5" fill="#fff" stroke="#000" stroke-width="2"/>
  <circle cx="344.5" cy="20.5" r="3.5" fill="#fff" stroke="#000" stroke-width="2"/>
  <path fill="#0FFC03" fill-opacity=".1" d="M174 175.9h146v30.3H174z"/>
  <path stroke="#0FFC03" stroke-opacity=".8" d="M174.5 176.4h145v29.3h-145z"/>
  <circle cx="318.5" cy="179.5" r="3.5" fill="#fff" stroke="#000" stroke-width="2"/>
  <circle cx="318.5" cy="202.5" r="3.5" fill="#fff" stroke="#000" stroke-width="2"/>
  <circle cx="175.5" cy="202.5" r="3.5" fill="#fff" stroke="#000" stroke-width="2"/>
  <circle cx="175.5" cy="179.5" r="3.5" fill="#fff" stroke="#000" stroke-width="2"/>
  <path fill="#0FFC03" fill-opacity=".1" d="M300.2 172.3h107.6v45.4H300.2z"/>
  <path stroke="#0FFC03" stroke-opacity=".8" d="M300.7 172.8h106.6v44.4H300.7z"/>
  <circle cx="405.5" cy="175.5" r="3.5" fill="#fff" stroke="#000" stroke-width="2"/>
  <circle cx="405.5" cy="214.5" r="3.5" fill="#fff" stroke="#000" stroke-width="2"/>
  <circle cx="302.5" cy="214.5" r="3.5" fill="#fff" stroke="#000" stroke-width="2"/>
  <circle cx="302.5" cy="175.5" r="3.5" fill="#fff" stroke="#000" stroke-width="2"/>
  <path d="M308 202c0-1.1.9-2 2-2h97a2 2 0 012 2v14a2 2 0 01-2 2h-97a2 2 0 01-2-2v-14z" fill="#000"/>
  <path d="M312.7 211h1.2c0 .3.2.5.4.7.3.2.6.3 1 .3.5 0 .8 0 1-.2.3-.2.4-.5.4-.8 0-.3 0-.6-.3-.8-.1-.2-.4-.4-.7-.5l-.9-.3c-.6-.2-1.1-.5-1.4-.9-.4-.3-.5-.8-.5-1.4l.1-.9.5-.6.8-.5 1-.1 1 .1a2 2 0 011.5 2h-1.2a1 1 0 00-.4-.8c-.2-.2-.5-.3-.9-.3s-.7.1-.9.3a1 1 0 00-.3.8c0 .2 0 .5.2.7l.8.4 1 .3c.6.2 1 .5 1.3 1 .4.3.5.8.5 1.4 0 .3 0 .6-.2 1 0 .2-.3.4-.5.6l-.8.5-1.1.1-1-.1c-.4-.1-.6-.3-.9-.5l-.5-.7-.2-.9zm6.7-1.8l.1-1 .5-.7.8-.5 1.1-.2c.4 0 .7 0 1 .2.4.1.6.3.8.5l.6.7.1 1v1h-3.8v.5c0 .5 0 .8.3 1 .2.3.6.4 1 .4l.8-.1.5-.5h1.2c0 .3-.2.5-.3.7l-.6.5-.7.3a3.4 3.4 0 01-2 0l-.8-.5a2.2 2.2 0 01-.6-1.7v-1.6zm1.2.2h2.6v-.2c0-.4 0-.8-.3-1-.2-.2-.6-.3-1-.3s-.8 0-1 .3c-.2.2-.3.6-.3 1v.2zm5.5-2.5h1.1v1h.1c0-.3.3-.6.5-.8.3-.2.7-.3 1.1-.3a2 2 0 011.5.6l.4.7.1 1v3.9h-1.2v-3.8c0-.4-.1-.8-.3-1-.2-.2-.5-.3-.9-.3s-.7 0-.9.3c-.2.3-.3.6-.3 1v3.8H326v-6zm6.4 2.3c0-.4 0-.7.2-1 0-.3.2-.5.4-.7l.7-.5.8-.2c.5 0 .8.1 1.1.3.3.2.5.5.6.9v-.4-.3-2.2h1.2v7.9h-1.1v-1h-.1c-.1.3-.3.6-.6.8-.3.2-.6.3-1 .3s-.7 0-1-.2c-.2 0-.4-.2-.6-.4l-.4-.8-.2-1v-1.5zm1.3 0v1.5c0 .4 0 .7.3 1 .2.2.6.4 1 .4.3 0 .6-.2.9-.4.2-.3.3-.6.3-1v-1.5c0-.4-.1-.7-.3-1-.3-.2-.6-.3-1-.3-.3 0-.7.1-.9.3-.2.3-.3.6-.3 1zm5.3 0l.2-1 .5-.7.8-.5 1-.2c.5 0 .8 0 1.1.2l.8.5c.3.2.4.4.5.7.2.3.2.6.2 1v1h-3.9v.5c0 .5.2.8.4 1 .2.3.6.4 1 .4l.8-.1.5-.5h1.2l-.3.7-.6.5-.7.3a3.4 3.4 0 01-2 0l-.8-.5a2.2 2.2 0 01-.7-1.7v-1.6zm1.2.2h2.7v-.2c0-.4 0-.8-.3-1-.3-.2-.6-.3-1-.3s-.8 0-1 .3c-.2.2-.4.6-.4 1v.2zm7-2.5v1c.1-.3.3-.6.6-.8a2 2 0 011.1-.3 2 2 0 011.5.6c.4.4.6 1 .6 1.7v.4h-1.2v-.3c0-.4-.2-.7-.4-1-.2-.2-.5-.3-1-.3-.3 0-.6 0-.8.3-.3.3-.4.6-.4 1v3.8h-1.2v-6h1.1zm13.4-1.8h1.6l2.1 7.9h-1.2l-.6-2.1h-2.3l-.5 2.1h-1.3l2.2-8zm1.7 4.8l-.7-3a4.7 4.7 0 01-.2-.7v-.3a8.1 8.1 0 01-.3 1l-.7 3h1.9zm3.1-.7c0-.4 0-.7.2-1 0-.3.2-.5.4-.7l.6-.5.9-.2c.4 0 .8.1 1 .3.4.2.6.5.6.9h.1a46.9 46.9 0 010-.7V205h1.2v7.9h-1.2v-1c-.1.3-.3.6-.6.8-.3.2-.7.3-1.1.3-.3 0-.6 0-.9-.2-.2 0-.4-.2-.6-.4l-.4-.8-.2-1v-1.5zm1.2 0v1.5c0 .4.1.7.4 1 .2.2.5.4 1 .4.3 0 .6-.2.8-.4.3-.3.4-.6.4-1v-1.5c0-.4-.1-.7-.4-1-.2-.2-.5-.3-.9-.3s-.7.1-1 .3c-.2.3-.3.6-.3 1zm5.4 0c0-.4 0-.7.2-1 0-.3.2-.5.4-.7l.6-.5.9-.2c.4 0 .8.1 1 .3.4.2.6.5.6.9h.1a46.9 46.9 0 000-.7V205h1.2v7.9h-1.2v-1c-.1.3-.3.6-.6.8-.3.2-.7.3-1.1.3-.3 0-.6 0-.9-.2-.2 0-.4-.2-.6-.4l-.4-.8-.2-1v-1.5zm1.2 0v1.5c0 .4.1.7.4 1 .2.2.5.4 1 .4.3 0 .6-.2.8-.4.3-.3.4-.6.4-1v-1.5c0-.4-.1-.7-.4-1-.2-.2-.5-.3-.9-.3s-.7.1-1 .3c-.2.3-.3.6-.3 1zm7-2.3v1c.1-.3.3-.6.6-.8a2 2 0 011.1-.3 2 2 0 011.5.6c.4.4.6 1 .6 1.7v.4h-1.3v-.3c0-.4 0-.7-.3-1-.2-.2-.6-.3-1-.3-.3 0-.6 0-.9.3-.2.3-.3.6-.3 1v3.8H379v-6h1.1zm5 2.3c0-.4 0-.7.2-1l.5-.7.8-.5 1-.2c.4 0 .8 0 1.1.2l.8.5.5.7.2 1v1h-3.9v.5c0 .5.1.8.4 1 .2.3.5.4 1 .4l.8-.1.5-.5h1.1c0 .3-.1.5-.3.7l-.5.5-.8.3a3.4 3.4 0 01-1.9 0l-.8-.5a2.2 2.2 0 01-.7-1.7v-1.6zm1.2.2h2.7v-.2c0-.4-.1-.8-.4-1-.2-.2-.5-.3-1-.3-.4 0-.7 0-1 .3-.2.2-.3.6-.3 1v.2zm5.4 2h1.2c0 .3.2.4.4.6l.7.1h.4c.4 0 .7 0 .9-.2.2-.1.3-.3.3-.6 0-.4-.3-.7-1-.8l-.9-.1c-.6 0-1.1-.3-1.4-.6-.3-.3-.5-.7-.5-1.2 0-.6.2-1 .6-1.3.4-.3 1-.5 1.7-.5h.4c.6 0 1.1.2 1.5.5.4.2.7.6.7 1.1h-1.2c0-.2-.2-.3-.3-.4l-.7-.2h-.4c-.4 0-.6 0-.8.2-.2.1-.3.3-.3.6 0 .2 0 .4.2.5l.7.2.9.1c.7.1 1.2.3 1.5.6.3.3.5.7.5 1.3 0 .6-.2 1-.6 1.3-.4.4-1 .5-1.8.5h-.4c-.6 0-1.2-.1-1.6-.4-.4-.3-.7-.7-.7-1.2zm6.6 0h1.2c0 .3.2.4.4.6l.7.1h.4c.4 0 .7 0 .9-.2.2-.1.3-.3.3-.6 0-.4-.3-.7-1-.8l-.9-.1c-.6 0-1.1-.3-1.4-.6-.3-.3-.5-.7-.5-1.2 0-.6.2-1 .6-1.3.4-.3 1-.5 1.7-.5h.4c.6 0 1.1.2 1.5.5.4.2.7.6.7 1.1h-1.2c0-.2-.2-.3-.4-.4l-.6-.2h-.4c-.4 0-.6 0-.8.2-.2.1-.3.3-.3.6 0 .2 0 .4.2.5l.7.2.9.1c.7.1 1.2.3 1.5.6.3.3.5.7.5 1.3 0 .6-.2 1-.6 1.3-.4.4-1 .5-1.8.5h-.4c-.6 0-1.2-.1-1.6-.4-.4-.3-.7-.7-.7-1.2z" fill="#fff"/>
  <path d="M307 155c0-1.1.9-2 2-2h77a2 2 0 012 2v14a2 2 0 01-2 2h-77a2 2 0 01-2-2v-14z" fill="#000"/>
  <path d="M311.7 164h1.2c0 .3.2.5.4.7.3.2.6.3 1 .3.5 0 .8 0 1-.2.3-.2.4-.5.4-.8 0-.3 0-.6-.3-.8-.1-.2-.4-.4-.7-.5l-.9-.3c-.6-.2-1.1-.5-1.4-.9-.4-.3-.5-.8-.5-1.4l.1-.9.5-.6.8-.5 1-.1 1 .1a2 2 0 011.5 2h-1.2a1 1 0 00-.4-.8c-.2-.2-.5-.3-.9-.3s-.7.1-.9.3a1 1 0 00-.3.8c0 .2 0 .5.2.7l.8.4 1 .3c.6.2 1 .5 1.3 1 .4.3.5.8.5 1.4 0 .3 0 .6-.2 1 0 .2-.3.4-.5.6l-.8.5-1.1.1-1-.1c-.4-.1-.6-.3-.9-.5l-.5-.7-.2-.9zm6.7-1.8l.1-1 .5-.7.8-.5 1.1-.2c.4 0 .7 0 1 .2.4.1.6.3.8.5l.6.7.1 1v1h-3.8v.5c0 .5 0 .8.3 1 .2.3.6.4 1 .4l.8-.1.5-.5h1.2c0 .3-.2.5-.3.7l-.6.5-.7.3a3.4 3.4 0 01-2 0l-.8-.5a2.2 2.2 0 01-.6-1.7v-1.6zm1.2.2h2.6v-.2c0-.4 0-.8-.3-1-.2-.2-.6-.3-1-.3s-.8 0-1 .3c-.2.2-.3.6-.3 1v.2zm5.5-2.5h1.1v1h.1c0-.3.3-.6.5-.8.3-.2.7-.3 1.1-.3a2 2 0 011.5.6l.4.7.1 1v3.9h-1.2v-3.8c0-.4-.1-.8-.3-1-.2-.2-.5-.3-.9-.3s-.7 0-.9.3c-.2.3-.3.6-.3 1v3.8H325v-6zm6.4 2.3c0-.4 0-.7.2-1 0-.3.2-.5.4-.7l.7-.5.8-.2c.5 0 .8.1 1.1.3.3.2.5.5.6.9v-.4-.3-2.2h1.2v7.9h-1.1v-1h-.1c-.1.3-.3.6-.6.8-.3.2-.6.3-1 .3s-.7 0-1-.2c-.2 0-.4-.2-.6-.4l-.4-.8-.2-1v-1.5zm1.3 0v1.5c0 .4 0 .7.3 1 .2.2.6.4 1 .4.3 0 .6-.2.9-.4.2-.3.3-.6.3-1v-1.5c0-.4-.1-.7-.3-1-.3-.2-.6-.3-1-.3-.3 0-.7.1-.9.3-.2.3-.3.6-.3 1zm5.3 0l.2-1 .5-.7.8-.5 1-.2c.5 0 .8 0 1.1.2l.8.5c.3.2.4.4.5.7.2.3.2.6.2 1v1h-3.9v.5c0 .5.2.8.4 1 .2.3.6.4 1 .4l.8-.1.5-.5h1.2l-.3.7-.6.5-.7.3a3.4 3.4 0 01-2 0l-.8-.5a2.2 2.2 0 01-.7-1.7v-1.6zm1.2.2h2.7v-.2c0-.4 0-.8-.3-1-.3-.2-.6-.3-1-.3s-.8 0-1 .3c-.2.2-.4.6-.4 1v.2zm7-2.5v1c.1-.3.3-.6.6-.8a2 2 0 011.1-.3 2 2 0 011.5.6c.4.4.6 1 .6 1.7v.4h-1.2v-.3c0-.4-.2-.7-.4-1-.2-.2-.5-.3-1-.3-.3 0-.6 0-.8.3-.3.3-.4.6-.4 1v3.8h-1.2v-6h1.1zm11.7 0h1.2v1c.2-.3.3-.6.6-.8.3-.2.7-.3 1.1-.3a2 2 0 011.5.6l.4.7v4.9h-1.1v-3.8c0-.4-.1-.8-.3-1-.3-.2-.5-.3-1-.3-.3 0-.6 0-.8.3-.2.3-.4.6-.4 1v3.8H358v-6zm6.4 4.4c0-.6.2-1 .6-1.4.4-.4 1-.5 1.6-.5h1.7v-.5c0-.4-.1-.6-.4-.8-.2-.2-.5-.3-.9-.3-.3 0-.6 0-.8.2-.2.1-.4.3-.4.5h-1.2c0-.5.3-1 .8-1.2.4-.3 1-.5 1.6-.5.8 0 1.4.2 1.8.6.5.3.7.8.7 1.4v4.2h-1.1v-1.2h-.1c0 .4-.3.7-.7 1-.3.2-.7.3-1.2.3a2 2 0 01-1.5-.5c-.3-.3-.5-.8-.5-1.3zm1.2-.1c0 .3 0 .5.3.7.2.2.5.2.8.2h.7l.4-.3.4-.4V163.2h-1.5c-.4 0-.6 0-.8.3-.2.1-.3.4-.3.7zm5.4 1.8v-6h1v.8c0-.3.2-.5.3-.7.2-.2.5-.3.7-.3.3 0 .5.1.7.3l.4.7c0-.3.2-.5.3-.7.2-.2.4-.3.7-.3.4 0 .7.2 1 .5.2.2.3.6.3 1v4.7h-1.1v-4.6c0-.2 0-.4-.2-.5l-.4-.2c-.4 0-.6.3-.6.8v4.5h-.9v-4.6l-.1-.5-.5-.2c-.4 0-.5.3-.5.8v4.5H371zm6.7-3.8c0-.4 0-.7.2-1l.5-.7.8-.5 1-.2c.4 0 .8 0 1.1.2l.8.5.5.7.2 1v1h-3.9v.5c0 .5.1.8.4 1 .2.3.5.4 1 .4l.8-.1.5-.5h1.1a2 2 0 01-.8 1.2l-.8.3a3.4 3.4 0 01-1.9 0l-.8-.5a2.2 2.2 0 01-.7-1.7v-1.6zm1.2.2h2.7v-.2c0-.4-.1-.8-.4-1-.2-.2-.5-.3-1-.3-.4 0-.7 0-1 .3-.2.2-.3.6-.3 1v.2z" fill="#fff"/>
  <path fill="#0FFC03" fill-opacity=".1" d="M3 58.2h146v77.6H3z"/>
  <path stroke="#0FFC03" stroke-opacity=".8" d="M3.5 58.7h145v76.6H3.5z"/>
  <circle cx="147.5" cy="60.5" r="3.5" fill="#fff" stroke="#000" stroke-width="2"/>
  <circle cx="147.5" cy="133.5" r="3.5" fill="#fff" stroke="#000" stroke-width="2"/>
  <circle cx="4.5" cy="133.5" r="3.5" fill="#fff" stroke="#000" stroke-width="2"/>
  <circle cx="4.5" cy="60.5" r="3.5" fill="#fff" stroke="#000" stroke-width="2"/>
  <path d="M9 40c0-1.1.9-2 2-2h64a2 2 0 012 2v14a2 2 0 01-2 2H11a2 2 0 01-2-2V40z" fill="#000"/>
  <path d="M16.5 43c.3 0 .7.1 1 .3.3 0 .6.2.8.4l.5.8.2 1c0 .5-.1 1-.4 1.3-.3.4-.7.7-1.1.8L19 51h-1.4l-1.4-3.2H15V51h-1.2v-8h2.6zM15 46.9h1.4c.4 0 .7-.2 1-.4.1-.2.3-.5.3-1 0-.3-.2-.7-.4-1-.2-.2-.5-.3-1-.3h-1.3v2.7zm5.3.4l.1-1 .5-.7.8-.5 1.1-.2 1 .2c.4.1.6.3.8.5.3.2.4.4.5.7.2.3.2.6.2 1v1h-3.8v.5c0 .5 0 .8.3 1 .2.3.6.4 1 .4l.8-.1.5-.5h1.2a2 2 0 01-.9 1.2l-.7.3a3.4 3.4 0 01-2 0l-.8-.5a2.2 2.2 0 01-.6-1.7v-1.6zm1.2.2h2.6v-.2c0-.4 0-.8-.3-1-.2-.2-.6-.3-1-.3s-.8 0-1 .3c-.2.2-.3.6-.3 1v.2zm8 3.7c-.4 0-.8 0-1-.2-.4 0-.7-.2-.9-.4a2 2 0 01-.5-.8l-.2-1v-1.5l.2-1 .5-.7.8-.5a3.2 3.2 0 012 0 2.3 2.3 0 011.6 2H31c0-.4-.2-.6-.4-.8-.3-.2-.6-.3-1-.3-.3 0-.7.1-1 .3-.1.3-.3.6-.3 1v1.5c0 .5.2.8.4 1 .2.2.6.3 1 .3.3 0 .6 0 .9-.2l.4-.8h1.2a2.4 2.4 0 01-2.5 2.1zm4.2-1.2h2.1V46H34v-1h3.1v4.9H39V51h-5.1v-1.1zm1.7-6.6c0-.2 0-.4.2-.5l.6-.2h.2c.2 0 .4 0 .6.2l.2.5-.2.5-.6.2h-.2c-.3 0-.5 0-.6-.2a.7.7 0 01-.2-.5zm4.8 1.7h1.1v1h.1c0-.4.3-.7.6-.9.2-.2.6-.3 1-.3l.9.2.7.5.4.7.1 1v1.5l-.1 1a2 2 0 01-.4.8l-.7.4c-.3.2-.5.2-.8.2a2 2 0 01-1.1-.3c-.3-.2-.5-.5-.6-.8v.3a37.5 37.5 0 010 .7v1.9h-1.2v-8zm1.2 2.2v1.5c0 .4 0 .7.3 1 .2.2.5.4 1 .4.3 0 .6-.2.9-.4.2-.3.3-.6.3-1v-1.5c0-.4-.1-.7-.3-1-.3-.2-.6-.3-1-.3s-.7.1-.9.3c-.2.3-.3.6-.3 1zM47 50H49V46h-1.9v-1h3.1v4.9h1.8V51H47v-1.1zm1.7-6.6c0-.2 0-.4.2-.5l.5-.2h.3c.2 0 .4 0 .5.2.2.1.3.3.3.5s-.1.4-.3.5l-.5.2h-.3c-.2 0-.4 0-.5-.2a.7.7 0 01-.2-.5zm4.6 3.9c0-.4 0-.7.2-1l.5-.7.8-.5 1-.2 1.1.2.8.5.5.7.2 1v1h-3.9v.5c0 .5.1.8.4 1 .2.3.6.4 1 .4l.8-.1.5-.5h1.2a2 2 0 01-1 1.2l-.6.3a3.4 3.4 0 01-2 0l-.8-.5a2.2 2.2 0 01-.7-1.7v-1.6zm1.2.2h2.7v-.2c0-.4-.1-.8-.3-1-.3-.2-.6-.3-1-.3-.5 0-.8 0-1 .3-.3.2-.4.6-.4 1v.2zM60 45h1.2v1c.2-.4.3-.7.6-.9.3-.2.7-.3 1.1-.3a2 2 0 011.5.6l.4.7V51h-1.1v-3.8c0-.4-.1-.8-.3-1-.3-.2-.5-.3-1-.3-.3 0-.6 0-.8.3-.2.3-.4.6-.4 1V51H60v-6zm6.3 0H68v-2h1.3v2h2.3v1h-2.3v3.3l.1.4.5.2h1.6V51h-1.6c-.6 0-1-.2-1.4-.5-.3-.3-.5-.7-.5-1.2V46h-1.7v-1z" fill="#fff"/>
  <path fill="#0FFC03" fill-opacity=".1" d="M3 218.1h146v39.7H3z"/>
  <path stroke="#0FFC03" stroke-opacity=".8" d="M3.5 218.6h145v38.7H3.5z"/>
  <circle cx="147.5" cy="221.5" r="3.5" fill="#fff" stroke="#000" stroke-width="2"/>
  <circle cx="147.5" cy="254.5" r="3.5" fill="#fff" stroke="#000" stroke-width="2"/>
  <circle cx="4.5" cy="254.5" r="3.5" fill="#fff" stroke="#000" stroke-width="2"/>
  <circle cx="4.5" cy="221.5" r="3.5" fill="#fff" stroke="#000" stroke-width="2"/>
  <path d="M3 204c0-1.1.9-2 2-2h117a2 2 0 012 2v14a2 2 0 01-2 2H5a2 2 0 01-2-2v-14z" fill="#000"/>
  <path d="M10.5 207c.3 0 .7.1 1 .3.3 0 .6.2.8.4l.5.8.2 1c0 .5-.1 1-.4 1.3-.3.4-.7.7-1.1.8L13 215h-1.4l-1.4-3.2H9v3.2H7.9v-8h2.6zM9 210.9h1.4c.4 0 .7-.2 1-.4.1-.2.3-.5.3-1 0-.3-.2-.7-.4-1-.2-.2-.5-.3-1-.3H9.2v2.7zm5.3.4l.1-1 .5-.7.8-.5 1.1-.2c.4 0 .7 0 1 .2.4.1.6.3.8.5.3.2.4.4.5.7.2.3.2.6.2 1v1h-3.8v.5c0 .5 0 .8.3 1 .2.3.6.4 1 .4l.8-.1.5-.5h1.2a2 2 0 01-.9 1.2l-.7.3a3.4 3.4 0 01-2 0l-.8-.5a2.2 2.2 0 01-.6-1.7v-1.6zm1.2.2h2.6v-.2c0-.4 0-.8-.3-1-.2-.2-.6-.3-1-.3s-.8 0-1 .3c-.2.2-.3.6-.3 1v.2zm8 3.7c-.4 0-.8 0-1-.2-.4 0-.7-.2-.9-.4a2 2 0 01-.5-.8l-.2-1v-1.5l.2-1 .5-.7.8-.5a3.2 3.2 0 012 0 2.3 2.3 0 011.6 2H25c0-.4-.2-.6-.4-.8-.3-.2-.6-.3-1-.3-.3 0-.7.1-1 .3-.1.3-.3.6-.3 1v1.5c0 .5.2.8.4 1 .2.2.6.3 1 .3.3 0 .6 0 .9-.2l.4-.8h1.2a2.4 2.4 0 01-2.5 2.1zm4.2-1.2h2.1V210H28v-1h3.1v4.9H33v1.1h-5.1v-1.1zm1.7-6.6c0-.2 0-.4.2-.5l.6-.2h.2c.2 0 .4 0 .6.2l.2.5-.2.5-.6.2h-.2c-.3 0-.5 0-.6-.2a.7.7 0 01-.2-.5zm4.8 1.6h1.1v1h.1c0-.3.3-.6.6-.8.2-.2.6-.3 1-.3s.6 0 .9.2l.7.5.4.7.1 1v1.5l-.1 1a2 2 0 01-.4.8l-.7.4c-.3.2-.5.2-.8.2a2 2 0 01-1.1-.3c-.3-.2-.5-.5-.6-.8v.3a39.1 39.1 0 010 .7v1.9h-1.2v-8zm1.2 2.3v1.5c0 .4 0 .7.3 1 .2.2.5.4 1 .4.3 0 .6-.2.9-.4.2-.3.3-.6.3-1v-1.5c0-.4-.1-.7-.3-1-.3-.2-.6-.3-1-.3s-.7.1-.9.3c-.2.3-.3.6-.3 1zM41 214H43V210h-1.9v-1h3.1v4.9h1.8v1.1H41v-1.1zm1.7-6.6c0-.2 0-.4.2-.5l.5-.2h.3c.2 0 .4 0 .5.2.2.1.3.3.3.5s-.1.4-.3.5l-.5.2h-.3c-.2 0-.4 0-.5-.2a.7.7 0 01-.2-.5zm4.6 3.9c0-.4 0-.7.2-1l.5-.7.8-.5 1-.2c.5 0 .8 0 1.1.2l.8.5.5.7.2 1v1h-3.9v.5c0 .5.1.8.4 1 .2.3.6.4 1 .4l.8-.1.5-.5h1.2a2 2 0 01-1 1.2l-.6.3a3.4 3.4 0 01-2 0l-.8-.5a2.2 2.2 0 01-.7-1.7v-1.6zm1.2.2h2.7v-.2c0-.4-.1-.8-.3-1-.3-.2-.6-.3-1-.3-.5 0-.8 0-1 .3-.3.2-.4.6-.4 1v.2zM54 209h1.2v1c.2-.3.3-.6.6-.8.3-.2.7-.3 1.1-.3a2 2 0 011.5.6l.4.7v4.9h-1.1v-3.8c0-.4-.1-.8-.3-1-.3-.2-.5-.3-1-.3-.3 0-.6 0-.8.3-.2.3-.4.6-.4 1v3.8H54v-6zm6.3 0H62v-1.8h1.3v1.8h2.3v1.1h-2.3v3.3l.1.4.5.2h1.6v1.1h-1.6c-.6 0-1-.2-1.4-.5-.3-.3-.5-.7-.5-1.2V210h-1.7v-1zm15.2-1.8H77l2 7.9H78l-.5-2.1h-2.3l-.5 2.1h-1.3l2.2-8zm1.7 4.8l-.7-3a4.9 4.9 0 01-.2-.7v-.3a7.5 7.5 0 01-.3 1l-.7 3h1.9zm3.1-.7c0-.4 0-.7.2-1 0-.3.2-.5.4-.7l.6-.5.9-.2c.4 0 .8.1 1 .3.4.2.5.5.6.9h.1a468.7 468.7 0 000-.7V207h1.2v7.9H84v-1c-.2.3-.3.6-.6.8-.3.2-.7.3-1.1.3-.3 0-.6 0-.9-.2-.2 0-.4-.2-.6-.4l-.4-.8-.2-1v-1.5zm1.2 0v1.5c0 .4.1.7.4 1 .2.2.5.4 1 .4.3 0 .6-.2.8-.4.3-.3.4-.6.4-1v-1.5c0-.4-.1-.7-.4-1-.2-.2-.5-.3-.9-.3s-.7.1-1 .3c-.2.3-.3.6-.3 1zm5.4 0c0-.4 0-.7.2-1 0-.3.2-.5.4-.7l.6-.5.9-.2c.4 0 .8.1 1 .3.4.2.5.5.6.9h.1a468.7 468.7 0 000-.7V207h1.2v7.9h-1.2v-1c-.2.3-.3.6-.6.8-.3.2-.7.3-1.1.3-.3 0-.6 0-.9-.2-.2 0-.4-.2-.6-.4l-.4-.8-.2-1v-1.5zm1.2 0v1.5c0 .4.1.7.4 1 .2.2.5.4 1 .4.3 0 .6-.2.8-.4.3-.3.4-.6.4-1v-1.5c0-.4-.1-.7-.4-1-.2-.2-.5-.3-.9-.3s-.7.1-1 .3c-.2.3-.3.6-.3 1zm7-2.3v1c0-.3.3-.6.6-.8a2 2 0 011-.3 2 2 0 011.6.6c.4.4.6 1 .6 1.7v.4h-1.3v-.3c0-.4-.1-.7-.3-1-.3-.2-.6-.3-1-.3-.3 0-.7 0-.9.3-.2.3-.3.6-.3 1v3.8h-1.2v-6H95zm5 2.3c0-.4 0-.7.2-1 0-.3.3-.5.5-.7l.8-.5 1-.2c.4 0 .8 0 1 .2.4.1.7.3.9.5l.5.7.2 1v1h-3.9v.5c0 .5.1.8.4 1 .2.3.5.4 1 .4l.7-.1c.3-.1.4-.3.5-.5h1.2a2 2 0 01-.8 1.2l-.8.3a3.4 3.4 0 01-2 0l-.7-.5a2.2 2.2 0 01-.7-1.7v-1.6zm1.2.2h2.7v-.2c0-.4-.1-.8-.4-1-.2-.2-.5-.3-1-.3-.4 0-.7 0-1 .3-.2.2-.3.6-.3 1v.2zm5.4 2h1.2c0 .3.2.4.4.6l.7.1h.4c.4 0 .7 0 .9-.2.2-.1.3-.3.3-.6 0-.4-.4-.7-1-.8l-.9-.1c-.6 0-1.1-.3-1.4-.6-.3-.3-.5-.7-.5-1.2 0-.6.2-1 .6-1.3.4-.3 1-.5 1.7-.5h.4c.6 0 1.1.2 1.5.5.4.2.6.6.7 1.1h-1.2c0-.2-.2-.3-.4-.4l-.6-.2h-.4c-.4 0-.6 0-.8.2-.2.1-.3.3-.3.6 0 .2 0 .4.2.5l.7.2.9.1c.7.1 1.2.3 1.5.6.3.3.5.7.5 1.3 0 .6-.2 1-.6 1.3-.4.4-1 .5-1.8.5h-.4c-.6 0-1.2-.1-1.6-.4-.4-.3-.7-.7-.7-1.2zm6.6 0h1.2c0 .3.2.4.4.6l.7.1h.4c.4 0 .7 0 .9-.2.2-.1.3-.3.3-.6 0-.4-.4-.7-1-.8l-.9-.1c-.6 0-1.1-.3-1.4-.6-.3-.3-.5-.7-.5-1.2 0-.6.2-1 .6-1.3.4-.3 1-.5 1.7-.5h.4c.6 0 1.1.2 1.5.5.4.2.6.6.7 1.1h-1.2c0-.2-.2-.3-.4-.4l-.6-.2h-.4c-.4 0-.6 0-.8.2-.2.1-.3.3-.3.6 0 .2 0 .4.2.5l.7.2.9.1c.6.1 1.2.3 1.5.6.3.3.5.7.5 1.3 0 .6-.2 1-.6 1.3-.4.4-1 .5-1.8.5h-.4c-.7 0-1.2-.1-1.6-.4-.4-.3-.7-.7-.7-1.2z" fill="#fff"/>
</svg>
