<svg width="112" height="30" viewBox="0 0 112 30" fill="none" xmlns="http://www.w3.org/2000/svg">
<g clip-path="url(#clip0)">
<path d="M32.0227 5.03895H33.6578C33.8565 5.03895 33.9943 5.23799 33.923 5.42493C30.6693 13.9594 24.4688 29.5618 22.6213 29.5618H20.8825C20.7434 29.5618 20.6814 29.3915 20.7844 29.2973C20.9842 29.1144 21.2091 28.8407 21.4546 28.4894C24.0271 24.8066 28.901 12.4813 31.6349 5.30585C31.6967 5.14359 31.8504 5.03895 32.0227 5.03895ZM1.93551 0C2.11119 0 2.26788 0.108337 2.32885 0.272943C3.29793 2.88899 10.9968 23.5291 14.4884 28.4894C14.7358 28.8407 14.9623 29.1144 15.1637 29.2973C15.2675 29.3915 15.205 29.5618 15.0648 29.5618H13.3127C10.9228 29.5618 1.29965 3.83733 0.0180058 0.38212C-0.0511903 0.195511 0.0877056 0 0.286728 0H1.93551ZM38.6946 0H40.3434C40.5425 0 40.6813 0.195511 40.6122 0.38212C39.3305 3.83733 29.7074 29.5618 27.3174 29.5618H25.5654C25.4251 29.5618 25.3626 29.3915 25.4664 29.2973C25.6678 29.1144 25.8944 28.8407 26.1418 28.4894C29.6333 23.5291 37.3322 2.88899 38.3013 0.272943C38.3623 0.108337 38.519 0 38.6946 0ZM24.9503 10.3399C23.48 14.0772 21.7872 18.2304 20.2203 21.718C16.6222 13.708 12.3575 2.18019 11.6563 0.272103C11.5958 0.10733 11.4407 0 11.2664 0H9.63069C9.43327 0 9.29613 0.197359 9.36479 0.383968C10.2693 2.84163 15.3396 16.5086 19.054 24.235C18.6465 25.0827 18.2557 25.8569 17.888 26.5388C14.116 19.5427 7.8559 2.62563 6.9915 0.273111C6.93104 0.108505 6.77538 0 6.6011 0H4.96544C4.768 0 4.63104 0.197695 4.69952 0.384136C5.81821 3.42329 13.3029 23.5936 16.7215 28.4892C16.4763 28.8407 16.2515 29.1144 16.0518 29.2973C15.9488 29.3915 16.0108 29.5618 16.1499 29.5618H17.8879C19.4094 29.5618 23.8856 18.9689 27.2339 10.465C27.3074 10.2785 27.1699 10.0779 26.9708 10.0779L25.3349 10.0777C25.1649 10.0777 25.0129 10.1807 24.9503 10.3399Z" fill="#0A50FF"/>
<path d="M81.349 16.6892C81.4131 15.3667 82.2663 14.3903 84.1956 13.9784C84.7154 13.8674 86.3804 13.6076 86.9567 13.518C87.9935 13.3563 88.1988 13.0951 88.174 12.7657C88.099 11.7914 87.3963 11.3012 85.7192 11.3179C84.0854 11.3339 83.4023 12.0846 83.404 13.058C83.404 13.1151 83.366 13.1534 83.3094 13.1535L81.6756 13.1559C81.619 13.1561 81.5804 13.118 81.5804 13.0607C81.5769 10.8089 83.5702 9.69904 85.7163 9.69581C88.3379 9.69177 89.9735 10.8915 89.9769 13.2195L89.9827 16.9598C89.9838 17.5514 90.06 17.9138 90.8008 17.9126L91.1619 17.9121C91.219 17.9121 91.2571 17.9503 91.2571 18.0074L91.2594 19.4387C91.2594 19.4959 91.2213 19.5341 91.1642 19.5342L90.4806 19.5352C89.4738 19.5558 88.8842 19.2704 88.5986 18.6603C88.5606 18.5649 88.4654 18.5841 88.4273 18.6224C87.9721 19.1002 86.8148 19.7316 85.0667 19.7343C85.065 19.7343 85.0638 19.7341 85.0615 19.7341C82.5196 19.736 81.2711 18.307 81.349 16.6892ZM88.2554 15.1262C88.2554 14.9931 88.2542 14.8502 88.0996 14.8677L85.4233 15.2522C83.6694 15.5036 83.1127 16.0549 83.1138 16.7733C83.1144 17.4603 83.5258 18.1146 85.0454 18.1124C87.2538 18.109 88.2583 17.0263 88.2554 15.1262ZM80.9106 9.86312C80.9677 9.86312 81.0248 9.90062 81.0058 9.95733L76.3235 23.6168C76.2969 23.6948 76.2231 23.7474 76.14 23.7475L74.7029 23.7497C74.5708 23.75 74.4767 23.6218 74.5177 23.4973L75.5267 20.4807C75.54 20.441 75.5394 20.3981 75.5256 20.3585L71.9394 9.971C71.9204 9.89566 71.9965 9.87662 72.0536 9.87645L73.7867 9.87379C73.8438 9.87379 73.8629 9.91147 73.8825 9.96818L76.3892 17.5519C76.4273 17.6463 76.5415 17.6461 76.5796 17.5518L79.0823 9.96033C79.1013 9.90362 79.1204 9.86583 79.1769 9.86583L80.9106 9.86312ZM106.955 11.3181C105.114 11.3209 104.263 12.9443 104.264 13.8412C104.264 13.8986 104.321 13.9367 104.359 13.9367L109.521 13.9287C109.577 13.9286 109.615 13.8904 109.615 13.8332C109.614 12.7454 108.834 11.3152 106.955 11.3181ZM104.267 15.4635C104.268 16.8566 105.276 18.1147 106.965 18.1121C108.313 18.1101 108.976 17.5366 109.373 16.7725C109.411 16.6961 109.449 16.6769 109.506 16.6769L111.194 16.6742C111.252 16.6742 111.309 16.6933 111.29 16.7696C110.799 18.6407 109.112 19.7309 106.967 19.7343C104.121 19.7387 102.353 17.6994 102.349 14.7221C102.344 11.726 104.011 9.70037 106.952 9.69581C109.912 9.69143 111.586 11.7308 111.59 14.708C111.59 14.8988 111.572 15.1088 111.534 15.2615C111.515 15.3189 111.496 15.3569 111.439 15.3571L104.361 15.3679C104.304 15.3681 104.266 15.4063 104.267 15.4635ZM96.4806 18.1887C98.2096 18.186 99.195 16.7875 99.1921 14.824C99.1892 12.8605 98.1992 11.4649 96.4696 11.4676C94.646 11.4703 93.5654 12.869 93.5683 14.8325C93.5711 16.796 94.6563 18.1916 96.4806 18.1887ZM96.5417 22.3123C98.5044 22.3093 99.2013 20.949 99.1996 19.6273L99.1979 18.7322C99.1979 18.6566 99.0836 18.5812 99.0081 18.6947C98.7992 18.9593 97.6229 19.7917 96.2931 19.7937C93.7085 19.7977 91.7677 17.7805 91.7631 14.8353C91.7585 11.8902 93.5036 9.86733 96.2775 9.86312C97.2277 9.86162 98.4635 10.3884 98.996 10.9162C99.0531 10.9729 99.1483 11.0104 99.1863 10.897L99.375 10.1416C99.394 10.0849 99.4131 10.0472 99.4696 10.047L100.895 10.0449C100.952 10.0449 100.99 10.0826 100.99 10.1391L101.005 19.6246C101.008 22.1734 99.1488 23.9132 96.544 23.917C94.26 23.9205 92.471 22.6205 92.3169 21.1103C92.3169 21.0537 92.3544 21.016 92.4115 21.0158L94.0644 21.0133C94.1215 21.0131 94.1406 21.051 94.1596 21.1075C94.3125 21.5416 95.0152 22.3145 96.5417 22.3123ZM66.8908 11.3181C65.0885 11.3209 63.99 12.7348 63.9929 14.7196C63.9963 16.7044 65.0988 18.1149 66.9011 18.1121C68.7219 18.1094 69.8013 16.6955 69.7985 14.7107C69.795 12.7259 68.7115 11.3154 66.8908 11.3181ZM66.9035 19.7343C63.9248 19.7388 62.1952 17.6994 62.1911 14.7223C62.1865 11.7261 63.9098 9.70054 66.8879 9.69581C69.8475 9.69143 71.5956 11.7307 71.6002 14.708C71.6048 17.6851 69.8625 19.7297 66.9035 19.7343ZM56.1325 19.567C56.0752 19.567 56.0372 19.5294 56.0179 19.473L52.7846 10.138C52.7654 10.0627 52.8414 10.0438 52.8986 10.0438L54.632 10.0411C54.6892 10.0411 54.7082 10.0787 54.7274 10.1351L57.2344 17.7011C57.2724 17.7952 57.3868 17.7951 57.4248 17.7007L59.9273 10.1272C59.9463 10.0707 59.9654 10.0331 60.0225 10.0331L61.7561 10.0304C61.8133 10.0303 61.8704 10.0679 61.8513 10.1244L58.6465 19.469C58.6275 19.5255 58.6085 19.5633 58.5513 19.5633L56.1325 19.567Z" fill="black"/>
</g>
<defs>
<clipPath id="clip0">
<rect width="111.923" height="30" fill="white"/>
</clipPath>
</defs>
</svg>
