<svg width="95" height="30" viewBox="0 0 95 30" fill="none" xmlns="http://www.w3.org/2000/svg">
<path fill-rule="evenodd" clip-rule="evenodd" d="M15.8156 24.8051C15.2731 24.168 14.3684 24.0631 13.5849 24.0976C12.8924 24.1459 12.1929 24.3472 11.7853 24.954C11.5209 25.3456 11.4563 25.9938 11.6421 26.4241C11.9093 26.9371 12.4848 27.1675 13.0108 27.315C13.2046 27.3713 13.4154 27.4105 13.6292 27.4503C14.0275 27.5243 14.4356 27.6001 14.7608 27.7922C15.1464 28.0238 15.0404 28.6582 14.6273 28.7906C13.9843 28.9837 13.2228 28.9713 12.7381 28.4417C12.7326 28.3176 12.7285 28.1935 12.7244 28.068C12.2645 28.0625 11.8059 28.0625 11.3461 28.0721L11.3594 28.1593C11.4218 28.5677 11.4786 28.9405 11.7757 29.265C12.3072 29.8691 13.2366 30.0153 13.998 29.9946C14.7994 29.9683 15.6476 29.7587 16.102 29.0375C16.4201 28.5024 16.4806 27.5881 15.9299 27.1771C15.3942 26.7568 14.808 26.6455 14.2046 26.5309C13.9566 26.4838 13.7057 26.4361 13.4541 26.3662C13.1044 26.2738 12.7093 25.9387 12.9406 25.5511C13.0039 25.3512 13.2559 25.2808 13.4349 25.2312C13.8149 25.1554 14.2473 25.1733 14.6025 25.3388C14.7091 25.4377 14.7622 25.5929 14.8126 25.7402C14.8332 25.8004 14.8533 25.8593 14.8765 25.9125C15.3171 25.9152 15.7591 25.9138 16.1998 25.896L16.1957 25.8668C16.1409 25.4741 16.091 25.116 15.8156 24.8051ZM40.8357 26.0435C40.5272 25.4491 40.2078 24.9057 39.613 24.5568C38.3435 23.7183 36.5273 24.0562 35.6474 25.2946C34.7387 26.5206 34.9466 28.3134 36.1101 29.2995C37.1401 30.1765 38.6877 30.2248 39.7754 29.4236C40.2877 29.0719 40.5603 28.5782 40.8329 28.039C40.3689 28.0196 39.9049 28.0238 39.4395 28.0335C39.4129 28.0673 39.3868 28.1013 39.3608 28.135L39.3606 28.1354C39.2129 28.3273 39.0688 28.5146 38.8639 28.654C38.192 29.0926 37.2061 28.9147 36.7628 28.2334C36.3221 27.5632 36.3221 26.6158 36.7187 25.9248C37.1153 25.216 38.0956 24.9871 38.7868 25.3898C39.0414 25.5447 39.2088 25.762 39.3856 25.9912C39.4039 26.015 39.4223 26.0388 39.4409 26.0628C39.9063 26.0669 40.3703 26.0641 40.8357 26.0435ZM43.0236 24.2521C43.0401 24.9816 43.0415 25.7111 43.0264 26.4393C43.8209 26.4531 44.6154 26.4503 45.4098 26.4393C45.3801 25.9136 45.3924 25.3902 45.4048 24.8658V24.8655V24.8653V24.865V24.8648C45.4096 24.6603 45.4144 24.4556 45.4167 24.2507C45.8188 24.259 46.2222 24.2603 46.6243 24.2521C46.6629 25.3616 46.6579 26.4727 46.6528 27.5837C46.6494 28.3328 46.6459 29.0818 46.6559 29.8305C46.2429 29.8305 45.8298 29.8332 45.4181 29.8442C45.3798 29.2655 45.3936 28.69 45.4076 28.1128V28.1127V28.1126V28.1125V28.1125V28.1122V28.1121V28.112V28.112C45.4121 27.9219 45.4168 27.7317 45.4195 27.5412C44.6849 27.5285 43.9503 27.5298 43.2157 27.5311L43.0319 27.5315L43.0328 27.686C43.0367 28.4039 43.0406 29.1207 43.0278 29.8387C42.6037 29.8291 42.1796 29.8305 41.7569 29.836C41.761 27.9756 41.7596 26.1152 41.7555 24.2548C42.1782 24.2617 42.6009 24.2617 43.0236 24.2521ZM8.34632 24.2602C7.55488 24.2615 6.76344 24.2628 5.97197 24.2534C5.96953 25.0801 5.97034 25.9068 5.97116 26.7335V26.7339C5.97218 27.7675 5.9732 28.801 5.96784 29.8345C6.70475 29.8298 7.44194 29.8306 8.17938 29.8315H8.17944H8.1795H8.17957H8.17963C8.96057 29.8324 9.74163 29.8333 10.5227 29.8276C10.5213 29.4718 10.5227 29.116 10.5282 28.7602C9.43157 28.7588 8.33494 28.7588 7.23825 28.7588H7.22775C7.22588 28.4861 7.22525 28.2133 7.22469 27.941V27.9408C7.22438 27.8042 7.22407 27.6678 7.22357 27.5315C7.51182 27.531 7.79988 27.5312 8.08788 27.5312H8.08869H8.08875H8.08882C8.73613 27.5315 9.38294 27.5317 10.0298 27.526C10.0284 27.1674 10.0298 26.8075 10.0339 26.4475C9.51507 26.4483 8.99619 26.4469 8.47738 26.4455H8.47575C8.06019 26.4445 7.64463 26.4433 7.22913 26.4433C7.22638 26.0738 7.225 25.7041 7.225 25.3346C7.65625 25.3357 8.08757 25.335 8.51882 25.3343C9.16569 25.3333 9.8125 25.3324 10.4594 25.3373L10.4601 25.1228C10.4609 24.8368 10.4618 24.5501 10.4663 24.2644C9.75963 24.2579 9.05294 24.2591 8.34632 24.2602ZM17.4156 24.2548L17.5313 24.2561L18.0198 24.2576H18.0199H18.0199H18.02C19.3221 24.2616 20.6241 24.2655 21.925 24.252C21.9278 24.612 21.9291 24.9719 21.9291 25.3318C20.8565 25.336 19.7826 25.3388 18.7086 25.3291V25.3295V25.33V25.3305V25.3309C18.7058 25.7013 18.703 26.0716 18.7058 26.442C19.2723 26.4479 19.8392 26.4466 20.4063 26.4453H20.4064H20.4066H20.4066C20.7714 26.4445 21.1361 26.4437 21.5009 26.4448V26.4471C21.4982 26.809 21.4954 27.1696 21.4954 27.5315C20.7992 27.5284 20.1037 27.53 19.4078 27.5315H19.4074H19.407H19.4056C19.1733 27.532 18.941 27.5325 18.7086 27.5328C18.7058 27.9425 18.7044 28.352 18.7058 28.763C19.4383 28.7575 20.1713 28.7581 20.9042 28.7587H20.9043H20.9043H20.9044C21.2708 28.759 21.6373 28.7593 22.0035 28.7588C22.0008 29.1174 22.0008 29.476 22.0049 29.8345C20.6951 29.8298 19.3844 29.8311 18.0734 29.8325H18.0733H18.0733H18.0731L17.417 29.8331C17.4211 27.9741 17.4239 26.1138 17.4156 24.2548ZM0.00440673 24.252C0.551752 24.2624 1.0991 24.2608 1.64644 24.2591H1.64701C2.0468 24.258 2.44659 24.2568 2.84638 24.2603C3.382 24.2838 3.92038 24.3445 4.31418 24.7471C4.77132 25.1581 4.78508 25.9386 4.65978 26.4944C4.53861 27.0005 4.1696 27.2488 3.73587 27.4763C3.74137 27.526 3.74688 27.5756 3.75239 27.6266C4.21504 28.3465 4.65978 29.0885 5.08663 29.8304C4.94138 29.8304 4.79564 29.8329 4.64974 29.8353H4.64965H4.64956H4.64947H4.64945H4.64944H4.64942C4.30582 29.8411 3.96132 29.8469 3.6202 29.8208C3.30789 29.4288 3.05385 28.9886 2.79968 28.5483C2.60675 28.214 2.41374 27.8796 2.19509 27.566C1.88529 27.5701 1.57547 27.5715 1.26567 27.5701C1.26273 27.9724 1.26293 28.3751 1.26312 28.778C1.26329 29.1305 1.26347 29.4833 1.26154 29.836C0.842954 29.8304 0.425745 29.8318 0.00853735 29.8373C-0.000314285 28.5075 0.00137178 27.1776 0.00305786 25.8478C0.00373229 25.3159 0.00440673 24.784 0.00440673 24.252ZM1.25877 25.336C1.46635 25.3389 1.67463 25.3361 1.88304 25.3333C2.26217 25.3282 2.64176 25.3231 3.01848 25.3525C3.15935 25.383 3.27188 25.5128 3.37473 25.6315H3.37477C3.41164 25.674 3.44727 25.7151 3.4825 25.7497C3.46323 25.9151 3.44532 26.0806 3.4288 26.2475C3.03696 26.567 2.48113 26.5441 1.94452 26.5219H1.94444H1.94442H1.9444C1.70983 26.5122 1.47894 26.5026 1.26703 26.522C1.26496 26.3246 1.26393 26.1268 1.2629 25.929C1.26187 25.7314 1.26084 25.5337 1.25877 25.336ZM31.2893 24.2588H31.2888C30.6918 24.2596 30.0946 24.2604 29.4981 24.2534C29.4953 25.1829 29.496 26.1127 29.4967 27.0426C29.4974 27.9724 29.4981 28.9023 29.4953 29.8318C29.6331 29.8322 29.7711 29.8328 29.9093 29.8335H29.9104H29.9116C30.1907 29.8346 30.4702 29.8359 30.7497 29.8359C30.7593 29.0815 30.7593 28.3272 30.7511 27.5742L30.9384 27.5735H30.9389C31.1879 27.5726 31.4374 27.5717 31.686 27.5673C31.9318 27.9396 32.1614 28.322 32.391 28.7043C32.6206 29.0867 32.8502 29.4691 33.096 29.8414C33.4429 29.8347 33.7899 29.834 34.1368 29.8333C34.2911 29.833 34.4453 29.8326 34.5996 29.8318C34.1218 29.0553 33.6468 28.2761 33.1855 27.4901C33.6178 27.2791 33.991 27.0543 34.1328 26.562C34.2829 25.9842 34.2664 25.1567 33.7913 24.7209C33.3975 24.3568 32.8275 24.2685 32.3125 24.2589C31.9716 24.2579 31.6304 24.2583 31.2893 24.2588ZM31.1999 25.3329C31.0513 25.3318 30.9026 25.3308 30.7538 25.3305C30.7538 25.7263 30.7524 26.1207 30.7497 26.5151C30.9241 26.5142 31.0988 26.5165 31.2734 26.5188H31.2736C31.6231 26.5234 31.9729 26.528 32.3208 26.5068C32.538 26.5037 32.6754 26.3948 32.8252 26.2761C32.8691 26.2414 32.9141 26.2058 32.9624 26.1717C32.9574 26.1253 32.9532 26.0783 32.949 26.0312C32.9371 25.898 32.9251 25.7636 32.8936 25.6353C32.8048 25.5406 32.7018 25.4572 32.6003 25.375L32.6 25.3748C32.5789 25.3578 32.5578 25.3407 32.5369 25.3236C32.0909 25.3391 31.6457 25.336 31.2 25.3329H31.1999ZM25.8854 24.2431H25.8855C26.0749 24.2448 26.2641 24.2465 26.4523 24.2424C26.755 25.004 27.0639 25.7633 27.3728 26.5227C27.8213 27.6251 28.2698 28.7276 28.6994 29.8373C28.2327 29.8332 27.7673 29.8318 27.3019 29.8332C27.1477 29.4264 26.9962 29.0182 26.8516 28.6072C26.0668 28.6017 25.2819 28.6003 24.4971 28.6072C24.4449 28.7517 24.3919 28.8957 24.3389 29.0398C24.2422 29.303 24.1454 29.5663 24.0537 29.8318H22.6451C22.8024 29.4395 22.9594 29.046 23.1168 28.652L23.1171 28.6512C23.7022 27.1857 24.2901 25.7131 24.8978 24.2645C25.2249 24.2373 25.5555 24.2402 25.8854 24.2431ZM25.6827 25.456C25.9347 26.1676 26.1866 26.8778 26.4799 27.5728C25.9596 27.6254 25.4393 27.6226 24.9163 27.62L24.8786 27.6198C25.1347 26.893 25.4087 26.1745 25.6827 25.456Z" fill="black"/>
<path fill-rule="evenodd" clip-rule="evenodd" d="M60.5326 24.161C61.3808 24.0106 62.3914 24.0644 63.0856 24.6312C63.4075 24.8876 63.4994 25.2493 63.5944 25.6205V25.6206C63.6163 25.7067 63.6388 25.7933 63.6638 25.8793C63.2188 25.9124 62.7744 25.922 62.3281 25.9165C62.3048 25.8675 62.283 25.8161 62.2611 25.7641V25.7641C62.2039 25.6287 62.1452 25.4896 62.0527 25.3801C61.7181 25.1401 61.1962 25.1566 60.8134 25.2476C60.5683 25.3153 60.2696 25.5125 60.3109 25.8048C60.2833 26.1427 60.6826 26.2971 60.9456 26.3785C61.1676 26.4382 61.3953 26.4823 61.6229 26.5265C62.2527 26.6485 62.8819 26.7704 63.3856 27.2211C64.0219 27.7369 63.8044 28.7546 63.35 29.316C62.8125 29.8496 61.9563 30.0138 61.2265 29.9945C60.5201 29.9834 59.7463 29.8496 59.2355 29.3187C58.9451 29.022 58.8741 28.6456 58.8011 28.2589H58.8011V28.2588C58.7893 28.1963 58.7774 28.1335 58.7646 28.0706C59.2038 28.0624 59.6431 28.0596 60.0809 28.0638C60.1101 28.1258 60.135 28.1883 60.1594 28.2493C60.2496 28.4758 60.3321 28.6828 60.6 28.7795C61.0764 28.9381 61.758 28.9822 62.1986 28.7064C62.4309 28.533 62.4129 28.3006 62.3939 28.056C62.3885 27.9875 62.3831 27.918 62.3831 27.8486C61.9428 27.6323 61.4814 27.538 61.0325 27.4462C60.4371 27.3245 59.8637 27.2073 59.3911 26.8157C58.8719 26.4158 58.8913 25.7303 59.095 25.1663C59.3443 24.6009 59.9404 24.2547 60.5326 24.161ZM50.2539 24.2644L50.2651 24.2642C50.6841 24.2574 51.1044 24.2505 51.5234 24.241C51.544 26.1082 51.5592 27.9824 51.5151 29.8483C51.0951 29.8386 50.6752 29.8303 50.2539 29.8221C50.2676 27.97 50.2676 26.1165 50.2539 24.2644ZM54.0899 24.2575C53.6755 24.2602 53.2624 24.2588 52.8479 24.2533C52.8228 24.8497 52.8288 25.4451 52.8349 26.0406C52.8388 26.4215 52.8426 26.8025 52.8383 27.1838C52.8399 27.4363 52.838 27.6879 52.8362 27.939V27.9391C52.8315 28.5783 52.8268 29.215 52.8783 29.8565C52.9914 29.8401 53.1324 29.8443 53.28 29.8487C53.5795 29.8576 53.9064 29.8674 54.0844 29.7076C54.0992 29.2504 54.0954 28.793 54.0917 28.3355C54.0868 27.7276 54.0818 27.1197 54.1203 26.5123C54.4548 27.027 54.812 27.5258 55.1693 28.0246H55.1693C55.4753 28.4518 55.7811 28.8788 56.0727 29.3159C56.1024 29.3537 56.132 29.3949 56.1624 29.4371C56.2661 29.5813 56.3783 29.7374 56.5285 29.811C56.8422 29.8529 57.1656 29.8428 57.4846 29.8328C57.5646 29.8303 57.6444 29.8278 57.7236 29.8261C57.7181 27.9727 57.7181 26.1178 57.7236 24.2643C57.2982 24.2588 56.8727 24.2602 56.4486 24.263C56.4514 25.3483 56.4528 26.4336 56.4404 27.5176C55.851 26.7531 55.2931 25.9613 54.7358 25.1701C54.5211 24.8653 54.3064 24.5605 54.0899 24.2575ZM64.5544 24.2602L65.7463 24.2614C66.9369 24.2627 68.1269 24.264 69.3175 24.263C69.315 24.4417 69.3138 24.6205 69.3119 24.7995C69.31 24.9766 69.3081 25.154 69.3063 25.3318C68.7269 25.3359 68.1481 25.3359 67.5688 25.3262C67.5613 25.882 67.5663 26.439 67.5713 26.9961V26.9963V26.9964V26.9965V26.9966V26.9968C67.58 27.9463 67.5881 28.8964 67.5369 29.8427C67.12 29.8345 66.7025 29.8317 66.2838 29.8303C66.3075 28.6226 66.3013 27.414 66.295 26.2053V26.2051C66.2938 25.9121 66.2919 25.6192 66.2906 25.3262H66.29C65.7069 25.3304 65.1231 25.3345 64.5394 25.3359C64.5463 24.9775 64.5506 24.6191 64.5544 24.2607V24.2606V24.2602ZM70.5025 24.2468C70.4263 24.2469 70.35 24.2469 70.2744 24.2464C70.2838 25.4273 70.2831 26.6087 70.2819 27.79V27.7901V27.7901C70.2819 28.474 70.2813 29.1578 70.2825 29.8413C70.715 29.8358 71.1475 29.8331 71.5813 29.8331C71.5581 29.0191 71.5638 28.2016 71.5694 27.3841V27.384V27.384V27.3839C71.5763 26.3524 71.5838 25.3208 71.5325 24.2961C71.195 24.2464 70.8469 24.2466 70.5025 24.2468ZM72.545 24.252C74.1313 24.2685 75.7188 24.2699 77.3038 24.2533C77.3038 24.6133 77.3019 24.9718 77.2994 25.3304C76.7169 25.3318 76.1331 25.3345 75.5506 25.3373C75.5644 26.8336 75.5725 28.3313 75.5494 29.8276L75.5456 29.8276C75.145 29.8331 74.7425 29.8386 74.3406 29.851C74.255 28.9265 74.2669 27.9919 74.2788 27.0581C74.2863 26.4848 74.2938 25.9117 74.2781 25.3415C73.6988 25.3318 73.1188 25.3276 72.5394 25.3373C72.5394 24.9746 72.5406 24.6133 72.545 24.252ZM79.5219 24.2533C79.1056 24.2575 78.6913 24.2603 78.2769 24.2589C78.2794 24.795 78.2781 25.3315 78.2763 25.8681V25.8681C78.2744 26.5835 78.2725 27.2988 78.28 28.0127C78.2688 28.7091 78.6856 29.3187 79.2838 29.6469C80.1 30.0882 81.1369 30.1103 81.985 29.7448C82.6763 29.4373 83.1706 28.7878 83.1638 28.0127C83.1713 27.4455 83.1688 26.8781 83.1663 26.3105V26.3103V26.3102C83.1631 25.6289 83.1606 24.9473 83.1744 24.2658C82.7619 24.2589 82.3488 24.2506 81.9369 24.2382C81.9031 24.845 81.9069 25.4521 81.9106 26.059V26.0591V26.0591C81.9138 26.5736 81.9163 27.088 81.8969 27.6018C81.8944 27.6276 81.8925 27.6543 81.89 27.6815C81.8638 27.9856 81.8319 28.3587 81.6106 28.5726C81.2719 28.945 80.6838 28.9518 80.2325 28.8346C79.8413 28.716 79.6156 28.3795 79.5781 27.9796C79.5 27.2914 79.5156 26.5905 79.5306 25.8898V25.8897C79.5425 25.3422 79.5544 24.7947 79.5219 24.2533ZM84.1506 24.2464C85.7194 24.2726 87.2975 24.274 88.8656 24.2464C88.8894 24.4834 88.9094 24.7203 88.93 24.9573V24.9581C88.94 25.0767 88.95 25.1953 88.9606 25.3138C88.3619 25.3414 87.7638 25.34 87.1638 25.3207C87.1563 26.073 87.1575 26.825 87.1594 27.5769C87.1613 28.3288 87.1631 29.0808 87.1556 29.8331C86.745 29.8372 86.335 29.8441 85.9244 29.8551C85.8769 28.8105 85.8856 27.7631 85.895 26.7169C85.8994 26.2549 85.9031 25.7931 85.9025 25.3318C85.3131 25.3359 84.7225 25.3359 84.1331 25.329C84.1388 24.9676 84.1438 24.6063 84.1506 24.2464ZM91.3919 24.262C90.8894 24.2601 90.3875 24.2581 89.8844 24.2616C89.8869 26.1151 89.8856 27.97 89.8831 29.8235C90.6531 29.8353 91.4225 29.8341 92.1919 29.8329C92.9406 29.8317 93.6888 29.8305 94.4381 29.8414V29.8273C94.4463 29.4748 94.4544 29.121 94.4644 28.7685C93.765 28.7518 93.0663 28.7535 92.3669 28.7552C91.9644 28.7562 91.5619 28.7572 91.1594 28.7546C91.1594 28.3465 91.1594 27.9383 91.1606 27.53C92.0875 27.5259 93.0144 27.5245 93.9406 27.5328C93.9463 27.1743 93.9519 26.8157 93.9588 26.4571C93.2456 26.4381 92.5319 26.4401 91.8188 26.4421C91.5994 26.4427 91.38 26.4433 91.1606 26.4433C91.1606 26.0723 91.1625 25.7014 91.1663 25.3304C92.235 25.3346 93.305 25.336 94.3731 25.3346C94.3731 25.2824 94.3738 25.2301 94.3744 25.1776C94.3763 24.8873 94.3788 24.5931 94.3481 24.3058C94.0831 24.2519 93.8 24.2538 93.5281 24.2556C93.5006 24.2558 93.4738 24.256 93.4463 24.2561C92.7613 24.2673 92.0763 24.2646 91.3919 24.262Z" fill="#919094"/>
<path fill-rule="evenodd" clip-rule="evenodd" d="M60.1761 8.384C60.1761 11.2231 58.0115 13.6582 55.4429 13.6582C52.7372 13.6582 50.7097 11.2231 50.7097 8.384C50.7097 5.40956 52.7372 3.10972 55.4429 3.10972C58.0115 3.10972 60.1761 5.40956 60.1761 8.384ZM55.4429 0C50.7098 0 46.9236 3.78614 46.9236 8.384C46.9236 12.9819 50.7098 16.6327 55.4429 16.6327C60.0408 16.6327 63.8269 12.9819 63.8269 8.384C63.8269 3.78614 60.0408 0 55.4429 0ZM72.75 16.3621V3.51556H77.7537V0.541122H64.2312V3.51556H69.235V16.3621H72.75ZM85.3262 10.1409H87.6263L85.4613 4.32726H85.3262L83.1637 10.1409H85.3262ZM82.0813 12.7112V12.8466L80.7281 16.3621H76.5362L83.1637 0.541122H87.6263L94.2513 16.3621H90.0594L88.5731 12.8466V12.7112H82.0813ZM8.51925 16.3621V3.51556H13.523V0.541122H0V3.51556H5.00371V16.3621H8.51925ZM22.5834 13.6582C25.1519 13.6582 27.3147 11.2231 27.3147 8.384C27.3147 5.40956 25.1519 3.10972 22.5834 3.10972C19.8777 3.10972 17.8503 5.40956 17.8503 8.384C17.8503 11.2231 19.8777 13.6582 22.5834 13.6582ZM14.0641 8.384C14.0641 3.78614 17.8503 0 22.5834 0C27.1794 0 30.9655 3.78614 30.9655 8.384C30.9655 12.9819 27.1794 16.6327 22.5834 16.6327C17.8503 16.6327 14.0641 12.9819 14.0641 8.384ZM40.7024 16.3621H38.9455H37.0516V10.2761L30.8302 0.541122H35.0241L38.9455 7.16644L42.7317 0.541122H46.9237L40.7024 10.2761V16.3621Z" fill="#D61A1F"/>
</svg>
