<svg xmlns="http://www.w3.org/2000/svg" xmlns:xlink="http://www.w3.org/1999/xlink" width="434" height="765" viewBox="0 0 434 765"><title>hero-illustration</title><defs><path id="a" d="M0 0h156v91H0z"/></defs><g fill="none" fill-rule="evenodd"><g transform="rotate(10 -1839.99 2006.886)"><rect width="56.363" height="100.24" x=".666" y=".737" fill="#FFF" stroke="#FFE6D0" stroke-width="2" rx="5"/><path fill="#FFE6D0" d="M6.798 14.929h44.406v67.404H6.798z" opacity=".3"/><g fill="#FFE6D0"><path d="M16.315 22.372V47.26H41.203V22.372H16.315zM38.99 45.048h-2.034c-.835-.904-2.879-1.55-4.299-2.162-1.629-.702-1.407-1.128-1.465-1.71a5.028 5.028 0 01-.02-.526c.476-.396.887-.877 1.14-1.53l.02-.05c.062-.166.088-.647.136-.824.374-.073.591-.47.674-.836.084-.148.259-.515.219-.93-.052-.534-.273-.78-.52-.884v-.093c0-.094-.002-.187-.004-.28.07-.495.13-.984.13-1.263 0-.365-.078-1.088-.325-1.751l.005.004-.326-.694-.057-.28-.28-.078c-.014-.014-.03-.026-.046-.04.035-.068-.239-.266-.004-.345-.1-.14-.597-.06-.597-.06s-.074-.482-.195-.547c-.063.089-.31.061-.514.046-.768-.1-.293-.754-1.085-.828.004-.31-.003-.558-.003-.558s-.403.337-.55.205c-.091-.311.12-.702.12-.702s-.58.006-.717.583c-.122-.166.02-.423.115-.551-.735.249-.97.802-1.264 1.156-.04.047-.147-.165-.134-.294-.286.134-.46.909-.59.964-.129.055-.392-.164-.41-.252-.27.018-.906 1.319-.906 1.319l-.627.626s.317-.024.333.09c.016.115-.464.965-.464.965s.26-.15.287-.064c.027.086-.005.029-.008.043l-.378 1.01.264-.102c-.032.369-.047.73-.047 1.057 0 .313.012.556.032.753-.215.122-.395.37-.441.846-.04.415.134.78.218.929.085.373.309.777.695.84.048.177.126.612.189.78a.59.59 0 00.012.031l.006.015a3.745 3.745 0 001.122 1.541c.001.19-.003.387-.02.56-.06.582.112 1.007-1.517 1.71-1.42.611-3.463 1.257-4.298 2.161h-2.036V24.584H38.99v20.464zM16.315 61.64h2.212v2.212h-2.212zM21.846 61.64h19.358v2.212H21.846zM16.315 56.109h2.212v2.212h-2.212zM21.846 56.109h19.358v2.212H21.846zM16.315 67.17h2.212v2.213h-2.212zM21.846 67.17h19.358v2.213H21.846z"/></g><path fill="#FFE6D0" d="M32.458 91.011c0 2.39-1.903 4.326-4.247 4.326-2.346 0-4.248-1.937-4.248-4.326 0-2.388 1.902-4.325 4.248-4.325 2.344 0 4.246 1.937 4.246 4.325"/></g><g opacity=".4" transform="rotate(-10 226.431 -1932.414)"><rect width="161.438" height="105.69" x=".562" y=".622" fill="#FFF" stroke="#A749FF" stroke-width="2" rx="2"/><g fill="#A749FF"><path d="M108.5 51.278v4.142H54.073v-4.142H108.5zm2.367-2.366H51.705v8.874h59.162v-8.874zM108.5 63.11v4.142H54.073v-4.141H108.5zm2.367-2.366H51.705v8.874h59.162v-8.874zM63.538 31.164h35.497v8.874H63.538z"/></g><path fill="#A749FF" d="M7.627 5.898a1.899 1.899 0 11-3.796 0 1.899 1.899 0 013.796 0M13.534 5.898a1.899 1.899 0 11-3.797 0 1.899 1.899 0 013.796 0M19.44 5.898a1.899 1.899 0 11-3.797 0 1.899 1.899 0 013.796 0"/><path stroke="#A749FF" stroke-linecap="square" stroke-width="2" d="M1.34 10.969h159.048"/></g><g transform="rotate(-8 4727.013 -1712.95)"><rect width="161.438" height="105.69" x=".562" y=".622" fill="#FFF" stroke="#E9E9EA" stroke-width="2" rx="2"/><path fill="#E9E9EA" d="M7.627 5.898a1.899 1.899 0 11-3.796 0 1.899 1.899 0 013.796 0M13.534 5.898a1.899 1.899 0 11-3.797 0 1.899 1.899 0 013.796 0M19.44 5.898a1.899 1.899 0 11-3.797 0 1.899 1.899 0 013.796 0"/><path stroke="#E9E9EA" stroke-linecap="square" stroke-width="2" d="M1.34 10.969h159.048"/><g transform="translate(4 15)"><mask id="b" fill="#fff"><use xlink:href="#a"/></mask><g fill="#E9E9EA" mask="url(#b)"><path d="M34.06 25.272H48.7V28.2H34.06zM34.06 32.592H48.7v2.928H34.06zM34.06 39.912H48.7v2.928H34.06zM34.06 84.564H48.7v2.928H34.06zM34.06 10.632h40.26v5.856H34.06zM111.653 28.2v19.764H58.949V28.2h52.704zm2.928-2.928H56.02v25.62h58.56v-25.62zM111.653 86.76v16.104H58.949V86.76h52.704zm2.928-2.928H56.02v21.96h58.56v-21.96zM56.02 54.552h58.56v2.928H56.02zM56.02 61.872h58.56V64.8H56.02zM56.02 69.192h58.56v2.928H56.02zM56.02 76.512h58.56v2.928H56.02z"/></g></g></g><g opacity=".4" transform="rotate(10 -716.729 592.181)"><rect width="161.438" height="105.69" x=".562" y=".622" fill="#FFF" stroke="#1BD9A9" stroke-width="2" rx="2"/><path fill="#1BD9A9" d="M7.627 5.898a1.899 1.899 0 11-3.796 0 1.899 1.899 0 013.796 0M13.534 5.898a1.899 1.899 0 11-3.797 0 1.899 1.899 0 013.796 0M19.44 5.898a1.899 1.899 0 11-3.797 0 1.899 1.899 0 013.796 0"/><path stroke="#1BD9A9" stroke-linecap="square" stroke-width="2" d="M1.34 10.969h159.048"/><g fill="#1BD9A9" transform="translate(24.02 26.368)"><path d="M33.75 6.75H81v2.7H33.75zM27 0h60.75v2.7H27zM90.787 64.125h2.7v2.7h-2.7zM97.875 64.125h14.175v2.7H97.875z"/><ellipse cx="3.375" cy="37.125" rx="3.375" ry="3.375"/><path d="M19.097 40.943l-10.34-3.447a5.356 5.356 0 01-.854 2.561l10.34 3.447c.065-.94.368-1.814.854-2.561zM28.272 41.137l9.49-9.491a5.431 5.431 0 01-1.908-1.909l-9.491 9.491a5.431 5.431 0 011.909 1.91z"/><ellipse cx="23.625" cy="43.875" rx="3.375" ry="3.375"/><ellipse cx="40.5" cy="27" rx="3.375" ry="3.375"/><path d="M52.2 35.594a5.41 5.41 0 011.39-2.314l-7.915-4.75a5.396 5.396 0 01-1.39 2.315l7.914 4.75zM69.328 25.834l-8.72 6.976a5.423 5.423 0 011.69 2.106l8.72-6.976a5.414 5.414 0 01-1.69-2.106z"/><ellipse cx="57.375" cy="37.125" rx="3.375" ry="3.375"/><ellipse cx="74.25" cy="23.625" rx="3.375" ry="3.375"/><path d="M76.556 28.5l10.19 12.228A5.423 5.423 0 0 1 88.819 39L78.63 26.772a5.423 5.423 0 0 1-2.073 1.729z"/><ellipse cx="91.125" cy="43.875" rx="3.375" ry="3.375"/><path d="M96.047 41.666l8.72-6.976a5.43 5.43 0 0 1-1.69-2.106l-8.72 6.976a5.423 5.423 0 0 1 1.69 2.106z"/><ellipse cx="108" cy="30.375" rx="3.375" ry="3.375"/></g></g><circle cx="118.25" cy="414.25" r="5.25" stroke="#A749FF" stroke-width="2" opacity=".1"/><path stroke="#E9E9EA" stroke-width="2" d="M6.25 170.5a5.25 5.25 0 1 0 0-10.5 5.25 5.25 0 0 0 0 10.5z" opacity=".6"/><circle cx="348.25" cy="264.25" r="5.25" stroke="#1BD9A9" stroke-width="2" opacity=".7"/><path stroke="#FFE6D0" stroke-width="2" d="M107.5 311l5.5 11h-11z"/><path stroke="#A749FF" stroke-width="2" d="M433.5 165l5.5 11h-11z" opacity=".4"/><path stroke="#FFE6D0" stroke-width="2" d="M236.5 64.5L224 80"/><path stroke="#E9E9EA" stroke-width="2" d="M215.5 342.5L203 358" opacity=".6"/><path stroke="#A749FF" stroke-width="2" d="M389.5 517.5L402 530" opacity=".6"/><circle cx="277.84" cy="590.102" r="5.25" stroke="#FFE6D0" stroke-width="2" transform="scale(1 -1) rotate(81 968.76 0)"/><path stroke="#1BD9A9" stroke-width="2" d="M217.256 689.257l-10.004-7.153-1.721 10.864z" opacity=".3"/><g stroke="#1BD9A9" stroke-linecap="square" stroke-width="2" opacity=".4"><path d="M260.5 489.964l-11.265-3.018M260.5 489.964l3.018-11.264M275.222 481.464l-11.264-3.018M245.778 498.464l3.018-11.264"/></g><g stroke="#E9E9EA" stroke-linecap="square" stroke-width="2" opacity=".9"><path d="M322.037 191.406l-4.928-10.57M322.037 191.406l10.57-4.929M338.012 197.22l-4.928-10.569M306.063 185.592l10.569-4.929"/></g></g></svg>