<svg width="28" height="23" viewBox="0 0 28 23" fill="none" xmlns="http://www.w3.org/2000/svg">
<path fill="#f0f0f0" d="M9.86396 0C10.5462 0 11.1526 0.189509 11.6832 0.568528C12.2328 0.947546 12.5076 1.36447 12.5076 1.81929C12.5076 2.10355 12.3276 2.43519 11.9675 2.81421C10.7357 4.04602 9.87343 5.07885 9.38071 5.91269C8.90694 6.72758 8.67005 7.56142 8.67005 8.41421C8.67005 9.02064 8.98274 9.57022 9.60812 10.0629C10.8399 11.0105 11.7022 11.9201 12.1949 12.7919C12.6876 13.6636 12.934 14.6964 12.934 15.8904C12.934 17.7475 12.3371 19.3015 11.1431 20.5523C9.94924 21.7841 8.45211 22.4 6.65178 22.4C4.64298 22.4 2.99425 21.6135 1.70558 20.0406C0.568528 18.6382 0 16.98 0 15.066C0 10.4988 2.20778 6.0264 6.62335 1.64873C7.70355 0.568528 8.78376 0.0189509 9.86396 0ZM24.9299 0C25.6122 0 26.2186 0.189509 26.7492 0.568528C27.2988 0.947546 27.5736 1.36447 27.5736 1.81929C27.5736 2.10355 27.3841 2.43519 27.0051 2.81421C25.7922 4.04602 24.9394 5.07885 24.4467 5.91269C23.9729 6.72758 23.736 7.56142 23.736 8.41421C23.736 9.02064 24.0487 9.57022 24.6741 10.0629C25.9059 11.0105 26.7682 11.9201 27.2609 12.7919C27.7536 13.6636 28 14.6964 28 15.8904C28 17.7475 27.403 19.3015 26.2091 20.5523C25.0152 21.7841 23.5181 22.4 21.7178 22.4C19.709 22.4 18.0602 21.6135 16.7716 20.0406C15.6345 18.6382 15.066 16.98 15.066 15.066C15.066 10.4988 17.2738 6.0264 21.6893 1.64873C22.7695 0.568528 23.8497 0.0189509 24.9299 0Z"/>
</svg>
