<?xml version="1.0" encoding="UTF-8"?>
<svg width="96px" height="40px" viewBox="0 0 96 40" version="1.1" xmlns="http://www.w3.org/2000/svg" xmlns:xlink="http://www.w3.org/1999/xlink">
    <!-- Generator: Sketch 63.1 (92452) - https://sketch.com -->
    <title>Artboard</title>
    <desc>Created with Sketch.</desc>
    <g id="Artboard" stroke="none" stroke-width="1" fill="none" fill-rule="evenodd">
        <g id="Group" transform="translate(0.205491, 0.180619)" fill="#000000" fill-rule="nonzero">
            <path d="M24.6945094,14.4193815 C24.7945094,14.4193815 24.8945094,14.4193815 24.9945094,14.4193815 C25.5945094,14.4193815 26.0945094,14.2193815 26.4945094,13.8193815 C27.2945094,12.9193815 27.7945094,11.2193815 26.9945094,9.51938148 C26.4945094,8.51938148 25.5945094,7.71938148 24.5945094,7.61938148 C23.8945094,7.51938148 23.2945094,7.71938148 22.8945094,8.21938148 C21.7945094,9.41938148 21.5945094,11.4193815 22.5945094,12.9193815 C22.9945094,13.7193815 23.7945094,14.3193815 24.6945094,14.4193815" id="Path"></path>
            <path d="M64.7945094,16.8193815 C63.9945094,15.6193815 62.7945094,15.0193815 61.2945094,15.0193815 C60.2945094,15.0193815 59.1945094,15.4193815 58.0945094,16.0193815 C58.6945094,15.0193815 59.1945094,14.1193815 59.7945094,13.2193815 C60.6945094,11.7193815 61.4945094,10.4193815 61.8945094,9.61938148 C63.9945094,5.81938148 64.3945094,2.81938148 63.2945094,0.81938148 C63.1945094,0.61938148 62.7945094,0.0193814796 62.1945094,0.0193814796 C61.5945094,0.0193814796 61.1945094,0.61938148 60.9945094,0.71938148 C58.5945094,4.01938148 53.5945094,13.7193815 49.4945094,21.4193815 C46.9945094,26.3193815 44.7945094,30.5193815 43.7945094,32.0193815 C42.3945094,34.3193815 40.6945094,35.8193815 39.4945094,35.9193815 C38.8945094,35.9193815 38.7945094,35.7193815 38.6945094,35.7193815 C38.4945094,35.5193815 38.2945094,34.6193815 39.5945094,31.7193815 C41.7945094,27.0193815 45.6945094,20.2193815 48.4945094,15.2193815 C49.1945094,13.9193815 49.8945094,12.7193815 50.4945094,11.7193815 C50.8945094,10.9193815 51.3945094,10.2193815 51.7945094,9.41938148 C53.8945094,6.01938148 55.5945094,3.01938148 54.1945094,0.71938148 C53.9945094,0.41938148 53.7945094,0.11938148 53.3945094,0.0193814796 C52.9945094,-0.0806185204 52.5945094,0.21938148 52.0945094,0.61938148 C48.9945094,3.21938148 44.4945094,11.7193815 41.3945094,17.6193815 C41.1945094,17.0193815 40.8945094,16.4193815 40.4945094,16.0193815 C39.7945094,15.3193815 38.8945094,14.9193815 37.7945094,14.9193815 C34.9945094,14.9193815 30.2945094,17.3193815 25.6945094,24.1193815 C24.2945094,26.1193815 23.3945094,28.2193815 22.9945094,30.3193815 C21.1945094,33.7193815 18.6945094,36.1193815 16.8945094,36.2193815 C16.3945094,36.2193815 16.2945094,36.1193815 16.1945094,35.9193815 C15.7945094,35.4193815 15.7945094,34.0193815 16.8945094,31.5193815 C17.5945094,29.9193815 18.6945094,27.9193815 19.6945094,26.0193815 C20.3945094,24.7193815 21.0945094,23.4193815 21.5945094,22.4193815 C22.9945094,19.5193815 22.5945094,16.9193815 21.5945094,15.7193815 C21.2945094,15.4193815 20.9945094,15.2193815 20.6945094,15.2193815 C20.1945094,15.2193815 19.7945094,15.7193815 19.4945094,16.0193815 C17.4945094,18.9193815 13.6945094,25.5193815 12.2945094,29.8193815 C12.0945094,30.3193815 11.9945094,30.8193815 11.8945094,31.3193815 C9.89450943,34.4193815 7.79450943,36.2193815 6.29450943,36.1193815 C5.79450943,36.1193815 5.29450943,35.8193815 4.99450943,35.3193815 C4.19450943,34.0193815 4.59450943,31.7193815 5.59450943,29.1193815 C7.29450943,24.5193815 10.4945094,19.4193815 12.7945094,15.7193815 L12.9945094,15.4193815 C13.9945094,15.2193815 15.7945094,15.0193815 17.0945094,15.2193815 C17.6945094,15.2193815 18.0945094,15.0193815 18.2945094,14.7193815 C18.4945094,14.3193815 18.4945094,13.9193815 18.1945094,13.4193815 C17.6945094,12.6193815 16.8945094,11.7193815 15.0945094,11.5193815 C16.0945094,9.11938148 16.1945094,7.21938148 15.4945094,5.41938148 C14.8945094,5.01938148 14.4945094,4.81938148 14.1945094,4.81938148 C13.8945094,4.81938148 13.3945094,4.81938148 12.9945094,5.51938148 C12.1945094,6.61938148 10.7945094,8.81938148 8.79450943,12.3193815 C7.09450943,12.5193815 5.69450943,12.5193815 4.49450943,12.5193815 C3.69450943,12.5193815 3.29450943,12.8193815 3.19450943,13.0193815 C3.09450943,13.3193815 2.99450943,13.7193815 3.49450943,14.4193815 C3.99450943,15.1193815 5.19450943,15.8193815 6.69450943,16.0193815 C4.29450943,20.4193815 2.19450943,24.8193815 1.09450943,27.4193815 C-0.905490569,32.1193815 0.294509431,35.0193815 1.09450943,36.3193815 C2.09450943,37.9193815 3.69450943,38.8193815 5.49450943,38.8193815 C8.09450943,38.9193815 10.2945094,37.5193815 11.7945094,36.1193815 C12.4945094,37.9193815 14.0945094,38.8193815 16.2945094,38.8193815 C18.6945094,38.8193815 21.1945094,37.6193815 23.0945094,35.5193815 C23.8945094,37.6193815 25.4945094,38.7193815 27.6945094,38.7193815 C30.3945094,38.7193815 32.7945094,36.7193815 34.2945094,35.1193815 C34.6945094,37.3193815 36.3945094,38.6193815 39.1945094,38.8193815 C42.1945094,39.0193815 45.4945094,37.1193815 46.8945094,35.7193815 C48.0945094,37.7193815 50.3945094,39.0193815 52.6945094,39.0193815 C53.1945094,39.0193815 53.5945094,38.9193815 54.0945094,38.8193815 C58.0945094,37.9193815 61.1945094,34.8193815 63.6945094,29.2193815 C65.9945094,24.0193815 66.3945094,19.3193815 64.7945094,16.8193815 M58.7945094,27.4193815 L58.7945094,27.4193815 C56.0945094,32.8193815 53.5945094,35.4193815 51.5945094,34.9193815 C50.2945094,34.6193815 49.7945094,33.0193815 49.5945094,31.7193815 C51.9945094,26.7193815 54.5945094,22.6193815 56.6945094,20.3193815 C58.1945094,18.8193815 59.2945094,18.1193815 60.3945094,18.2193815 C60.4945094,18.2193815 60.6945094,18.4193815 60.6945094,18.5193815 C61.1945094,19.5193815 61.3945094,22.3193815 58.7945094,27.4193815 M28.3945094,35.9193815 C28.0945094,35.9193815 27.8945094,35.8193815 27.7945094,35.5193815 C27.0945094,34.3193815 27.8945094,30.6193815 30.2945094,26.9193815 C33.3945094,21.9193815 37.3945094,18.7193815 38.6945094,18.7193815 C38.6945094,18.7193815 38.6945094,18.7193815 38.6945094,18.7193815 C38.7945094,18.7193815 38.8945094,18.8193815 38.8945094,18.8193815 C38.9945094,19.0193815 39.4945094,20.6193815 35.7945094,27.8193815 C33.2945094,32.7193815 30.3945094,35.9193815 28.3945094,35.9193815" id="Shape"></path>
            <path d="M80.2945094,13.6193815 C80.2945094,13.8193815 80.3945094,14.1193815 80.6945094,14.4193815 C81.1945094,15.1193815 82.3945094,15.8193815 83.8945094,16.0193815 C81.5945094,20.3193815 79.3945094,24.7193815 78.2945094,27.3193815 C78.0945094,27.7193815 77.9945094,28.1193815 77.8945094,28.4193815 C77.7945094,28.5193815 77.7945094,28.6193815 77.6945094,28.7193815 C75.8945094,32.7193815 71.8945094,36.0193815 69.7945094,36.1193815 C69.2945094,36.1193815 69.1945094,36.0193815 69.0945094,35.8193815 C68.6945094,35.3193815 68.6945094,33.9193815 69.7945094,31.4193815 C70.4945094,29.8193815 71.5945094,27.8193815 72.5945094,25.9193815 C73.2945094,24.6193815 73.9945094,23.3193815 74.4945094,22.3193815 C75.8945094,19.4193815 75.4945094,16.8193815 74.4945094,15.6193815 C74.1945094,15.3193815 73.8945094,15.1193815 73.5945094,15.1193815 C73.0945094,15.1193815 72.6945094,15.6193815 72.3945094,15.9193815 C70.3945094,18.8193815 66.5945094,25.4193815 65.1945094,29.7193815 C64.1945094,32.7193815 64.2945094,35.2193815 65.3945094,36.8193815 C66.1945094,38.0193815 67.5945094,38.6193815 69.3945094,38.6193815 C71.9945094,38.6193815 75.7945094,37.1193815 77.7945094,34.7193815 C78.5945094,37.0193815 80.4945094,38.5193815 82.8945094,38.6193815 C82.9945094,38.6193815 83.0945094,38.6193815 83.0945094,38.6193815 C87.6945094,38.6193815 91.4945094,33.7193815 92.2945094,31.9193815 C92.8945094,30.5193815 93.1945094,29.4193815 92.8945094,28.4193815 C92.6945094,27.6193815 92.1945094,27.5193815 91.9945094,27.5193815 C91.4945094,27.5193815 91.0945094,27.8193815 90.7945094,28.3193815 C88.4945094,33.0193815 85.4945094,36.2193815 83.4945094,36.1193815 C82.8945094,36.1193815 82.4945094,35.8193815 82.1945094,35.3193815 C81.3945094,34.0193815 81.6945094,31.6193815 82.7945094,29.1193815 C84.7945094,24.6193815 87.7945094,19.5193815 89.9945094,15.7193815 L90.1945094,15.4193815 C91.1945094,15.2193815 92.9945094,15.0193815 94.2945094,15.2193815 C94.8945094,15.2193815 95.2945094,15.0193815 95.4945094,14.7193815 C95.6945094,14.4193815 95.6945094,13.9193815 95.3945094,13.4193815 L95.3945094,13.4193815 C94.8945094,12.6193815 94.0945094,11.7193815 92.2945094,11.5193815 L92.2945094,11.4193815 C93.4945094,8.81938148 94.2945094,7.11938148 93.6945094,5.41938148 C93.3945094,4.71938148 92.9945094,4.61938148 92.6945094,4.61938148 C92.3945094,4.61938148 91.8945094,4.61938148 91.4945094,5.31938148 C91.0945094,5.81938148 90.5945094,6.51938148 89.9945094,7.31938148 C88.9945094,8.71938148 87.6945094,10.4193815 86.3945094,12.1193815 C84.6945094,12.3193815 83.2945094,12.3193815 81.9945094,12.3193815 C81.1945094,12.2193815 80.7945094,12.6193815 80.6945094,12.8193815 C80.6945094,12.9193815 80.5945094,12.9193815 80.5945094,13.0193815" id="Path"></path>
            <path d="M79.2945094,11.2193815 C79.2945094,10.6193815 79.1945094,10.0193815 78.8945094,9.41938148 C78.3945094,8.41938148 77.4945094,7.61938148 76.4945094,7.51938148 C75.7945094,7.41938148 75.1945094,7.61938148 74.7945094,8.11938148 C73.6945094,9.31938148 73.4945094,11.3193815 74.3945094,12.8193815 C74.8945094,13.7193815 75.6945094,14.2193815 76.5945094,14.3193815 C76.6945094,14.3193815 76.7945094,14.3193815 76.8945094,14.3193815 C77.4945094,14.3193815 77.9945094,14.1193815 78.3945094,13.7193815 C78.8945094,13.2193815 79.1945094,12.4193815 79.2945094,11.5193815" id="Path"></path>
        </g>
    </g>
</svg>